<?xml version="1.0" encoding="utf-8"?>
<!-- Generator: Adobe Illustrator 24.0.1, SVG Export Plug-In . SVG Version: 6.00 Build 0)  -->
<svg version="1.1" id="Layer_1" xmlns="http://www.w3.org/2000/svg" xmlns:xlink="http://www.w3.org/1999/xlink" x="0px" y="0px"
	 viewBox="0 0 10.15 10.75" style="enable-background:new 0 0 10.15 10.75;" xml:space="preserve">
<style type="text/css">
	.st0{fill:#B9A064;}
</style>
<path class="st0" d="M10.15,5.98c0,1.49-1.21,2.7-2.7,2.7c-0.69,0-1.32-0.26-1.8-0.69c0.03,0.89,0.15,2.1,0.51,2.75H3.99
	c0.36-0.66,0.48-1.87,0.51-2.75C4.02,8.42,3.39,8.68,2.7,8.68C1.21,8.68,0,7.47,0,5.98c0-1.4,1.07-2.56,2.44-2.69
	C2.39,3.1,2.37,2.9,2.37,2.7c0-1.49,1.21-2.7,2.7-2.7s2.7,1.21,2.7,2.7c0,0.2-0.02,0.4-0.07,0.59C9.08,3.42,10.15,4.57,10.15,5.98"
	/>
</svg>
