<svg enable-background="new 0 0 171.72 171.72" viewBox="0 0 171.72 171.72" xmlns="http://www.w3.org/2000/svg"><circle cx="85.86" cy="85.86" fill="#dfdbd9" r="85.86"/><path d="m85.86 168.85c-45.76 0-82.99-37.23-82.99-82.99s37.23-82.99 82.99-82.99 82.99 37.23 82.99 82.99-37.23 82.99-82.99 82.99zm0-164.42c-44.9 0-81.43 36.53-81.43 81.43s36.53 81.43 81.43 81.43 81.43-36.53 81.43-81.43c-.01-44.9-36.53-81.43-81.43-81.43z" fill="#726b74"/><path d="m85.86 166.76c-44.61 0-80.91-36.29-80.91-80.91s36.3-80.9 80.91-80.9 80.91 36.29 80.91 80.91-36.3 80.9-80.91 80.9zm0-160.24c-43.75 0-79.34 35.59-79.34 79.34s35.59 79.34 79.34 79.34 79.34-35.59 79.34-79.34-35.59-79.34-79.34-79.34z" fill="#726b74"/><path d="m85.86 164.68c-43.46 0-78.82-35.36-78.82-78.82s35.36-78.82 78.82-78.82 78.82 35.36 78.82 78.82-35.36 78.82-78.82 78.82zm0-156.08c-42.6 0-77.26 34.66-77.26 77.26s34.66 77.26 77.26 77.26 77.26-34.66 77.26-77.26-34.66-77.26-77.26-77.26z" fill="#726b74"/><path d="m85.86 162.59c-42.31 0-76.74-34.42-76.74-76.74s34.42-76.73 76.74-76.73 76.74 34.42 76.74 76.74-34.43 76.73-76.74 76.73zm0-151.9c-41.45 0-75.17 33.72-75.17 75.17s33.72 75.17 75.17 75.17 75.17-33.72 75.17-75.17-33.72-75.17-75.17-75.17z" fill="#726b74"/><path d="m85.86 160.51c-41.16 0-74.65-33.49-74.65-74.65s33.49-74.65 74.65-74.65 74.65 33.49 74.65 74.65-33.49 74.65-74.65 74.65zm0-147.74c-40.3 0-73.09 32.79-73.09 73.09s32.79 73.09 73.09 73.09 73.09-32.79 73.09-73.09-32.79-73.09-73.09-73.09z" fill="#726b74"/><path d="m85.86 158.42c-40.01 0-72.57-32.55-72.57-72.57 0-40.01 32.55-72.57 72.57-72.57s72.57 32.55 72.57 72.57c-.01 40.02-32.56 72.57-72.57 72.57zm0-143.56c-39.15 0-71 31.85-71 71s31.85 71 71 71 71-31.85 71-71-31.85-71-71-71z" fill="#726b74"/><path d="m162.39 89.63c-1.11 0-2.01-.9-2.01-2.01 0-.51.19-.98.51-1.34-.66.03-1.56.11-2.05.38v-1.62c.49.27 1.39.35 2.05.38-.32-.35-.51-.82-.51-1.34 0-1.11.9-2.01 2.01-2.01 1.04 0 1.9.8 2 1.81.14-.03.29-.05.44-.05 1.11 0 2.01.9 2.01 2.01s-.9 2.01-2.01 2.01c-.15 0-.3-.02-.44-.05-.09 1.03-.95 1.83-2 1.83z" fill="#dfdbd9"/><path d="m9.32 82.08c1.11 0 2.01.9 2.01 2.01 0 .51-.19.98-.51 1.34.66-.03 1.56-.11 2.05-.38v1.62c-.49-.27-1.39-.35-2.05-.38.32.35.51.82.51 1.34 0 1.11-.9 2.01-2.01 2.01-1.04 0-1.9-.8-2-1.81-.14.03-.29.05-.44.05-1.11 0-2.01-.9-2.01-2.01s.9-2.01 2.01-2.01c.15 0 .3.02.44.05.1-1.03.96-1.83 2-1.83z" fill="#dfdbd9"/><path d="m137.31 142.65c-.78-.78-.78-2.06 0-2.84.36-.36.83-.56 1.31-.58-.49-.45-1.18-1.02-1.72-1.18l1.15-1.15c.16.53.73 1.23 1.18 1.72.03-.47.22-.94.58-1.31.78-.78 2.06-.78 2.84 0 .74.74.78 1.91.13 2.7.12.08.24.17.35.28.78.78.78 2.06 0 2.84s-2.06.78-2.84 0c-.11-.11-.2-.22-.28-.35-.79.65-1.96.6-2.7-.13z" fill="#dfdbd9"/><path d="m34.41 29.07c.78.78.78 2.06 0 2.84-.36.36-.83.56-1.31.58.49.45 1.18 1.02 1.72 1.18l-1.15 1.15c-.16-.53-.73-1.23-1.18-1.72-.03.47-.22.94-.58 1.31-.78.78-2.06.78-2.84 0-.74-.74-.78-1.91-.13-2.7-.12-.08-.24-.17-.35-.28-.78-.78-.78-2.06 0-2.84s2.06-.78 2.84 0c.11.11.2.22.28.35.79-.65 1.96-.61 2.7.13z" fill="#dfdbd9"/><path d="m82.08 162.39c0-1.11.9-2.01 2.01-2.01.51 0 .98.19 1.34.51-.03-.66-.11-1.56-.38-2.05h1.62c-.27.49-.35 1.39-.38 2.05.35-.32.82-.51 1.34-.51 1.11 0 2.01.9 2.01 2.01 0 1.04-.8 1.9-1.81 2 .03.14.05.29.05.44 0 1.11-.9 2.01-2.01 2.01s-2.01-.9-2.01-2.01c0-.15.02-.3.05-.44-1.03-.09-1.83-.95-1.83-2z" fill="#dfdbd9"/><path d="m89.63 9.32c0 1.11-.9 2.01-2.01 2.01-.51 0-.98-.19-1.34-.51.03.66.11 1.56.38 2.05h-1.62c.27-.49.35-1.39.38-2.05-.35.32-.82.51-1.34.51-1.11 0-2.01-.9-2.01-2.01 0-1.04.8-1.9 1.81-2-.03-.14-.05-.29-.05-.44 0-1.11.9-2.01 2.01-2.01s2.01.9 2.01 2.01c0 .15-.02.3-.05.44 1.03.1 1.83.96 1.83 2z" fill="#dfdbd9"/><path d="m29.07 137.31c.78-.78 2.06-.78 2.84 0 .36.36.56.83.58 1.31.45-.49 1.02-1.18 1.18-1.72l1.15 1.15c-.53.16-1.23.73-1.72 1.18.47.03.94.22 1.31.58.78.78.78 2.06 0 2.84-.74.74-1.91.78-2.7.13-.08.12-.17.24-.28.35-.78.78-2.06.78-2.84 0s-.78-2.06 0-2.84c.11-.11.22-.2.35-.28-.65-.79-.61-1.96.13-2.7z" fill="#dfdbd9"/><path d="m142.65 34.41c-.78.78-2.06.78-2.84 0-.36-.36-.56-.83-.58-1.31-.45.49-1.02 1.18-1.18 1.72l-1.15-1.15c.53-.16 1.23-.73 1.72-1.18-.47-.03-.94-.22-1.31-.58-.78-.78-.78-2.06 0-2.84.74-.74 1.91-.78 2.7-.13.08-.12.17-.24.28-.35.78-.78 2.06-.78 2.84 0s.78 2.06 0 2.84c-.11.11-.22.2-.35.28.65.79.6 1.96-.13 2.7z" fill="#dfdbd9"/><circle cx="157.05" cy="56.37" fill="#dfdbd9" r="2.34"/><circle cx="14.66" cy="115.35" fill="#dfdbd9" r="2.34"/><circle cx="115.35" cy="14.66" fill="#dfdbd9" r="2.34"/><circle cx="56.37" cy="157.05" fill="#dfdbd9" r="2.34"/><circle cx="56.37" cy="14.66" fill="#dfdbd9" r="2.34"/><circle cx="115.35" cy="157.05" fill="#dfdbd9" r="2.34"/><circle cx="14.66" cy="56.37" fill="#dfdbd9" r="2.34"/><circle cx="157.05" cy="115.35" fill="#dfdbd9" r="2.34"/><path d="m82.07 20.79-1.56-.08c.15-2.85 2.5-5.08 5.35-5.08s5.2 2.23 5.35 5.08l-1.56.08c-.1-2.02-1.77-3.6-3.79-3.6s-3.68 1.58-3.79 3.6z" fill="#726b74"/><path d="m85.86 156.09c-2.85 0-5.2-2.23-5.35-5.08l1.56-.08c.1 2.02 1.77 3.6 3.79 3.6s3.68-1.58 3.79-3.6l1.56.08c-.15 2.85-2.5 5.08-5.35 5.08z" fill="#726b74"/><path d="m52.73 29.49c-1.09-2.62.06-5.65 2.62-6.88 2.58-1.24 5.67-.25 7.02 2.27l-1.38.74c-.96-1.78-3.14-2.49-4.97-1.6-1.81.88-2.63 3.02-1.85 4.87z" fill="#726b74"/><path d="m114.03 149.65c-1.9 0-3.73-1.02-4.69-2.81l1.38-.74c.96 1.78 3.14 2.48 4.97 1.6 1.82-.87 2.63-3.01 1.85-4.87l1.44-.6c1.1 2.62-.05 5.65-2.61 6.88-.75.37-1.55.54-2.34.54z" fill="#726b74"/><path d="m31.51 49.47c-2.11-1.89-2.38-5.1-.62-7.32 1.78-2.25 5-2.69 7.33-1.01l-.92 1.26c-1.64-1.19-3.92-.88-5.18.71-1.25 1.57-1.06 3.85.44 5.19z" fill="#726b74"/><path d="m136.64 131.6c-1.09 0-2.19-.33-3.14-1.02l.92-1.26c1.64 1.19 3.92.88 5.18-.71 1.25-1.57 1.06-3.85-.44-5.19l1.04-1.17c2.11 1.89 2.38 5.11.62 7.32-1.06 1.33-2.61 2.03-4.18 2.03z" fill="#726b74"/><path d="m21.1 76.68c-2.72-.78-4.36-3.56-3.74-6.32.63-2.8 3.35-4.59 6.17-4.08l-.28 1.54c-2-.36-3.92.91-4.37 2.89-.44 1.95.72 3.92 2.64 4.48z" fill="#726b74"/><path d="m149.15 105.53c-.32 0-.64-.03-.96-.09l.28-1.54c2 .36 3.91-.91 4.36-2.9.44-1.95-.72-3.92-2.64-4.47l.43-1.5c2.72.78 4.36 3.56 3.73 6.32-.56 2.49-2.75 4.18-5.2 4.18z" fill="#726b74"/><path d="m22.64 105.8c-2.44 0-4.64-1.69-5.21-4.15-.65-2.81 1.02-5.61 3.81-6.36l.41 1.51c-1.97.53-3.15 2.51-2.69 4.5.45 1.95 2.35 3.22 4.31 2.88l.26 1.54c-.3.06-.6.08-.89.08z" fill="#726b74"/><path d="m150.48 76.42-.41-1.51c1.97-.53 3.15-2.51 2.69-4.5-.45-1.95-2.35-3.22-4.31-2.88l-.26-1.54c2.78-.47 5.46 1.32 6.09 4.07.65 2.81-1.02 5.61-3.8 6.36z" fill="#726b74"/><path d="m35.27 131.82c-1.57 0-3.13-.69-4.18-2-1.81-2.25-1.52-5.5.67-7.39l1.02 1.18c-1.55 1.33-1.76 3.63-.47 5.22 1.25 1.56 3.51 1.88 5.13.73l.9 1.28c-.93.66-2.01.98-3.07.98z" fill="#726b74"/><path d="m139.96 49.29-1.02-1.18c1.54-1.34 1.75-3.63.47-5.23-1.25-1.55-3.51-1.87-5.13-.73l-.9-1.28c2.3-1.62 5.49-1.17 7.25 1.02 1.81 2.26 1.51 5.51-.67 7.4z" fill="#726b74"/><path d="m57.92 149.77c-.77 0-1.56-.17-2.3-.52-2.62-1.25-3.76-4.31-2.6-6.97l1.43.63c-.82 1.88-.01 4.04 1.84 4.93 1.8.86 3.96.17 4.93-1.56l1.37.76c-.97 1.73-2.79 2.73-4.67 2.73z" fill="#726b74"/><path d="m118.69 29.43-1.43-.63c.82-1.88.01-4.04-1.84-4.93-1.79-.86-3.96-.17-4.93 1.56l-1.36-.77c1.37-2.45 4.44-3.42 6.97-2.21 2.61 1.27 3.75 4.33 2.59 6.98z" fill="#726b74"/><circle cx="149.34" cy="85.86" fill="#726b74" r=".99"/><circle cx="22.38" cy="85.86" fill="#726b74" r=".99"/><circle cx="142.98" cy="58.16" fill="#726b74" r=".99"/><circle cx="28.74" cy="113.56" fill="#726b74" r=".99"/><circle cx="125.73" cy="36.46" fill="#726b74" r=".99"/><circle cx="45.99" cy="135.25" fill="#726b74" r=".99"/><circle cx="143" cy="113.51" fill="#726b74" r=".99"/><circle cx="28.72" cy="58.2" fill="#726b74" r=".99"/><circle cx="125.29" cy="135.61" fill="#726b74" r=".99"/><circle cx="46.43" cy="36.11" fill="#726b74" r=".99"/><circle cx="99.5" cy="147.85" fill="#726b74" r=".99"/><circle cx="72.21" cy="23.86" fill="#726b74" r=".99"/><circle cx="100.92" cy="24.19" fill="#726b74" r=".99"/><circle cx="70.79" cy="147.52" fill="#726b74" r=".99"/><path d="m76.22 152.31c-6.89 0-13.64-2.95-18.31-8.4-10.57-.37-19.71-7.66-22.42-17.88-9.36-4.92-14.43-15.45-12.44-25.84-6.3-8.49-6.3-20.18 0-28.67-1.99-10.38 3.09-20.92 12.44-25.84 2.71-10.21 11.85-17.5 22.41-17.87 6.88-8.03 18.28-10.63 27.96-6.38 9.68-4.25 21.08-1.65 27.96 6.38 10.57.37 19.7 7.66 22.42 17.88 9.36 4.92 14.43 15.45 12.44 25.84 6.3 8.49 6.3 20.18 0 28.67 1.99 10.38-3.09 20.92-12.44 25.84-2.71 10.22-11.85 17.51-22.42 17.88-6.88 8.03-18.28 10.63-27.96 6.38-3.11 1.35-6.39 2.01-9.64 2.01zm-.01-131.34c-6.55 0-12.96 2.85-17.34 8.11-.15.17-.36.28-.59.28-10.13.21-18.92 7.22-21.38 17.05-.05.22-.2.41-.4.51-9.04 4.58-13.92 14.71-11.86 24.64.05.22-.01.45-.14.63-6.15 8.05-6.15 19.29 0 27.34.14.18.19.41.14.63-2.05 9.92 2.83 20.05 11.86 24.64.2.1.35.29.4.51 2.46 9.83 11.25 16.84 21.38 17.05.23 0 .44.11.59.28 6.48 7.79 17.44 10.29 26.66 6.08.21-.09.44-.09.65 0 9.22 4.21 20.18 1.71 26.66-6.08.15-.17.36-.28.59-.28 10.13-.21 18.92-7.22 21.38-17.05.05-.22.2-.41.4-.51 9.04-4.58 13.92-14.71 11.86-24.64-.05-.22.01-.45.14-.63 6.15-8.05 6.15-19.29 0-27.34-.14-.18-.19-.41-.14-.63 2.05-9.92-2.83-20.05-11.86-24.64-.2-.1-.35-.29-.4-.51-2.46-9.83-11.25-16.84-21.38-17.05-.23 0-.44-.11-.59-.28-6.48-7.79-17.44-10.29-26.66-6.08-.21.09-.44.09-.65 0-2.99-1.37-6.17-2.03-9.32-2.03z" fill="#726b74"/><path d="m134.8 46.41c-2.46-9.83-11.25-16.84-21.38-17.05-.23 0-.44-.11-.59-.28-6.48-7.79-17.44-10.29-26.66-6.08-.21.09-.44.09-.65 0-2.99-1.37-6.17-2.03-9.32-2.03-6.55 0-12.96 2.85-17.34 8.11-.15.17-.36.28-.59.28-10.13.21-18.92 7.22-21.38 17.05-.05.22-.2.41-.4.51-9.04 4.58-13.92 14.71-11.86 24.64.05.22-.01.45-.14.63-6.15 8.05-6.15 19.29 0 27.34.14.18.19.41.14.63-2.05 9.92 2.83 20.05 11.86 24.64.2.1.35.29.4.51 2.46 9.83 11.25 16.84 21.38 17.05.23 0 .44.11.59.28 6.48 7.79 17.44 10.29 26.66 6.08.21-.09.44-.09.65 0 9.22 4.21 20.18 1.71 26.66-6.08.15-.17.36-.28.59-.28 10.13-.21 18.92-7.22 21.38-17.05.05-.22.2-.41.4-.51 9.04-4.58 13.92-14.71 11.86-24.64-.05-.22.01-.45.14-.63 6.15-8.05 6.15-19.29 0-27.34-.14-.18-.19-.41-.14-.63 2.05-9.92-2.83-20.05-11.86-24.64-.19-.11-.34-.29-.4-.51zm-112.42 40.44c-.55 0-.99-.44-.99-.99s.44-.99.99-.99.99.44.99.99-.44.99-.99.99zm5.44-29.08c.24-.49.83-.7 1.33-.46.49.24.7.83.46 1.33s-.83.7-1.33.46c-.49-.24-.69-.84-.46-1.33zm1.35 56.68c-.49.24-1.09.03-1.33-.46s-.03-1.09.46-1.33 1.09-.03 1.33.46c.24.5.04 1.09-.46 1.33zm17.59 21.43c-.34.43-.97.49-1.4.15s-.49-.97-.15-1.4.97-.49 1.4-.15c.43.35.49.97.15 1.4zm.28-98.99c-.43.34-1.05.27-1.39-.16s-.27-1.05.16-1.39 1.05-.27 1.39.16.27 1.05-.16 1.39zm24.72 110.87c-.13.53-.67.86-1.2.73s-.86-.67-.73-1.2.67-.86 1.2-.73.86.67.73 1.2zm.67-122.93c-.54.12-1.07-.22-1.18-.76-.12-.54.22-1.07.76-1.18s1.07.22 1.18.76-.23 1.06-.76 1.18zm27.28 123.99c-.54.12-1.07-.22-1.18-.76-.12-.54.22-1.07.76-1.18.54-.12 1.07.22 1.18.76.12.54-.22 1.07-.76 1.18zm2.18-124.39c-.13.53-.67.86-1.2.73s-.86-.67-.73-1.2.67-.86 1.2-.73.86.66.73 1.2zm24.01 111.95c-.43.34-1.05.27-1.39-.16s-.27-1.05.16-1.39 1.05-.27 1.39.16c.35.43.27 1.05-.16 1.39zm.6-99.3c-.34.43-.97.49-1.4.15s-.49-.97-.15-1.4.97-.49 1.4-.15c.43.35.5.98.15 1.4zm22.84 47.78c.55 0 .99.44.99.99s-.44.99-.99.99-.99-.44-.99-.99c-.01-.54.44-.99.99-.99zm-5.45 29.08c-.24.49-.83.7-1.33.46-.49-.24-.7-.83-.46-1.33.24-.49.83-.7 1.33-.46.49.25.7.84.46 1.33zm-1.35-56.67c.49-.24 1.09-.03 1.33.46s.03 1.09-.46 1.33-1.09.03-1.33-.46c-.24-.5-.03-1.1.46-1.33z" fill="#fffdfa"/><g fill="#726b74"><path d="m54.82 62.45-2.86 4.98c-.55.96-.69 1.82-.69 3.14h3.63c.72 0 1.02-.14 1.02-.14v1.62h-6.22v-1.57c0-1.54.28-2.78 1.16-4.32l2.37-4.13c.77-1.32.91-2.7.91-4.18v-1.1c0-1.38-.22-1.95-1.27-1.95-.99 0-1.29.88-1.29 1.68 0 1.54.25 2.12.25 2.12h-2.06s.25-.41.25-1.79c0-.88.08-1.71.44-2.28.44-.69 1.13-1.07 2.42-1.07s1.98.39 2.42 1.07c.44.72.47 1.68.47 2.81-.01 2.22-.2 3.85-.95 5.11z"/><path d="m63.36 68.46c0 1.13 0 2.12-.44 2.83-.44.69-1.18 1.1-2.48 1.1-1.29 0-2.04-.41-2.48-1.1-.44-.72-.44-1.71-.44-2.83v-11.07c0-1.13 0-2.12.44-2.84.44-.69 1.18-1.1 2.48-1.1 1.29 0 2.04.41 2.48 1.1.44.72.44 1.71.44 2.84zm-4.24.63c0 1.38.3 1.95 1.32 1.95s1.32-.58 1.32-1.95v-12.33c0-1.38-.3-1.95-1.32-1.95s-1.32.58-1.32 1.95z"/><path d="m67.15 69.72c0 1.82.25 2.34.25 2.34h-2.09s.25-.52.25-2.34v-14.29h-.38c-.69 0-.99.17-.99.17v-.99l1.51-.83h1.62c-.14.55-.17.96-.17 2.34z"/><path d="m69.08 67.24h2.09s-.25.58-.25 2.12c0 .8.22 1.68 1.21 1.68 1.05 0 1.32-.58 1.32-1.95v-5.26c-.5.61-1.21 1.1-2.26 1.1-.61 0-1.18-.28-1.51-.83-.41-.69-.47-1.49-.47-2.67v-4.05c0-1.13 0-2.15.44-2.86.44-.69 1.18-1.07 2.48-1.07 1.29 0 2.04.39 2.48 1.07.44.72.44 1.73.44 2.86v11.07c0 1.13 0 2.15-.44 2.86-.44.69-1.18 1.07-2.48 1.07-1.29 0-1.93-.39-2.37-1.07-.36-.58-.44-1.4-.44-2.28.01-1.37-.24-1.79-.24-1.79zm4.38-10.48c0-1.38-.28-1.95-1.32-1.95s-1.32.58-1.32 1.95v4.96c0 .58.03.99.17 1.32.17.41.52.63 1.05.63 1.13 0 1.43-.85 1.43-1.95v-4.96z"/><path d="m84.19 60.56 1.6 2.15c1.24 1.68 1.54 2.83 1.54 5.09 0 2.2-.28 2.95-.72 3.52-.52.72-1.32 1.07-2.64 1.07s-2.09-.33-2.64-1.05c-.47-.61-.66-1.27-.66-2.83v-.25c0-1.84-.3-2.34-.3-2.34h2.31s-.3.5-.3 2.34v.66c0 1.4.55 1.95 1.6 1.95.69 0 1.16-.22 1.4-.96.17-.47.19-1.16.19-2.12 0-1.32-.08-2.48-.94-3.63l-1.98-2.67c-1.35-1.84-1.98-3.22-1.98-5.56 0-1.49.19-2.23.66-2.81.61-.74 1.24-1.05 2.56-1.05s2.09.36 2.64 1.05c.47.61.58 1.32.58 2.97 0 1.82.41 2.34.41 2.34h-2.48s.36-.52.36-2.34v-.55c0-1.51-.44-1.95-1.51-1.95-.58 0-.96.19-1.18.63s-.28.94-.28 1.71c0 1.82.5 2.92 1.76 4.63z"/><path d="m91.05 69.72c0 1.6.17 1.82.36 2.34h-2.42c.19-.52.36-.74.36-2.34v-14.97c0-1.38-.03-1.79-.22-2.34h2.15c-.19.55-.22.96-.22 2.34v14.97z"/><path d="m95.62 52.41c-.19.55-.22.96-.22 2.34v15.83h1.84c.63 0 .96 0 1.46-.19v1.68h-5.37c.19-.52.36-.74.36-2.34v-14.98c0-1.38-.03-1.79-.22-2.34z"/><path d="m98.34 53.95c-.17-1.13-.47-1.54-.47-1.54h2.31s-.22.52-.11 1.27l2.17 15.42 2.06-15.42c.11-.74-.11-1.27-.11-1.27h2.26s-.3.41-.47 1.54l-2.45 16.6c-.14.94.08 1.51.08 1.51h-2.92s.22-.58.08-1.51z"/><path d="m112.93 72.06h-5.37c.19-.52.36-.74.36-2.34v-14.97c0-1.38-.03-1.79-.22-2.34h5.15v1.68c-.5-.19-.83-.19-1.46-.19h-1.76v7.1h1.62c.63 0 .96 0 1.46-.19v1.82c-.5-.19-.83-.19-1.46-.19h-1.62v8.15h1.84c.63 0 .96 0 1.46-.19z"/><path d="m119.75 72.06v-7.38c0-1.73-.41-2.23-1.82-2.23h-1.29v7.27c0 1.6.17 1.82.36 2.34h-2.42c.19-.52.36-.74.36-2.34v-14.97c0-1.38-.03-1.79-.22-2.34h2.97c1.49 0 2.09.17 2.67.63.66.55.91 1.29.91 3.08v2.62c0 .88 0 1.49-.3 2.01-.33.58-1.05.91-1.16.94.06.03.8.27 1.18.72.39.47.47 1.13.47 2.28v5.04c0 1.6.17 1.82.36 2.34h-2.07zm-.19-15.83c0-1.05-.03-1.43-.19-1.73-.22-.41-.66-.61-1.4-.61h-1.32v7.07h1.32c.74 0 1.18-.19 1.4-.61.17-.3.19-.69.19-1.73z"/><path d="m50.82 95.26-2.41-9.31v7.78c0 1.04.11 1.19.23 1.53h-1.54c.13-.34.23-.49.23-1.53v-9.79c0-.9-.02-1.17-.14-1.53h1.37l2.23 8.62v-7.09c0-.9-.02-1.17-.14-1.53h1.37c-.13.36-.14.63-.14 1.53v9.79c0 1.04.11 1.19.23 1.53z"/><path d="m56.87 95.26h-3.51c.13-.34.23-.49.23-1.53v-9.79c0-.9-.02-1.17-.14-1.53h3.37v1.1c-.32-.12-.54-.12-.95-.12h-1.15v4.64h1.06c.41 0 .63 0 .95-.13v1.19c-.32-.13-.54-.13-.95-.13h-1.06v5.33h1.21c.42 0 .63 0 .96-.12v1.09z"/><path d="m65.2 83.23c.05-.49-.07-.83-.07-.83h1.4s-.22.27-.31 1.01l-1.44 10.86c-.07.61.07.99.07.99h-1.62s.16-.38.07-.99l-1.22-9.31-1.17 9.31c-.07.61.07.99.07.99h-1.64s.16-.38.07-.99l-1.53-10.86c-.11-.74-.31-1.01-.31-1.01h1.44s-.14.34-.07.83l1.26 9.11 1.15-9.94h1.44l1.31 9.94z"/><path d="m73.02 83.23c.11-.49-.05-.83-.05-.83h1.49s-.18.29-.36 1.01l-1.75 7.13v3.19c0 1.04.11 1.19.23 1.53h-1.58c.13-.34.23-.49.23-1.53v-3.19l-1.75-7.13c-.18-.72-.34-1.01-.34-1.01h1.55s-.18.34-.07.83l1.19 5.13z"/><path d="m79.59 92.9c0 1.01-.07 1.48-.4 1.87-.36.43-.86.7-1.76.7s-1.4-.27-1.76-.7c-.32-.4-.4-.86-.4-1.87v-8.14c0-1.01.07-1.48.4-1.87.36-.43.86-.7 1.76-.7s1.4.27 1.76.7c.32.4.4.86.4 1.87zm-1.12-8.48c0-.92-.32-1.24-1.04-1.24s-1.04.32-1.04 1.24v8.82c0 .92.32 1.24 1.04 1.24s1.04-.32 1.04-1.24z"/><path d="m84.23 95.26v-4.83c0-1.13-.27-1.46-1.19-1.46h-.85v4.75c0 1.04.11 1.19.23 1.53h-1.58c.13-.34.23-.49.23-1.53v-9.79c0-.9-.02-1.17-.14-1.53h1.95c.97 0 1.37.11 1.75.41.43.36.59.85.59 2.02v1.71c0 .58 0 .97-.2 1.31-.22.38-.68.59-.76.61.04.02.52.18.77.47.25.31.31.74.31 1.49v3.3c0 1.04.11 1.19.23 1.53h-1.34zm-.13-10.35c0-.68-.02-.94-.13-1.13-.14-.27-.43-.4-.92-.4h-.86v4.63h.86c.49 0 .77-.13.92-.4.11-.2.13-.45.13-1.13z"/><path d="m87.92 88.24 2.38-5.04c.16-.34.09-.79.07-.79h1.53s-.27.32-.54.9l-2.04 4.14 2.14 6.72c.22.68.56 1.1.56 1.1h-1.67s.04-.13.04-.32c0-.18-.04-.43-.13-.7l-1.73-5.38-.61 1.08v3.8c0 1.04.11 1.19.23 1.53h-1.58c.13-.34.23-.49.23-1.53v-9.79c0-.9-.02-1.17-.14-1.53h1.4c-.13.36-.14.63-.14 1.53z"/><path d="m102.25 83.23c.05-.49-.07-.83-.07-.83h1.41s-.22.27-.31 1.01l-1.44 10.86c-.07.61.07.99.07.99h-1.62s.16-.38.07-.99l-1.22-9.31-1.17 9.31c-.07.61.07.99.07.99h-1.64s.16-.38.07-.99l-1.53-10.86c-.11-.74-.31-1.01-.31-1.01h1.44s-.14.34-.07.83l1.26 9.11 1.15-9.94h1.44l1.31 9.94z"/><path d="m108.8 92.9c0 1.01-.07 1.48-.4 1.87-.36.43-.86.7-1.76.7s-1.4-.27-1.76-.7c-.32-.4-.4-.86-.4-1.87v-8.14c0-1.01.07-1.48.4-1.87.36-.43.86-.7 1.76-.7s1.4.27 1.76.7c.32.4.4.86.4 1.87zm-1.12-8.48c0-.92-.32-1.24-1.04-1.24s-1.04.32-1.04 1.24v8.82c0 .92.32 1.24 1.04 1.24s1.04-.32 1.04-1.24z"/><path d="m113.44 95.26v-4.83c0-1.13-.27-1.46-1.19-1.46h-.85v4.75c0 1.04.11 1.19.23 1.53h-1.58c.13-.34.23-.49.23-1.53v-9.79c0-.9-.02-1.17-.14-1.53h1.94c.97 0 1.37.11 1.75.41.43.36.59.85.59 2.02v1.71c0 .58 0 .97-.2 1.31-.22.38-.68.59-.76.61.04.02.52.18.77.47.25.31.31.74.31 1.49v3.3c0 1.04.11 1.19.23 1.53h-1.33zm-.12-10.35c0-.68-.02-.94-.13-1.13-.14-.27-.43-.4-.92-.4h-.86v4.63h.86c.49 0 .77-.13.92-.4.11-.2.13-.45.13-1.13z"/><path d="m117.28 82.41c-.13.36-.14.63-.14 1.53v10.35h1.21c.41 0 .63 0 .96-.12v1.1h-3.51c.13-.34.23-.49.23-1.53v-9.79c0-.9-.02-1.17-.14-1.53h1.39z"/><path d="m124.62 92.83c0 1.17-.16 1.66-.59 2.02-.38.31-.77.41-1.75.41h-2.18c.13-.34.23-.49.23-1.53v-9.79c0-.9-.02-1.17-.14-1.53h2.09c.97 0 1.37.11 1.75.41.43.36.59.85.59 2.02zm-1.12-7.92c0-.68-.02-.94-.13-1.13-.14-.27-.43-.4-.92-.4h-1.01v10.91h1.01c.49 0 .77-.12.92-.4.11-.2.13-.45.13-1.13z"/><path d="m60.5 98.72c.05-.49-.07-.83-.07-.83h1.41s-.22.27-.31 1.01l-1.44 10.86c-.07.61.07.99.07.99h-1.62s.16-.38.07-.99l-1.22-9.31-1.17 9.31c-.07.61.07.99.07.99h-1.64s.16-.38.07-.99l-1.53-10.86c-.11-.74-.31-1.01-.31-1.01h1.44s-.14.34-.07.83l1.26 9.11 1.15-9.94h1.44l1.31 9.94z"/><path d="m63.9 109.22c0 1.04.11 1.19.23 1.53h-1.58c.13-.34.23-.49.23-1.53v-9.79c0-.9-.02-1.17-.14-1.53h1.4c-.13.36-.14.63-.14 1.53z"/><path d="m69.12 110.75-2.41-9.31v7.78c0 1.04.11 1.19.23 1.53h-1.55c.13-.34.23-.49.23-1.53v-9.79c0-.9-.02-1.17-.14-1.53h1.37l2.23 8.62v-7.09c0-.9-.02-1.17-.14-1.53h1.37c-.13.36-.14.63-.14 1.53v9.79c0 1.04.11 1.19.23 1.53z"/><path d="m75.17 110.75h-3.51c.13-.34.23-.49.23-1.53v-9.79c0-.9-.02-1.17-.14-1.53h3.37v1.1c-.32-.13-.54-.13-.95-.13h-1.15v4.65h1.06c.41 0 .63 0 .95-.13v1.19c-.32-.13-.54-.13-.95-.13h-1.06v5.33h1.21c.42 0 .63 0 .96-.13v1.1z"/><path d="m83.09 108.39c0 1.01-.07 1.48-.4 1.87-.36.43-.86.7-1.76.7s-1.4-.27-1.76-.7c-.32-.4-.4-.86-.4-1.87v-2.36c0-1.06.16-1.37 1.01-1.71-.85-.5-.95-.81-.95-1.98v-2.09c0-1.03.07-1.48.4-1.87.36-.43.86-.7 1.76-.7.86 0 1.35.29 1.71.7.31.34.4.85.4 1.82 0 .58.09.94.09.94h-1.3s.09-.61.09-1.19c0-.88-.27-1.28-.99-1.28-.7 0-1.04.29-1.04 1.28v2.25c0 .77.09 1.64 1.06 1.64h2.09c.43 0 .61-.04.83-.13v1.22c-.22-.09-.4-.13-.83-.13v3.59zm-1.12-3.59h-.81c-1.24 0-1.28.31-1.28 1.42v2.5c0 .92.32 1.24 1.04 1.24s1.04-.32 1.04-1.24v-3.92z"/><path d="m89.17 103.22 1.04 1.4c.81 1.1 1.01 1.86 1.01 3.33 0 1.44-.18 1.93-.47 2.3-.34.47-.86.7-1.73.7s-1.37-.22-1.73-.68c-.31-.4-.43-.83-.43-1.86v-.16c0-1.21-.2-1.53-.2-1.53h1.51s-.2.32-.2 1.53v.43c0 .92.36 1.28 1.04 1.28.45 0 .76-.14.92-.63.11-.31.13-.76.13-1.39 0-.86-.05-1.62-.61-2.38l-1.3-1.75c-.88-1.21-1.3-2.11-1.3-3.64 0-.97.13-1.46.43-1.84.4-.49.81-.68 1.67-.68s1.37.23 1.73.68c.31.4.38.86.38 1.95 0 1.19.27 1.53.27 1.53h-1.62s.23-.34.23-1.53v-.36c0-.99-.29-1.28-.99-1.28-.38 0-.63.12-.77.41s-.18.61-.18 1.12c.02 1.21.34 1.93 1.17 3.05z"/><path d="m92.39 97.89h1.95c.97 0 1.37.11 1.75.41.43.36.59.85.59 2.02v3.26c0 1.17-.16 1.66-.59 2.02-.38.31-.77.41-1.75.41h-.68v3.21c0 1.04.11 1.19.23 1.53h-1.59c.13-.34.23-.49.23-1.53v-9.79c.01-.91-.01-1.18-.14-1.54zm3.17 2.5c0-.68-.02-.94-.13-1.13-.14-.27-.43-.4-.92-.4h-.86v6.18h.86c.49 0 .77-.12.92-.4.11-.2.13-.45.13-1.13z"/><path d="m99.23 109.22c0 1.04.11 1.19.23 1.53h-1.58c.13-.34.23-.49.23-1.53v-9.79c0-.9-.02-1.17-.14-1.53h1.41c-.13.36-.14.63-.14 1.53v9.79z"/><path d="m104.11 110.75v-4.83c0-1.13-.27-1.46-1.19-1.46h-.85v4.75c0 1.04.11 1.19.23 1.53h-1.58c.13-.34.23-.49.23-1.53v-9.79c0-.9-.02-1.17-.14-1.53h1.95c.97 0 1.37.11 1.75.41.43.36.59.85.59 2.02v1.71c0 .58 0 .97-.2 1.31-.22.38-.68.59-.76.61.04.02.52.18.77.47.25.31.31.74.31 1.49v3.29c0 1.04.11 1.19.23 1.53h-1.34zm-.13-10.36c0-.68-.02-.94-.13-1.13-.14-.27-.43-.4-.92-.4h-.86v4.63h.86c.49 0 .77-.12.92-.4.11-.2.13-.45.13-1.13z"/><path d="m107.8 109.22c0 1.04.11 1.19.23 1.53h-1.58c.13-.34.23-.49.23-1.53v-9.79c0-.9-.02-1.17-.14-1.53h1.4c-.13.36-.14.63-.14 1.53z"/><path d="m111.69 98.86v10.35c0 1.04.11 1.19.23 1.53h-1.58c.13-.34.23-.49.23-1.53v-10.35h-.77c-.41 0-.63 0-.96.13v-1.1h4.57v1.1c-.32-.13-.54-.13-.96-.13z"/><path d="m116.42 103.22 1.04 1.4c.81 1.1 1.01 1.86 1.01 3.33 0 1.44-.18 1.93-.47 2.3-.34.47-.86.7-1.73.7s-1.37-.22-1.73-.68c-.31-.4-.43-.83-.43-1.86v-.16c0-1.21-.2-1.53-.2-1.53h1.51s-.2.32-.2 1.53v.43c0 .92.36 1.28 1.04 1.28.45 0 .76-.14.92-.63.11-.31.13-.76.13-1.39 0-.86-.05-1.62-.61-2.38l-1.3-1.75c-.88-1.21-1.3-2.11-1.3-3.64 0-.97.13-1.46.43-1.84.4-.49.81-.68 1.67-.68s1.37.23 1.73.68c.31.4.38.86.38 1.95 0 1.19.27 1.53.27 1.53h-1.62s.23-.34.23-1.53v-.36c0-.99-.29-1.28-.99-1.28-.38 0-.63.12-.77.41s-.18.61-.18 1.12c.02 1.21.34 1.93 1.17 3.05z"/><path d="m61.96 115.97c0 .9.02 1.17.14 1.53h-1.4c.13-.36.14-.63.14-1.53v-.58c0-.92-.32-1.24-1.04-1.24s-1.04.32-1.04 1.24v8.82c0 .92.32 1.24 1.04 1.24s1.04-.32 1.04-1.24v-.88c0-.9-.02-1.17-.14-1.53h1.4c-.13.36-.14.63-.14 1.53v.54c0 1.01-.07 1.48-.4 1.87-.36.43-.86.7-1.76.7s-1.4-.27-1.76-.7c-.32-.4-.4-.86-.4-1.87v-8.14c0-1.01.07-1.48.4-1.87.36-.43.86-.7 1.76-.7s1.4.27 1.76.7c.32.4.4.86.4 1.87z"/><path d="m67.5 123.87c0 1.01-.07 1.48-.4 1.87-.36.43-.86.7-1.76.7s-1.4-.27-1.76-.7c-.32-.4-.4-.86-.4-1.87v-8.14c0-1.01.07-1.48.4-1.87.36-.43.86-.7 1.76-.7s1.4.27 1.76.7c.32.4.4.86.4 1.87zm-1.12-8.48c0-.92-.32-1.24-1.04-1.24s-1.04.32-1.04 1.24v8.82c0 .92.32 1.24 1.04 1.24s1.04-.32 1.04-1.24z"/><path d="m76.19 124.7c0 1.04.11 1.19.23 1.53h-1.55c.13-.34.23-.49.23-1.53v-9.74l-2.38 11.27h-.36l-2.3-11.27v9.74c0 1.04.11 1.19.23 1.53h-1.55c.13-.34.23-.49.23-1.53v-9.79c0-.9-.02-1.17-.14-1.53h2.02l1.71 8.39 1.76-8.39h2c-.13.36-.14.63-.14 1.53v9.79z"/><path d="m77.78 113.37h1.95c.97 0 1.37.11 1.75.41.43.36.59.85.59 2.02v3.26c0 1.17-.16 1.66-.59 2.02-.38.31-.77.41-1.75.41h-.68v3.21c0 1.04.11 1.19.23 1.53h-1.58c.13-.34.23-.49.23-1.53v-9.79c-.01-.91-.03-1.18-.15-1.54zm3.17 2.51c0-.68-.02-.94-.13-1.13-.14-.27-.43-.4-.92-.4h-.86v6.18h.86c.49 0 .77-.13.92-.4.11-.2.13-.45.13-1.13z"/><path d="m86.78 126.23h-3.51c.13-.34.23-.49.23-1.53v-9.79c0-.9-.02-1.17-.14-1.53h3.37v1.1c-.32-.12-.54-.12-.95-.12h-1.15v4.64h1.06c.41 0 .63 0 .95-.13v1.19c-.32-.13-.54-.13-.95-.13h-1.06v5.33h1.21c.41 0 .63 0 .96-.12v1.09z"/><path d="m90.34 114.35v10.35c0 1.04.11 1.19.23 1.53h-1.58c.13-.34.23-.49.23-1.53v-10.35h-.77c-.42 0-.63 0-.95.12v-1.1h4.57v1.1c-.32-.12-.54-.12-.95-.12z"/><path d="m94.23 124.7c0 1.04.11 1.19.23 1.53h-1.58c.13-.34.23-.49.23-1.53v-9.79c0-.9-.02-1.17-.14-1.53h1.41c-.13.36-.14.63-.14 1.53v9.79z"/><path d="m98.12 114.35v10.35c0 1.04.11 1.19.23 1.53h-1.58c.13-.34.23-.49.23-1.53v-10.35h-.77c-.42 0-.63 0-.96.12v-1.1h4.57v1.1c-.32-.12-.54-.12-.95-.12z"/><path d="m102 124.7c0 1.04.11 1.19.23 1.53h-1.58c.13-.34.23-.49.23-1.53v-9.79c0-.9-.02-1.17-.14-1.53h1.41c-.13.36-.14.63-.14 1.53v9.79z"/><path d="m107.82 123.87c0 1.01-.07 1.48-.4 1.87-.36.43-.86.7-1.76.7s-1.4-.27-1.76-.7c-.32-.4-.4-.86-.4-1.87v-8.14c0-1.01.07-1.48.4-1.87.36-.43.86-.7 1.76-.7s1.4.27 1.76.7c.32.4.4.86.4 1.87zm-1.12-8.48c0-.92-.32-1.24-1.04-1.24s-1.04.32-1.04 1.24v8.82c0 .92.32 1.24 1.04 1.24s1.04-.32 1.04-1.24z"/><path d="m112.8 126.23-2.41-9.31v7.78c0 1.04.11 1.19.23 1.53h-1.55c.13-.34.23-.49.23-1.53v-9.79c0-.9-.02-1.17-.14-1.53h1.37l2.23 8.62v-7.09c0-.9-.02-1.17-.14-1.53h1.37c-.13.36-.14.63-.14 1.53v9.79c0 1.04.11 1.19.23 1.53z"/></g></svg>