<svg enable-background="new 0 0 15.44 60.91" viewBox="0 0 15.44 60.91" xmlns="http://www.w3.org/2000/svg"><g fill="#c0ba81"><path d="m11.94 47.11v-33.32c-4.6-1.34-8.24-5.32-9.41-10.29h-2.53v53.9h2.53c1.17-4.96 4.81-8.94 9.41-10.29z"/><path d="m0 57.4v-53.9"/><path d="m5.63 0h-5.63v2.5h3.34l.08.4c1.02 4.92 4.61 8.86 9.15 10.03l.38.1v34.85l-.37.1c-4.55 1.17-8.14 5.11-9.16 10.02l-.08.4h-3.34v2.51h5.63c0-5.96 4.39-10.8 9.81-10.8v-39.31c-5.42 0-9.81-4.83-9.81-10.8z"/><path d="m0 60.91v-2.51"/><path d="m0 2.5v-2.5"/></g><path d="m0 3.5v-1" fill="#882335"/><path d="m0 58.4v-1" fill="#882335"/><path d="m2.53 3.5c1.17 4.97 4.81 8.95 9.41 10.29v33.32c-4.6 1.35-8.24 5.33-9.41 10.29h-2.53v1h3.34l.08-.4c1.02-4.91 4.61-8.85 9.15-10.03l.37-.1v-34.85l-.38-.1c-4.53-1.16-8.12-5.1-9.14-10.02l-.08-.4h-3.34v1z" fill="#882335"/></svg>