<svg enable-background="new 0 0 300.01 312.36" viewBox="0 0 300.01 312.36" xmlns="http://www.w3.org/2000/svg"><path d="m261.9 4.39-3.61-3.61-3.61 3.61-3.61-3.61-3.61 3.61-3.61-3.61-3.61 3.61-3.61-3.61-3.61 3.61-3.61-3.61-3.61 3.61-3.61-3.61-3.61 3.61-3.61-3.61-3.61 3.61-3.61-3.61-3.61 3.61-3.61-3.61-3.61 3.61-3.61-3.61-3.61 3.61-3.61-3.61-3.61 3.61-3.61-3.61-3.61 3.61-3.61-3.61-3.61 3.61-3.61-3.61-3.61 3.61-3.61-3.61-3.61 3.61-3.61-3.61-3.61 3.61-3.61-3.61-3.61 3.61-3.61-3.61-3.61 3.61-3.62-3.61-3.61 3.61-3.61-3.61-3.61 3.61-3.61-3.61-3.61 3.61-3.61-3.61-3.61 3.61-3.61-3.61-3.61 3.61-3.61-3.61-3.61 3.61-3.61-3.61-3.61 3.61-3.61-3.61-3.61 3.61-3.61-3.61-3.61 3.61-3.61-3.61-3.61 3.61-3.61-3.61-3.61 3.61-3.61-3.61-3.61 3.61-3.61-3.61-3.61 3.61-4.39-4.39v54.7h232.61v-54.7z" fill="#231f20"/><path d="m33.68 251.44h232.61v56.96h-232.61z" fill="#b29759"/><path d="m300.01 66.65c-11.39 0-20.62-9.23-20.62-20.62h-129.39-129.38c0 11.39-9.23 20.62-20.62 20.62v171.6c11.39 0 20.62 9.23 20.62 20.62h129.38 129.39c0-11.39 9.23-20.62 20.62-20.62z" fill="#f6ead0"/><path d="m267.14 61.93c3.6 7.41 9.56 13.38 16.97 16.97v147.09c-7.41 3.6-13.38 9.56-16.97 16.97h-234.27c-3.59-7.41-9.56-13.38-16.97-16.97v-147.09c7.41-3.59 13.38-9.56 16.97-16.97zm1.12-1.77h-236.52c-3.49 7.82-9.8 14.12-17.61 17.61v149.34c7.82 3.49 14.12 9.8 17.61 17.62h236.52c3.49-7.82 9.8-14.12 17.61-17.62v-149.34c-7.81-3.49-14.11-9.79-17.61-17.61z"/><path d="m270.64 56.63c3.15 8.73 10.04 15.62 18.77 18.77v154.1c-8.73 3.15-15.62 10.04-18.77 18.77h-241.27c-3.15-8.73-10.04-15.62-18.77-18.77v-154.1c8.73-3.15 15.62-10.03 18.77-18.77zm3.99-5.3h-249.26c-2.09 10.05-10.03 17.98-20.07 20.07v162.09c10.05 2.1 17.98 10.03 20.07 20.07h249.26c2.1-10.05 10.03-17.98 20.07-20.07v-162.09c-10.04-2.09-17.97-10.02-20.07-20.07z"/><g fill="#b29759"><path d="m63.48 151.53c0 3 .06 3.9.48 5.1h-4.68c.42-1.2.48-2.1.48-5.1v-1.92c0-3.06-1.08-4.14-3.48-4.14s-3.48 1.08-3.48 4.14v29.42c0 3.06 1.08 4.14 3.48 4.14s3.48-1.08 3.48-4.14v-2.94c0-3-.06-3.9-.48-5.1h4.68c-.42 1.2-.48 2.1-.48 5.1v1.8c0 3.36-.24 4.92-1.32 6.24-1.2 1.44-2.88 2.34-5.88 2.34s-4.68-.9-5.88-2.34c-1.08-1.32-1.32-2.88-1.32-6.24v-27.14c0-3.36.24-4.92 1.32-6.24 1.2-1.44 2.88-2.34 5.88-2.34s4.68.9 5.88 2.34c1.08 1.32 1.32 2.88 1.32 6.24z"/><path d="m84.38 180.65c0 3.48.36 3.96.78 5.1h-5.28c.42-1.14.78-1.62.78-5.1v-15.91h-6.97v15.91c0 3.48.36 3.96.78 5.1h-5.28c.42-1.14.78-1.62.78-5.1v-32.66c0-3-.06-3.9-.48-5.1h4.68c-.42 1.2-.48 2.1-.48 5.1v13.63h6.97v-13.63c0-3-.06-3.9-.48-5.1h4.68c-.42 1.2-.48 2.1-.48 5.1z"/><path d="m106.83 182.39c.3 2.46 1.02 3.36 1.02 3.36h-4.86s.48-1.14.24-2.76l-.96-7.15h-7.62l-.9 7.15c-.18 1.62.24 2.76.24 2.76h-4.8s.72-.9 1.02-3.36l4.74-36.2c.24-2.04-.18-3.3-.18-3.3h7.5s-.42 1.26-.18 3.3zm-11.77-9.66h6.78l-3.42-26.42z"/><path d="m123.16 185.75v-16.09c0-3.78-.9-4.86-3.96-4.86h-2.82v15.85c0 3.48.36 3.96.78 5.1h-5.28c.42-1.14.78-1.62.78-5.1v-32.66c0-3-.06-3.9-.48-5.1h6.48c3.24 0 4.56.36 5.82 1.38 1.44 1.2 1.98 2.82 1.98 6.72v5.7c0 1.92 0 3.24-.66 4.38-.72 1.26-2.28 1.98-2.52 2.04.12.06 1.74.6 2.58 1.56.84 1.02 1.02 2.46 1.02 4.98v10.99c0 3.48.36 3.96.78 5.1zm-.42-34.52c0-2.28-.06-3.12-.42-3.78-.48-.9-1.44-1.32-3.06-1.32h-2.88v15.43h2.88c1.62 0 2.58-.42 3.06-1.32.36-.66.42-1.5.42-3.78z"/><path d="m147.66 177.65c0 3.9-.54 5.52-1.98 6.72-1.26 1.02-2.58 1.38-5.82 1.38h-7.27c.42-1.14.78-1.62.78-5.1v-32.66c0-3-.06-3.9-.48-5.1h6.96c3.24 0 4.56.36 5.82 1.38 1.44 1.2 1.98 2.82 1.98 6.72zm-3.72-26.42c0-2.28-.06-3.12-.42-3.78-.48-.9-1.44-1.32-3.06-1.32h-3.36v36.38h3.36c1.62 0 2.58-.42 3.06-1.32.36-.66.42-1.5.42-3.78z"/><path d="m167.9 177.89c0 3.36-.24 4.92-1.32 6.24-1.2 1.44-2.88 2.34-5.88 2.34s-4.68-.9-5.88-2.34c-1.08-1.32-1.32-2.88-1.32-6.24v-27.14c0-3.36.24-4.92 1.32-6.24 1.2-1.44 2.88-2.34 5.88-2.34s4.68.9 5.88 2.34c1.08 1.32 1.32 2.88 1.32 6.24zm-3.72-28.28c0-3.06-1.08-4.14-3.48-4.14s-3.48 1.08-3.48 4.14v29.42c0 3.06 1.08 4.14 3.48 4.14s3.48-1.08 3.48-4.14z"/><path d="m186.15 185.75-8.05-31.04v25.94c0 3.48.36 3.96.78 5.1h-5.16c.42-1.14.78-1.62.78-5.1v-32.66c0-3-.06-3.9-.48-5.1h4.56l7.45 28.76v-23.66c0-3-.06-3.9-.48-5.1h4.56c-.42 1.2-.48 2.1-.48 5.1v32.66c0 3.48.36 3.96.78 5.1z"/><path d="m208.67 185.75-8.05-31.04v25.94c0 3.48.36 3.96.78 5.1h-5.16c.42-1.14.78-1.62.78-5.1v-32.66c0-3-.06-3.9-.48-5.1h4.56l7.45 28.76v-23.66c0-3-.06-3.9-.48-5.1h4.56c-.42 1.2-.48 2.1-.48 5.1v32.66c0 3.48.36 3.96.78 5.1z"/><path d="m234.61 182.39c.3 2.46 1.02 3.36 1.02 3.36h-4.86s.48-1.14.24-2.76l-.96-7.15h-7.62l-.9 7.15c-.18 1.62.24 2.76.24 2.76h-4.8s.72-.9 1.02-3.36l4.74-36.2c.24-2.04-.18-3.3-.18-3.3h7.5s-.42 1.26-.18 3.3zm-11.77-9.66h6.78l-3.42-26.42z"/><path d="m248.06 145.65c.36-1.62-.18-2.76-.18-2.76h4.98s-.6.96-1.2 3.36l-5.82 23.78v10.63c0 3.48.36 3.96.78 5.1h-5.28c.42-1.14.78-1.62.78-5.1v-10.63l-5.82-23.78c-.6-2.4-1.14-3.36-1.14-3.36h5.16s-.6 1.14-.24 2.76l3.96 17.11z"/><path d="m41.45 79.46h2.14l-4.25 5.38 4.89 6.62h-2.29l-3.83-5.19-1.32 1.62v3.56h-1.89v-12h1.89v5.95z"/><path d="m49.47 79.46h7.64v1.68h-5.76v4.98h5.1v1.64h-5.1v2.03h6v1.68h-7.89v-12.01z"/><path d="m65.05 83.57v7.89h-1.77v-12.18h.14l7.7 8.07v-7.89h1.77v12.18h-.14z"/><path d="m81.88 81.13h-3.56v-1.68h9.02v1.68h-3.56v10.33h-1.89v-10.33z"/><path d="m92.7 87.22v-7.77h1.89v7.66c0 1.92.95 2.79 2.7 2.79 1.73 0 2.68-.86 2.68-2.79v-7.66h1.89v7.77c0 2.93-1.98 4.39-4.57 4.39-2.61.01-4.59-1.46-4.59-4.39z"/><path d="m107.54 85.46c0-3.55 2.7-6.16 6.12-6.16 2.22 0 3.76.86 4.8 2.33l-1.45 1.02c-.79-1.08-1.82-1.64-3.41-1.64-2.38 0-4.11 1.91-4.11 4.45 0 2.6 1.76 4.45 4.18 4.45 1.55 0 2.7-.58 3.6-1.75l1.46 1.01c-1.23 1.64-2.81 2.45-5.14 2.45-3.4 0-6.05-2.61-6.05-6.16z"/><path d="m130.94 79.46h2.14l-4.25 5.38 4.89 6.62h-2.29l-3.83-5.19-1.32 1.62v3.56h-1.89v-12h1.89v5.95z"/><path d="m137.67 79.46h2.08l3.41 6.27 3.35-6.27h1.98l-4.41 8.17v3.83h-1.89v-3.81z"/><path d="m162.16 88.3c.55 1.06 1.48 1.62 2.72 1.62 1.27 0 2.12-.6 2.12-1.57 0-1.13-.85-1.52-1.91-2l-.83-.37c-1.76-.78-2.96-1.69-2.96-3.56 0-1.84 1.36-3.12 3.34-3.12 1.53 0 2.66.62 3.43 1.89l-1.43.93c-.46-.78-1.06-1.16-1.96-1.16-.97 0-1.54.56-1.54 1.39 0 .95.58 1.32 1.89 1.91l.83.37c1.82.81 3.02 1.64 3.02 3.67 0 2.21-1.69 3.32-3.97 3.32-2.03 0-3.51-.99-4.33-2.52z"/><path d="m176.73 81.13h-3.56v-1.68h9.02v1.68h-3.56v10.33h-1.89v-10.33z"/><path d="m195.85 91.46h-2.24l-2.05-2.91c-.27.04-.57.05-.87.05h-1.18v2.86h-1.89v-12h3.07c3.3 0 5.12 1.82 5.12 4.59 0 1.85-.83 3.28-2.4 4.01zm-5.22-4.48c2.31 0 3.25-1.09 3.25-2.93 0-1.82-.95-2.91-3.25-2.91h-1.11v5.84z"/><path d="m202.48 91.46h-1.91l5.26-12.25h.11l5.28 12.25h-1.99l-.69-1.68s-5.35 0-5.37 0zm3.39-8.1-1.99 4.75h3.95c.02 0-1.96-4.75-1.96-4.75z"/><path d="m216.66 79.46h1.89v12h-1.89z"/><path d="m224.35 85.46c0-3.55 2.72-6.16 6.16-6.16 2.22 0 3.57.79 4.55 1.91l-1.31 1.23c-.72-.79-1.55-1.43-3.3-1.43-2.44 0-4.15 1.91-4.15 4.45s1.73 4.45 4.47 4.45c1.31 0 2.22-.3 2.91-.76v-1.36h-3.21v-1.68h4.96v3.94c-1.01.83-2.4 1.57-4.66 1.57-3.69 0-6.42-2.61-6.42-6.16z"/><path d="m249.05 79.46h1.89v12h-1.89v-3.67h-5.76v3.67h-1.89v-12h1.89v6.65h5.76z"/><path d="m259.95 81.13h-3.56v-1.68h9.02v1.68h-3.56v10.33h-1.89z"/><path d="m34.97 100.65h4.25c2.4 0 3.51 1.36 3.51 3.07 0 1.06-.56 1.84-1.45 2.28 1.41.41 2.3 1.48 2.3 3.04 0 2.03-1.29 3.62-4.04 3.62h-4.57zm4.14 4.71c1.31 0 1.75-.6 1.75-1.59 0-.92-.42-1.5-1.75-1.5h-2.28v3.09zm.32 5.67c1.66 0 2.22-.83 2.22-2.06s-.67-2.08-2.31-2.08h-2.51v4.15h2.6z"/><path d="m49.89 106.65c0-3.55 2.75-6.16 6.19-6.16s6.19 2.61 6.19 6.16-2.75 6.16-6.19 6.16-6.19-2.61-6.19-6.16zm10.43 0c0-2.54-1.75-4.45-4.24-4.45s-4.24 1.91-4.24 4.45 1.75 4.45 4.24 4.45 4.24-1.91 4.24-4.45z"/><path d="m69.26 108.42v-7.77h1.89v7.66c0 1.92.95 2.79 2.7 2.79 1.73 0 2.68-.86 2.68-2.79v-7.66h1.89v7.77c0 2.93-1.98 4.39-4.57 4.39-2.61 0-4.59-1.46-4.59-4.39z"/><path d="m94.21 112.65h-2.24l-2.05-2.91c-.27.04-.57.05-.87.05h-1.18v2.86h-1.89v-12h3.07c3.3 0 5.12 1.82 5.12 4.59 0 1.85-.83 3.28-2.4 4.01zm-5.22-4.48c2.31 0 3.25-1.09 3.25-2.93 0-1.82-.95-2.91-3.25-2.91h-1.11v5.84z"/><path d="m101.35 100.65h4.25c2.4 0 3.51 1.36 3.51 3.07 0 1.06-.56 1.84-1.45 2.28 1.41.41 2.3 1.48 2.3 3.04 0 2.03-1.29 3.62-4.04 3.62h-4.57zm4.15 4.71c1.31 0 1.75-.6 1.75-1.59 0-.92-.42-1.5-1.75-1.5h-2.28v3.09zm.32 5.67c1.66 0 2.22-.83 2.22-2.06s-.67-2.08-2.31-2.08h-2.51v4.15h2.6z"/><path d="m116.27 106.65c0-3.55 2.75-6.16 6.19-6.16s6.19 2.61 6.19 6.16-2.75 6.16-6.19 6.16-6.19-2.61-6.19-6.16zm10.44 0c0-2.54-1.75-4.45-4.24-4.45s-4.24 1.91-4.24 4.45 1.75 4.45 4.24 4.45 4.24-1.91 4.24-4.45z"/><path d="m137.48 104.76v7.89h-1.77v-12.18h.14l7.7 8.07v-7.89h1.77v12.18h-.14z"/><path d="m160.92 100.65h1.99l2.58 7.66 3.39-7.91h.11l3.41 7.91 2.52-7.66h1.87l-4.2 12.16h-.11l-3.55-8.37-3.64 8.37h-.09z"/><path d="m191.13 100.65h1.89v12h-1.89v-3.67h-5.76v3.67h-1.89v-12h1.89v6.65h5.76z"/><path d="m200.71 100.65h1.89v12h-1.89z"/><path d="m210.95 109.49c.55 1.06 1.48 1.62 2.72 1.62 1.27 0 2.12-.6 2.12-1.57 0-1.13-.85-1.52-1.91-2l-.83-.37c-1.76-.78-2.96-1.69-2.96-3.56 0-1.84 1.36-3.12 3.34-3.12 1.53 0 2.66.62 3.43 1.89l-1.43.93c-.46-.78-1.06-1.16-1.96-1.16-.97 0-1.54.56-1.54 1.39 0 .95.58 1.32 1.89 1.91l.83.37c1.82.81 3.02 1.64 3.02 3.67 0 2.21-1.69 3.32-3.97 3.32-2.03 0-3.51-.99-4.33-2.52z"/><path d="m231.24 100.65h2.14l-4.25 5.38 4.89 6.62h-2.29l-3.83-5.19-1.32 1.62v3.56h-1.89v-12h1.89v5.95z"/><path d="m240.56 100.65h7.64v1.68h-5.76v4.98h5.1v1.64h-5.1v2.03h6v1.68h-7.89z"/><path d="m254.57 100.65h2.08l3.41 6.27 3.35-6.27h1.98l-4.41 8.17v3.83h-1.89v-3.81z"/><path d="m228.42 126.92h32.14v1.77h-32.14z"/><path d="m39.27 126.92h30.28v1.77h-30.28z"/><path d="m41.46 129.22c-.42-.87-1.28-1.38-2.19-1.41.3-.02.6-.09.89-.23 1.24-.59 1.77-2.08 1.18-3.33-.59-1.24-2.08-1.77-3.33-1.18-.94.45-1.47 1.41-1.41 2.39-.51-.1-1.06-.06-1.56.19-1.24.59-1.77 2.08-1.18 3.33.52 1.09 1.73 1.63 2.86 1.35 0 .35.08.71.24 1.05.59 1.24 2.08 1.77 3.33 1.18 1.24-.61 1.76-2.1 1.17-3.34z"/><path d="m259.55 132.54c1.24.59 2.73.07 3.33-1.18.16-.34.23-.7.24-1.05 1.13.28 2.34-.25 2.86-1.35.59-1.24.07-2.73-1.18-3.33-.51-.24-1.05-.29-1.56-.19.05-.98-.48-1.94-1.41-2.39-1.24-.59-2.73-.07-3.33 1.18-.59 1.24-.07 2.73 1.18 3.33.29.14.59.21.89.23-.91.03-1.77.53-2.19 1.41-.6 1.26-.07 2.75 1.17 3.34z"/><path d="m79.83 121.77h7.48v1.68h-5.6v4.98h5.1v1.68h-5.1v3.67h-1.89z"/><path d="m94.02 121.77h1.89v12h-1.89z"/><path d="m104.93 125.88v7.89h-1.77v-12.18h.14l7.7 8.07v-7.89h1.77v12.18h-.14z"/><path d="m120.01 121.77h1.89v12h-1.89z"/><path d="m129.83 130.61c.55 1.06 1.48 1.62 2.72 1.62 1.27 0 2.12-.6 2.12-1.57 0-1.13-.85-1.52-1.91-2l-.83-.37c-1.76-.78-2.96-1.69-2.96-3.56 0-1.84 1.36-3.12 3.34-3.12 1.53 0 2.66.62 3.43 1.89l-1.43.93c-.46-.78-1.06-1.16-1.96-1.16-.97 0-1.54.56-1.54 1.39 0 .95.58 1.32 1.89 1.91l.83.37c1.82.81 3.02 1.64 3.02 3.67 0 2.21-1.69 3.32-3.97 3.32-2.03 0-3.51-.99-4.33-2.52z"/><path d="m150.77 121.77h1.89v12h-1.89v-3.67h-5.76v3.67h-1.89v-12h1.89v6.65h5.76z"/><path d="m159.87 121.77h7.64v1.68h-5.76v4.98h5.1v1.64h-5.1v2.03h6v1.68h-7.89z"/><path d="m174.56 121.77h3.39c3.92 0 6.32 2.45 6.32 6s-2.38 6-6.32 6h-3.39zm3.29 10.32c3.11 0 4.47-1.78 4.47-4.33 0-2.54-1.36-4.32-4.47-4.32h-1.4v8.65z"/><path d="m199.46 121.77h1.89v12h-1.89z"/><path d="m210.38 125.88v7.89h-1.77v-12.18h.14l7.7 8.07v-7.89h1.77v12.18h-.14z"/><path d="m124.51 200.82c0 2.16.04 2.8.34 3.66h-3.36c.3-.86.34-1.51.34-3.66v-1.38c0-2.2-.78-2.97-2.5-2.97s-2.5.78-2.5 2.97v21.13c0 2.2.78 2.98 2.5 2.98s2.5-.78 2.5-2.98v-2.11c0-2.16-.04-2.8-.34-3.66h3.36c-.3.86-.34 1.51-.34 3.66v1.29c0 2.41-.17 3.54-.95 4.48-.86 1.03-2.07 1.68-4.23 1.68s-3.36-.65-4.23-1.68c-.78-.95-.95-2.07-.95-4.48v-19.49c0-2.41.17-3.54.95-4.48.86-1.03 2.07-1.68 4.23-1.68s3.36.65 4.23 1.68c.78.95.95 2.07.95 4.48z"/><path d="m140.42 222.98c.22 1.77.73 2.41.73 2.41h-3.49s.34-.82.17-1.98l-.69-5.13h-5.48l-.65 5.13c-.13 1.16.17 1.98.17 1.98h-3.45s.52-.65.73-2.41l3.41-26c.17-1.47-.13-2.37-.13-2.37h5.39s-.3.91-.13 2.37zm-8.45-6.94h4.87l-2.46-18.97z"/><path d="m149.73 207.37 2.5 3.36c1.94 2.63 2.41 4.44 2.41 7.98 0 3.45-.43 4.61-1.12 5.52-.82 1.12-2.07 1.68-4.14 1.68s-3.28-.52-4.14-1.64c-.73-.95-1.03-1.98-1.03-4.44v-.39c0-2.89-.47-3.66-.47-3.66h3.62s-.47.78-.47 3.66v1.03c0 2.2.86 3.06 2.5 3.06 1.08 0 1.81-.34 2.2-1.51.26-.73.3-1.81.3-3.32 0-2.07-.13-3.88-1.47-5.69l-3.1-4.18c-2.11-2.89-3.1-5.04-3.1-8.71 0-2.33.3-3.49 1.03-4.4.95-1.16 1.94-1.64 4.01-1.64s3.28.56 4.14 1.64c.73.95.91 2.07.91 4.66 0 2.85.65 3.66.65 3.66h-3.88s.56-.82.56-3.66v-.86c0-2.37-.69-3.06-2.37-3.06-.91 0-1.51.3-1.85.99s-.43 1.47-.43 2.67c-.02 2.86.76 4.58 2.74 7.25z"/><path d="m161.63 208.58 5.69-12.07c.39-.82.22-1.9.17-1.9h3.66s-.65.78-1.29 2.16l-4.87 9.92 5.13 16.08c.52 1.64 1.34 2.63 1.34 2.63h-4.01s.09-.3.09-.78c0-.43-.09-1.03-.3-1.68l-4.14-12.89-1.47 2.59v9.1c0 2.5.26 2.85.56 3.66h-3.79c.3-.82.56-1.16.56-3.66v-23.46c0-2.16-.04-2.8-.34-3.66h3.36c-.3.86-.34 1.51-.34 3.66v10.3z"/><path d="m179.39 207.37 2.5 3.36c1.94 2.63 2.41 4.44 2.41 7.98 0 3.45-.43 4.61-1.12 5.52-.82 1.12-2.07 1.68-4.14 1.68s-3.28-.52-4.14-1.64c-.73-.95-1.03-1.98-1.03-4.44v-.39c0-2.89-.47-3.66-.47-3.66h3.62s-.47.78-.47 3.66v1.03c0 2.2.86 3.06 2.5 3.06 1.08 0 1.81-.34 2.2-1.51.26-.73.3-1.81.3-3.32 0-2.07-.13-3.88-1.47-5.69l-3.1-4.18c-2.11-2.89-3.1-5.04-3.1-8.71 0-2.33.3-3.49 1.03-4.4.95-1.16 1.94-1.64 4.01-1.64s3.28.56 4.14 1.64c.73.95.91 2.07.91 4.66 0 2.85.65 3.66.65 3.66h-3.88s.56-.82.56-3.66v-.86c0-2.37-.69-3.06-2.37-3.06-.91 0-1.51.3-1.85.99s-.43 1.47-.43 2.67c-.02 2.86.76 4.58 2.74 7.25z"/><circle cx="90.35" cy="209.39" r="2.21"/><path d="m90.35 212.48c-.11 0-.21-.01-.32-.02-.82-.08-1.56-.48-2.08-1.12s-.76-1.44-.68-2.26c.17-1.69 1.68-2.95 3.38-2.76 1.69.17 2.93 1.69 2.76 3.38-.08.82-.48 1.56-1.12 2.08-.55.46-1.23.7-1.94.7zm-.01-4.41c-.3 0-.6.11-.83.3-.27.22-.44.54-.48.89-.04.35.07.7.29.97s.54.44.89.48c.73.07 1.38-.46 1.45-1.18.07-.73-.46-1.38-1.18-1.45-.05-.01-.09-.01-.14-.01z"/><path d="m91.18 218.88c-4.83 0-7.36-3.39-7.36-6.75 0-3.71 2.39-6.11 6.09-6.11 1.35 0 2.89 1 3.24 2.1l-1.68.53c-.09-.28-.88-.87-1.55-.87-2.71 0-4.32 1.62-4.32 4.35 0 2.4 1.75 4.98 5.59 4.98 4.12 0 7.23-3.2 7.23-7.45 0-3.99-2.61-8.01-8.45-8.01-5.08 0-9.17 3.78-13.6 8.34-4.72 4.86-9.1 8.88-14.87 8.88-6.02 0-10.22-4.02-10.22-9.77 0-5.25 3.87-9.21 8.99-9.21 4.83 0 7.36 3.39 7.36 6.75 0 3.71-2.39 6.12-6.09 6.12-1.34 0-2.89-1-3.24-2.1l1.68-.53c.09.28.88.87 1.55.87 2.71 0 4.32-1.63 4.32-4.35 0-2.4-1.75-4.98-5.59-4.98-4.12 0-7.23 3.2-7.23 7.45 0 3.99 2.61 8.01 8.45 8.01 5.08 0 9.17-3.78 13.6-8.34 4.72-4.86 9.1-8.88 14.87-8.88 6.02 0 10.22 4.02 10.22 9.77.01 5.24-3.86 9.2-8.99 9.2z"/><circle cx="61.1" cy="209.39" r="2.21"/><path d="m61.11 212.48c-.11 0-.21-.01-.32-.02-.82-.08-1.56-.48-2.08-1.12s-.76-1.44-.68-2.26c.17-1.69 1.69-2.95 3.38-2.76 1.69.17 2.93 1.69 2.76 3.38-.08.82-.48 1.56-1.12 2.08-.55.46-1.23.7-1.94.7zm-.01-4.41c-.3 0-.6.11-.83.3-.27.22-.44.54-.48.89s.07.7.29.97.54.44.89.48c.73.07 1.38-.46 1.45-1.18.07-.73-.46-1.38-1.18-1.45-.05-.01-.1-.01-.14-.01z"/><path d="m39.27 199.9h50.69v1.77h-50.69z"/><path d="m41.46 202.19c-.42-.87-1.28-1.38-2.19-1.41.3-.02.6-.09.89-.23 1.24-.59 1.77-2.08 1.18-3.33-.59-1.24-2.08-1.77-3.33-1.18-.94.45-1.47 1.41-1.41 2.39-.51-.1-1.06-.06-1.56.19-1.24.59-1.77 2.08-1.18 3.33.52 1.09 1.73 1.63 2.86 1.35 0 .35.08.71.24 1.05.59 1.24 2.08 1.77 3.33 1.18 1.24-.61 1.76-2.1 1.17-3.34z"/><circle cx="207.69" cy="209.39" r="2.21"/><path d="m207.68 212.48c-.71 0-1.39-.24-1.95-.7-.64-.52-1.04-1.26-1.12-2.08-.17-1.69 1.07-3.21 2.76-3.38 1.69-.19 3.21 1.07 3.38 2.76.08.82-.16 1.62-.68 2.26s-1.26 1.04-2.08 1.12c-.1.01-.2.02-.31.02zm.01-4.41c-.04 0-.09 0-.14.01-.73.07-1.26.72-1.18 1.45.07.72.72 1.25 1.45 1.18.35-.04.67-.21.89-.48s.33-.62.29-.97c-.04-.35-.21-.67-.48-.89-.23-.2-.52-.3-.83-.3z"/><path d="m236.55 218.88c-5.77 0-10.15-4.02-14.87-8.88-4.43-4.56-8.52-8.34-13.6-8.34-5.84 0-8.45 4.02-8.45 8.01 0 4.25 3.11 7.45 7.23 7.45 3.84 0 5.59-2.58 5.59-4.98 0-2.72-1.62-4.35-4.32-4.35-.67 0-1.47.59-1.55.87l-1.68-.53c.35-1.1 1.89-2.1 3.24-2.1 3.7 0 6.09 2.4 6.09 6.11 0 3.35-2.53 6.75-7.36 6.75-5.13 0-8.99-3.96-8.99-9.21 0-5.75 4.2-9.77 10.22-9.77 5.77 0 10.15 4.02 14.87 8.88 4.44 4.57 8.52 8.34 13.6 8.34 5.84 0 8.45-4.02 8.45-8.01 0-4.25-3.11-7.45-7.23-7.45-3.84 0-5.59 2.58-5.59 4.98 0 2.72 1.62 4.35 4.32 4.35.67 0 1.46-.59 1.55-.87l1.68.53c-.35 1.1-1.89 2.1-3.24 2.1-3.7 0-6.09-2.4-6.09-6.12 0-3.35 2.53-6.75 7.36-6.75 5.13 0 8.99 3.96 8.99 9.21-.01 5.76-4.21 9.78-10.22 9.78z"/><circle cx="236.94" cy="209.39" r="2.21"/><path d="m236.93 212.48c-.71 0-1.39-.24-1.95-.7-.64-.52-1.04-1.26-1.12-2.08-.17-1.69 1.07-3.21 2.76-3.38 1.7-.19 3.21 1.07 3.38 2.76.08.82-.16 1.62-.68 2.26s-1.26 1.04-2.08 1.12c-.1.01-.21.02-.31.02zm.01-4.41c-.04 0-.09 0-.14.01-.73.07-1.26.72-1.18 1.45.07.72.72 1.25 1.45 1.18.35-.04.67-.21.89-.48s.33-.62.29-.97-.21-.67-.48-.89c-.24-.2-.53-.3-.83-.3z"/><path d="m208.08 199.9h50.69v1.77h-50.69z"/><path d="m257.75 205.52c1.24.59 2.73.07 3.33-1.18.16-.34.23-.7.24-1.05 1.13.28 2.34-.25 2.86-1.35.59-1.24.07-2.73-1.18-3.33-.51-.24-1.05-.29-1.56-.19.05-.98-.48-1.94-1.41-2.39-1.24-.59-2.73-.07-3.33 1.18-.59 1.24-.07 2.73 1.18 3.33.29.14.59.21.89.23-.91.03-1.77.53-2.19 1.41-.6 1.25-.07 2.74 1.17 3.34z"/><path d="m38.07 307.97h-4.39l4.39 4.39 4.38-4.39z"/><path d="m45.29 307.97h-4.39l4.39 4.39 4.38-4.39z"/><path d="m52.51 307.97h-4.39l4.39 4.39 4.39-4.39z"/><path d="m59.73 307.97h-4.39l4.39 4.39 4.39-4.39z"/><path d="m66.95 307.97h-4.39l4.39 4.39 4.39-4.39z"/><path d="m74.17 307.97h-4.39l4.39 4.39 4.39-4.39z"/><path d="m81.39 307.97h-4.39l4.39 4.39 4.39-4.39z"/><path d="m88.61 307.97h-4.39l4.39 4.39 4.39-4.39z"/><path d="m95.83 307.97h-4.39l4.39 4.39 4.39-4.39z"/><path d="m103.05 307.97h-4.39l4.39 4.39 4.39-4.39z"/><path d="m110.27 307.97h-4.38l4.38 4.39 4.39-4.39z"/><path d="m117.49 307.97h-4.38l4.38 4.39 4.39-4.39z"/><path d="m124.71 307.97h-4.38l4.38 4.39 4.39-4.39z"/><path d="m131.93 307.97h-4.38l4.38 4.39 4.39-4.39z"/><path d="m139.15 307.97h-4.38l4.38 4.39 4.39-4.39z"/><path d="m146.37 307.97h-4.38l4.38 4.39 4.39-4.39z"/><path d="m153.59 307.97h-4.38l4.38 4.39 4.39-4.39z"/><path d="m160.81 307.97h-4.38l4.38 4.39 4.39-4.39z"/><path d="m168.04 307.97h-4.39l4.39 4.39 4.38-4.39z"/><path d="m175.26 307.97h-4.39l4.39 4.39 4.38-4.39z"/><path d="m182.48 307.97h-4.39l4.39 4.39 4.38-4.39z"/><path d="m189.7 307.97h-4.39l4.39 4.39 4.38-4.39z"/><path d="m196.92 307.97h-4.39l4.39 4.39 4.38-4.39z"/><path d="m204.14 307.97h-4.39l4.39 4.39 4.38-4.39z"/><path d="m211.36 307.97h-4.39l4.39 4.39 4.38-4.39z"/><path d="m218.58 307.97h-4.39l4.39 4.39 4.38-4.39z"/><path d="m225.8 307.97h-4.39l4.39 4.39 4.39-4.39z"/><path d="m233.02 307.97h-4.39l4.39 4.39 4.39-4.39z"/><path d="m240.24 307.97h-4.39l4.39 4.39 4.39-4.39z"/><path d="m247.46 307.97h-4.39l4.39 4.39 4.39-4.39z"/><path d="m254.68 307.97h-4.39l4.39 4.39 4.39-4.39z"/><path d="m261.9 307.97h-4.39l4.39 4.39 4.39-4.39z"/><path d="m72.36 21.76h6.3v1.38h-4.75v4.1h4.21v1.35h-4.21v1.67h4.95v1.38h-6.51v-9.88z"/><path d="m80.54 21.76h1.76l1.98 3.13 1.98-3.13h1.65s-2.79 4.42-2.81 4.42l3.46 5.47h-1.76l-2.58-4.08-2.58 4.08h-1.64l3.39-5.37c0-.01-2.85-4.52-2.85-4.52z"/><path d="m91.79 23.14h-2.94v-1.38h7.44v1.38h-2.94v8.52h-1.56z"/><path d="m97.71 21.76h6.3v1.38h-4.75v4.1h4.21v1.35h-4.21v1.67h4.95v1.38h-6.51v-9.88z"/><path d="m107.5 25.15v6.51h-1.46v-10.04h.12l6.35 6.65v-6.51h1.46v10.04h-.12z"/><path d="m116.1 21.76h2.79c3.23 0 5.21 2.02 5.21 4.95s-1.97 4.95-5.21 4.95h-2.79zm2.7 8.52c2.56 0 3.68-1.47 3.68-3.57s-1.12-3.57-3.68-3.57h-1.15v7.13h1.15z"/><path d="m125.78 21.76h6.3v1.38h-4.75v4.1h4.21v1.35h-4.21v1.67h4.95v1.38h-6.51z"/><path d="m134.1 21.76h2.79c3.23 0 5.21 2.02 5.21 4.95s-1.97 4.95-5.21 4.95h-2.79zm2.71 8.52c2.56 0 3.68-1.47 3.68-3.57s-1.12-3.57-3.68-3.57h-1.15v7.13h1.15z"/><path d="m146.53 26.71c0-2.93 2.23-5.08 5.05-5.08 1.83 0 3.1.71 3.96 1.92l-1.19.84c-.66-.89-1.5-1.35-2.81-1.35-1.96 0-3.39 1.57-3.39 3.67 0 2.14 1.46 3.67 3.45 3.67 1.28 0 2.23-.48 2.97-1.44l1.21.83c-1.02 1.35-2.31 2.02-4.24 2.02-2.83 0-5.01-2.15-5.01-5.08z"/><path d="m158 31.66h-1.57l4.34-10.1h.09l4.35 10.1h-1.64l-.57-1.38s-4.41 0-4.43 0zm2.8-6.68-1.64 3.92h3.26c0-.01-1.62-3.92-1.62-3.92z"/><path d="m167.14 29.05c.45.87 1.22 1.34 2.24 1.34 1.05 0 1.75-.5 1.75-1.29 0-.93-.7-1.25-1.57-1.65l-.68-.31c-1.46-.64-2.45-1.4-2.45-2.94 0-1.51 1.12-2.58 2.75-2.58 1.27 0 2.2.51 2.82 1.56l-1.18.77c-.38-.64-.87-.96-1.62-.96-.8 0-1.27.47-1.27 1.15 0 .79.48 1.09 1.56 1.57l.68.31c1.5.67 2.49 1.35 2.49 3.03 0 1.82-1.4 2.74-3.28 2.74-1.67 0-2.9-.82-3.57-2.08z"/><path d="m179.73 21.76h1.76l-3.51 4.44 4.03 5.46h-1.89l-3.16-4.28-1.09 1.34v2.94h-1.56v-9.9h1.56v4.91z"/><path d="m186.51 21.76h6.17v1.38h-4.61v4.1h4.21v1.38h-4.21v3.03h-1.56z"/><path d="m194.42 21.76h1.56v9.9h-1.56z"/><path d="m199.63 25.15v6.51h-1.46v-10.04h.12l6.35 6.65v-6.51h1.46v10.04h-.12z"/><path d="m208.27 21.76h1.56v9.9h-1.56z"/><path d="m212.58 29.05c.45.87 1.22 1.34 2.24 1.34 1.05 0 1.75-.5 1.75-1.29 0-.93-.7-1.25-1.57-1.65l-.68-.31c-1.46-.64-2.45-1.4-2.45-2.94 0-1.51 1.12-2.58 2.75-2.58 1.27 0 2.2.51 2.82 1.56l-1.18.77c-.38-.64-.87-.96-1.62-.96-.8 0-1.27.47-1.27 1.15 0 .79.48 1.09 1.56 1.57l.68.31c1.5.67 2.49 1.35 2.49 3.03 0 1.82-1.4 2.74-3.28 2.74-1.67 0-2.9-.82-3.57-2.08z"/><path d="m226.06 21.76h1.56v9.9h-1.56v-3.03h-4.75v3.03h-1.56v-9.9h1.56v5.49h4.75z"/></g><path d="m112.29 271.68h1.66v25.28h-1.66z"/><path d="m207.25 271.68h1.66v25.28h-1.66z"/><path d="m66.61 278.6c-.26.07-.55.13-.89.13-1.94 0-3.33-1.44-3.33-3.33 0-1.88 1.48-3.43 3.64-3.43 2.18 0 3.65 1.54 3.65 3.39 0 .84-.45 1.73-1.02 2.62l-2.56 4.02h-1.67zm1.5-3.2c0-1.12-.76-2.07-2.07-2.07-1.32 0-2.08.98-2.08 2.07 0 1.11.73 2.08 2.08 2.08 1.31 0 2.07-.99 2.07-2.08z"/><path d="m75.56 273.47h-5.11v-1.38h7.42v.09l-4.79 9.81h-1.66z"/><path d="m76.48 281.06c0-.6.48-1.02 1.02-1.02s1.02.42 1.02 1.02-.48 1.02-1.02 1.02-1.02-.42-1.02-1.02z"/><path d="m82.52 278.6c-.26.07-.55.13-.89.13-1.94 0-3.33-1.44-3.33-3.33 0-1.88 1.49-3.43 3.64-3.43 2.18 0 3.65 1.54 3.65 3.39 0 .84-.45 1.73-1.02 2.62l-2.56 4.02h-1.67zm1.5-3.2c0-1.12-.76-2.07-2.07-2.07-1.33 0-2.08.98-2.08 2.07 0 1.11.73 2.08 2.08 2.08 1.31 0 2.07-.99 2.07-2.08z"/><path d="m53.42 296.99h-1.56v-9.9h2.53c2.72 0 4.22 1.5 4.22 3.78 0 2.27-1.51 3.77-4.22 3.77h-.98v2.35zm.91-3.73c1.91 0 2.68-.9 2.68-2.39 0-1.5-.79-2.4-2.68-2.4h-.92v4.79z"/><path d="m66.75 296.99h-1.85l-1.69-2.4c-.22.03-.47.04-.71.04h-.98v2.36h-1.56v-9.9h2.53c2.72 0 4.22 1.5 4.22 3.78 0 1.53-.68 2.71-1.98 3.3zm-4.31-3.7c1.91 0 2.68-.9 2.68-2.42 0-1.5-.79-2.4-2.68-2.4h-.92v4.82z"/><path d="m67.72 292.04c0-2.93 2.27-5.08 5.11-5.08s5.11 2.15 5.11 5.08-2.27 5.08-5.11 5.08-5.11-2.15-5.11-5.08zm8.61 0c0-2.1-1.44-3.67-3.49-3.67s-3.49 1.57-3.49 3.67 1.44 3.67 3.49 3.67c2.04 0 3.49-1.57 3.49-3.67z"/><path d="m78.84 292.04c0-2.93 2.27-5.08 5.11-5.08s5.11 2.15 5.11 5.08-2.27 5.08-5.11 5.08-5.11-2.15-5.11-5.08zm8.61 0c0-2.1-1.44-3.67-3.49-3.67s-3.49 1.57-3.49 3.67 1.44 3.67 3.49 3.67 3.49-1.57 3.49-3.67z"/><path d="m90.44 287.09h6.17v1.38h-4.61v4.1h4.21v1.38h-4.21v3.03h-1.56z"/><path d="m143.35 278.98v1.28h-1.14v1.73h-1.53v-1.73h-5.68v-.09l7.13-8.3h.09v7.1zm-2.66-3.48-2.98 3.48h2.98z"/><path d="m144.91 274.38c0-1.4 1.33-2.42 2.85-2.42s2.84 1.02 2.84 2.42c0 .87-.47 1.5-1.06 1.89 1.11.47 1.91 1.37 1.91 2.65 0 1.86-1.53 3.2-3.68 3.2s-3.7-1.34-3.7-3.2c0-1.28.8-2.18 1.91-2.65-.6-.39-1.07-1.01-1.07-1.89zm4.95 4.5c0-1.08-.86-1.85-2.1-1.85s-2.11.77-2.11 1.85c0 1.12.87 1.86 2.11 1.86s2.1-.79 2.1-1.86zm-.8-4.37c0-.71-.54-1.19-1.3-1.19-.77 0-1.31.48-1.31 1.19 0 .68.54 1.17 1.31 1.17.76-.01 1.3-.49 1.3-1.17z"/><path d="m152.13 281.06c0-.6.48-1.02 1.02-1.02s1.02.42 1.02 1.02-.48 1.02-1.02 1.02-1.02-.42-1.02-1.02z"/><path d="m158.17 278.6c-.26.07-.55.13-.89.13-1.94 0-3.33-1.44-3.33-3.33 0-1.88 1.48-3.43 3.64-3.43 2.18 0 3.65 1.54 3.65 3.39 0 .84-.45 1.73-1.02 2.62l-2.56 4.02h-1.67zm1.5-3.2c0-1.12-.76-2.07-2.07-2.07-1.32 0-2.08.98-2.08 2.07 0 1.11.73 2.08 2.08 2.08 1.31 0 2.07-.99 2.07-2.08z"/><path d="m161.59 280.01 1.31-.7c.45.79 1.14 1.4 2.43 1.4 1.35 0 2.11-.9 2.11-2.12s-.83-2.11-2.3-2.11c-1.09 0-1.94.41-2.5.92l-.1-.04v-5.25h5.66v1.38h-4.25v1.95c.41-.19.87-.29 1.46-.29 2.17 0 3.65 1.47 3.65 3.42 0 2.15-1.47 3.57-3.73 3.57-1.73-.02-3.13-.92-3.74-2.13z"/><path d="m169.33 274.61c0-1.53 1.27-2.65 2.69-2.65 1.43 0 2.71 1.12 2.71 2.65s-1.28 2.65-2.71 2.65c-1.42 0-2.69-1.12-2.69-2.65zm3.99 0c0-.83-.58-1.4-1.3-1.4-.71 0-1.28.57-1.28 1.4 0 .81.57 1.4 1.28 1.4.72 0 1.3-.59 1.3-1.4zm4.34-2.52h1.53l-6.17 9.9h-1.53zm-1.72 7.38c0-1.53 1.27-2.65 2.69-2.65s2.71 1.12 2.71 2.65-1.28 2.65-2.71 2.65-2.69-1.12-2.69-2.65zm3.99 0c0-.83-.58-1.4-1.3-1.4-.71 0-1.28.57-1.28 1.4 0 .82.57 1.4 1.28 1.4.72 0 1.3-.58 1.3-1.4z"/><path d="m132.07 296.99h-1.57l4.34-10.1h.09l4.35 10.1h-1.65l-.57-1.38s-4.41 0-4.43 0zm2.79-6.68-1.64 3.92h3.26c.01-.01-1.62-3.92-1.62-3.92z"/><path d="m140.36 287.09h1.56v8.52h4.37v1.38h-5.92z"/><path d="m146.58 292.04c0-2.93 2.23-5.08 5.05-5.08 1.83 0 3.1.71 3.96 1.92l-1.19.84c-.66-.89-1.5-1.35-2.81-1.35-1.97 0-3.39 1.57-3.39 3.67 0 2.14 1.46 3.67 3.45 3.67 1.28 0 2.23-.48 2.97-1.44l1.21.83c-1.02 1.35-2.31 2.02-4.24 2.02-2.83 0-5.01-2.15-5.01-5.08z"/><path d="m159.97 286.66h1.5l-4.18 12.2h-1.5z"/><path d="m161.87 287.09h1.64l2.82 6.65 2.74-6.65h1.57l-4.28 10.04h-.09z"/><path d="m170.61 292.04c0-2.93 2.27-5.08 5.11-5.08s5.11 2.15 5.11 5.08-2.27 5.08-5.11 5.08-5.11-2.15-5.11-5.08zm8.6 0c0-2.1-1.44-3.67-3.49-3.67s-3.49 1.57-3.49 3.67 1.44 3.67 3.49 3.67 3.49-1.57 3.49-3.67z"/><path d="m182.21 287.09h1.56v8.52h4.37v1.38h-5.92z"/><path d="m228.23 273.47h-5.11v-1.38h7.42v.09l-4.79 9.81h-1.66z"/><path d="m230.49 280.01 1.31-.7c.45.79 1.14 1.4 2.43 1.4 1.35 0 2.11-.9 2.11-2.12s-.83-2.11-2.3-2.11c-1.09 0-1.94.41-2.5.92l-.1-.04v-5.25h5.66v1.38h-4.25v1.95c.41-.19.87-.29 1.46-.29 2.17 0 3.65 1.47 3.65 3.42 0 2.15-1.47 3.57-3.73 3.57-1.74-.02-3.13-.92-3.74-2.13z"/><path d="m238.81 277.04c0-2.93 2.27-5.08 5.11-5.08s5.11 2.15 5.11 5.08-2.27 5.08-5.11 5.08-5.11-2.15-5.11-5.08zm8.6 0c0-2.1-1.44-3.67-3.49-3.67s-3.49 1.57-3.49 3.67 1.44 3.67 3.49 3.67 3.49-1.57 3.49-3.67z"/><path d="m227.59 286.89h.07l4.83 5.58 4.77-5.58h.07v10.1h-1.47v-6.42l-3.38 4.03h-.07l-3.36-4.03v6.42h-1.47z"/><path d="m239.2 287.09h1.56v8.52h4.37v1.38h-5.92z"/></svg>