<?xml version="1.0" encoding="utf-8"?>
<!-- Generator: Adobe Illustrator 24.0.3, SVG Export Plug-In . SVG Version: 6.00 Build 0)  -->
<svg version="1.1" id="Layer_1" xmlns="http://www.w3.org/2000/svg" xmlns:xlink="http://www.w3.org/1999/xlink" x="0px" y="0px"
	 viewBox="0 0 188.31 27.66" style="enable-background:new 0 0 188.31 27.66;" xml:space="preserve">
<style type="text/css">
	.st0{fill:#B29759;}
</style>
<g>
	<g>
		<g>
			<g>
				<circle class="st0" cx="142.02" cy="16.57" r="1.8"/>
				<path class="st0" d="M142.02,14.05c0.09,0,0.17,0,0.26,0.01c0.67,0.07,1.27,0.39,1.7,0.91c0.43,0.52,0.62,1.18,0.56,1.85
					c-0.07,0.67-0.39,1.27-0.91,1.7c-0.52,0.42-1.18,0.63-1.85,0.55c-0.67-0.07-1.27-0.39-1.7-0.91c-0.43-0.52-0.62-1.18-0.56-1.85
					c0.07-0.67,0.39-1.27,0.91-1.7C140.88,14.25,141.44,14.05,142.02,14.05z M142.02,17.65c0.25,0,0.49-0.08,0.68-0.24
					c0.22-0.18,0.36-0.44,0.39-0.73c0.03-0.29-0.06-0.57-0.24-0.79c-0.18-0.22-0.44-0.36-0.73-0.39c-0.29-0.03-0.57,0.06-0.79,0.24
					c-0.22,0.18-0.36,0.44-0.39,0.73c-0.06,0.59,0.37,1.12,0.97,1.18C141.95,17.65,141.99,17.65,142.02,17.65z"/>
			</g>
			<path class="st0" d="M141.34,8.83c3.94,0,6,2.77,6,5.5c0,3.03-1.95,4.99-4.97,4.99c-1.1,0-2.36-0.82-2.64-1.72l1.37-0.43
				c0.07,0.23,0.72,0.71,1.27,0.71c2.21,0,3.53-1.33,3.53-3.55c0-1.96-1.43-4.06-4.56-4.06c-3.36,0-5.89,2.61-5.89,6.08
				c0,3.25,2.13,6.53,6.89,6.53c4.15,0,7.48-3.08,11.1-6.81c3.85-3.96,7.42-7.24,12.13-7.24c4.91,0,8.34,3.28,8.34,7.97
				c0,4.29-3.15,7.52-7.34,7.52c-3.94,0-6-2.77-6-5.51c0-3.03,1.95-4.99,4.97-4.99c1.1,0,2.36,0.82,2.64,1.71l-1.37,0.44
				c-0.07-0.23-0.72-0.71-1.27-0.71c-2.21,0-3.53,1.33-3.53,3.55c0,1.96,1.43,4.07,4.56,4.07c3.36,0,5.9-2.61,5.9-6.08
				c0-3.25-2.13-6.53-6.89-6.53c-4.15,0-7.48,3.08-11.1,6.81c-3.85,3.96-7.42,7.24-12.13,7.24c-4.91,0-8.33-3.28-8.33-7.97
				C134,12.06,137.16,8.83,141.34,8.83z"/>
			<g>
				<circle class="st0" cx="165.88" cy="16.57" r="1.8"/>
				<path class="st0" d="M165.88,14.05c0.09,0,0.17,0,0.26,0.01c0.67,0.07,1.27,0.39,1.7,0.91c0.43,0.52,0.62,1.18,0.56,1.85
					c-0.07,0.67-0.39,1.27-0.91,1.7c-0.52,0.42-1.18,0.63-1.85,0.55c-0.67-0.07-1.27-0.39-1.7-0.91c-0.43-0.52-0.62-1.18-0.56-1.85
					c0.07-0.67,0.39-1.27,0.91-1.7C164.74,14.25,165.3,14.05,165.88,14.05z M165.88,17.65c0.25,0,0.49-0.08,0.68-0.24
					c0.22-0.18,0.36-0.44,0.39-0.73c0.03-0.29-0.06-0.57-0.24-0.79c-0.18-0.22-0.44-0.36-0.73-0.39c-0.28-0.03-0.57,0.06-0.79,0.24
					c-0.22,0.18-0.36,0.44-0.39,0.73c-0.06,0.59,0.37,1.12,0.97,1.18C165.81,17.65,165.85,17.65,165.88,17.65z"/>
			</g>
		</g>
		<g>
			<rect x="142.34" y="22.88" class="st0" width="41.35" height="1.44"/>
			<path class="st0" d="M181.91,22.45c0.34,0.71,1.04,1.13,1.78,1.15c-0.25,0.02-0.49,0.08-0.73,0.19c-1.01,0.48-1.44,1.7-0.96,2.72
				c0.48,1.01,1.7,1.44,2.72,0.96c0.77-0.37,1.2-1.15,1.15-1.95c0.42,0.08,0.86,0.05,1.28-0.15c1.01-0.48,1.44-1.7,0.96-2.72
				c-0.43-0.89-1.41-1.33-2.33-1.1c0-0.29-0.06-0.58-0.19-0.86c-0.48-1.01-1.7-1.44-2.72-0.96
				C181.85,20.22,181.42,21.43,181.91,22.45z"/>
		</g>
	</g>
	<g>
		<g>
			<g>
				<circle class="st0" cx="46.29" cy="16.57" r="1.8"/>
				<path class="st0" d="M46.29,14.05c0.58,0,1.13,0.2,1.59,0.57c0.52,0.43,0.85,1.03,0.91,1.7c0.07,0.67-0.13,1.33-0.56,1.85
					c-0.43,0.52-1.03,0.85-1.7,0.91c-0.67,0.07-1.33-0.13-1.85-0.55c-0.52-0.43-0.85-1.03-0.91-1.7c-0.07-0.67,0.13-1.33,0.56-1.85
					c0.43-0.52,1.03-0.85,1.7-0.91C46.12,14.06,46.21,14.05,46.29,14.05z M46.28,17.65c0.04,0,0.07,0,0.11-0.01
					c0.29-0.03,0.55-0.17,0.73-0.39c0.18-0.22,0.27-0.51,0.24-0.79c-0.06-0.59-0.58-1-1.18-0.97c-0.59,0.06-1.03,0.59-0.97,1.18
					c0.03,0.29,0.17,0.54,0.39,0.73C45.8,17.57,46.04,17.65,46.28,17.65z"/>
			</g>
			<path class="st0" d="M22.74,8.83c4.71,0,8.28,3.28,12.13,7.24c3.62,3.72,6.95,6.81,11.1,6.81c4.76,0,6.89-3.28,6.89-6.53
				c0-3.46-2.53-6.08-5.9-6.08c-3.13,0-4.56,2.11-4.56,4.06c0,2.22,1.32,3.55,3.53,3.55c0.55,0,1.19-0.48,1.27-0.71l1.37,0.44
				c-0.28,0.9-1.54,1.71-2.64,1.71c-3.02,0-4.97-1.96-4.97-4.99c0-2.74,2.06-5.5,6-5.5c4.18,0,7.34,3.23,7.34,7.52
				c0,4.69-3.43,7.97-8.34,7.97c-4.71,0-8.28-3.28-12.13-7.24c-3.62-3.72-6.95-6.81-11.1-6.81c-4.76,0-6.89,3.28-6.89,6.53
				c0,3.46,2.53,6.08,5.9,6.08c3.13,0,4.56-2.11,4.56-4.07c0-2.22-1.32-3.55-3.53-3.55c-0.55,0-1.2,0.48-1.27,0.71l-1.37-0.43
				c0.28-0.9,1.54-1.72,2.64-1.72c3.02,0,4.97,1.96,4.97,4.99c0,2.74-2.06,5.51-6,5.51c-4.18,0-7.34-3.23-7.34-7.52
				C14.41,12.1,17.83,8.83,22.74,8.83z"/>
			<g>
				<circle class="st0" cx="22.43" cy="16.57" r="1.8"/>
				<path class="st0" d="M22.43,14.05c0.58,0,1.13,0.2,1.59,0.57c0.52,0.43,0.85,1.03,0.91,1.7c0.07,0.67-0.13,1.33-0.56,1.85
					c-0.43,0.52-1.03,0.85-1.7,0.91c-0.67,0.07-1.33-0.13-1.85-0.55c-0.52-0.43-0.85-1.03-0.91-1.7c-0.07-0.67,0.13-1.33,0.56-1.85
					c0.43-0.52,1.03-0.85,1.7-0.91C22.26,14.06,22.35,14.05,22.43,14.05z M22.42,17.65c0.04,0,0.07,0,0.11-0.01
					c0.29-0.03,0.55-0.17,0.73-0.39c0.18-0.22,0.27-0.51,0.24-0.79c-0.06-0.59-0.59-1-1.18-0.97c-0.59,0.06-1.03,0.59-0.97,1.18
					c0.03,0.29,0.17,0.54,0.39,0.73C21.94,17.57,22.18,17.65,22.42,17.65z"/>
			</g>
		</g>
		<g>
			<rect x="4.62" y="22.88" class="st0" width="41.35" height="1.44"/>
			<path class="st0" d="M5.44,19.73c-1.01-0.48-2.23-0.06-2.72,0.96c-0.13,0.28-0.19,0.57-0.19,0.86c-0.92-0.23-1.91,0.21-2.33,1.1
				c-0.48,1.01-0.06,2.23,0.96,2.72c0.41,0.2,0.86,0.24,1.28,0.15c-0.04,0.8,0.39,1.58,1.15,1.95c1.01,0.48,2.23,0.06,2.72-0.96
				c0.48-1.01,0.06-2.23-0.96-2.72c-0.24-0.11-0.48-0.17-0.73-0.19c0.74-0.02,1.44-0.44,1.78-1.15C6.88,21.43,6.46,20.22,5.44,19.73
				z"/>
		</g>
	</g>
	<g>
		<g>
			<circle class="st0" cx="106.21" cy="8.66" r="1.8"/>
			<path class="st0" d="M106.2,6.14c0.09,0,0.17,0,0.26,0.01c0.67,0.07,1.27,0.39,1.7,0.91c0.43,0.52,0.62,1.18,0.56,1.85
				c-0.14,1.38-1.37,2.43-2.76,2.25c-1.38-0.14-2.39-1.38-2.25-2.76c0.07-0.67,0.39-1.27,0.91-1.7
				C105.07,6.34,105.63,6.14,106.2,6.14z M106.21,9.74c0.25,0,0.49-0.09,0.68-0.24c0.22-0.18,0.36-0.44,0.39-0.73v0
				c0.03-0.29-0.06-0.57-0.24-0.79c-0.18-0.22-0.44-0.36-0.73-0.39c-0.6-0.05-1.12,0.37-1.18,0.97c-0.06,0.59,0.37,1.12,0.97,1.18
				C106.14,9.74,106.17,9.74,106.21,9.74z"/>
		</g>
		<path class="st0" d="M121.21,10.14c0.66-0.44,0.97-1.19,0.89-1.93c0.05,0.24,0.14,0.48,0.29,0.69c0.62,0.94,1.88,1.19,2.82,0.57
			s1.19-1.88,0.57-2.82c-0.47-0.71-1.3-1.03-2.09-0.87c0.03-0.42-0.08-0.86-0.33-1.24c-0.62-0.94-1.88-1.19-2.82-0.57
			c-0.82,0.54-1.12,1.58-0.76,2.46c-0.28,0.04-0.56,0.14-0.82,0.31c-0.94,0.62-1.19,1.88-0.57,2.82
			C119.01,10.51,120.28,10.77,121.21,10.14z"/>
		<path class="st0" d="M67.09,15.26c-0.66,0.44-0.97,1.19-0.89,1.93c-0.05-0.24-0.14-0.48-0.29-0.69c-0.62-0.94-1.88-1.19-2.82-0.57
			c-0.94,0.62-1.19,1.88-0.57,2.82c0.47,0.71,1.3,1.03,2.09,0.87c-0.03,0.42,0.08,0.86,0.33,1.24c0.62,0.94,1.88,1.19,2.82,0.57
			c0.82-0.54,1.12-1.58,0.76-2.46c0.28-0.04,0.56-0.14,0.82-0.31c0.94-0.62,1.19-1.88,0.57-2.82
			C69.29,14.89,68.03,14.64,67.09,15.26z"/>
		<path class="st0" d="M77.02,0c1.54,0,3.07,0.28,4.51,0.85c2.87,1.15,5.43,3.38,8.07,7.02c0.73,1,1.41,2.04,2.1,3.07
			c1.21,1.82,2.46,3.71,3.92,5.36c2.82,3.2,6.39,5.4,10.05,6.22c4.04,0.9,8.25,0.07,11.26-2.21c3.5-2.66,5.31-7.34,4.5-11.66
			l-0.13-0.71l1.42-0.26l0.13,0.71c0.91,4.84-1.12,10.1-5.05,13.08c-3.34,2.54-7.99,3.46-12.44,2.47c-3.96-0.88-7.8-3.25-10.82-6.67
			c-1.52-1.72-2.8-3.65-4.04-5.51c-0.68-1.02-1.35-2.04-2.07-3.03c-2.47-3.41-4.83-5.48-7.44-6.53c-4-1.61-8.9-0.59-11.93,2.48
			c-3.03,3.07-3.98,7.99-2.31,11.96l0.28,0.67l-1.33,0.56l-0.28-0.66c-1.88-4.5-0.81-10.06,2.62-13.53C70.37,1.29,73.7,0,77.02,0z"
			/>
		<path class="st0" d="M106.4,9.76c0.6,2.25,0.11,4.45-1.33,6.06c-1.28,1.42-3.31,2.2-5.73,2.2c-1.66,0-3.04-0.7-3.49-0.92
			c-2.04-1.02-4.08-3.07-5.45-5.48l1.25-0.71c1.24,2.17,3.05,4.01,4.85,4.91c0.38,0.19,1.52,0.77,2.84,0.77
			c1.16,0,3.31-0.22,4.66-1.73c1.11-1.23,1.48-2.96,1.01-4.72L106.4,9.76z"/>
	</g>
</g>
</svg>
