<?xml version="1.0" encoding="utf-8"?>
<!-- Generator: Adobe Illustrator 24.0.2, SVG Export Plug-In . SVG Version: 6.00 Build 0)  -->
<svg version="1.1" id="Layer_1" xmlns="http://www.w3.org/2000/svg" xmlns:xlink="http://www.w3.org/1999/xlink" x="0px" y="0px"
	 viewBox="0 0 415 415" style="enable-background:new 0 0 415 415;" xml:space="preserve">
<style type="text/css">
	.st0{fill:#AB8837;}
	.st1{opacity:0.15;fill:#AB8837;}
</style>
<g>
	<g>
		<path class="st0" d="M197.21,134.83c-1.66,0.17-3.14-1.08-3.3-2.8c-0.17-1.72,1.04-3.26,2.7-3.43c1.66-0.17,3.14,1.08,3.3,2.8
			C200.07,133.12,198.87,134.66,197.21,134.83"/>
		<path class="st0" d="M196.9,135.22c-0.76,0-1.49-0.26-2.1-0.76c-0.73-0.59-1.18-1.45-1.27-2.4c-0.19-1.92,1.17-3.65,3.03-3.84
			c0.88-0.09,1.75,0.17,2.44,0.74c0.73,0.59,1.18,1.45,1.27,2.4c0.19,1.92-1.17,3.65-3.03,3.84l0,0
			C197.13,135.22,197.02,135.22,196.9,135.22z M196.91,128.95c-0.09,0-0.18,0-0.27,0.01c-1.45,0.15-2.51,1.51-2.36,3.02
			c0.07,0.75,0.43,1.43,1,1.89c0.54,0.44,1.21,0.64,1.89,0.57l0,0c1.45-0.15,2.51-1.51,2.36-3.02c-0.07-0.75-0.43-1.43-1-1.89
			C198.06,129.16,197.5,128.95,196.91,128.95z"/>
		<path class="st0" d="M197.29,186.46c-7.45,0-12.65-5.66-12.65-13.76c0-7.9,5.39-13.99,11.91-20.57
			c6.36-6.43,11.62-12.35,11.62-19.87c0-7.51-4.79-12.76-11.65-12.76c-6.21,0-10.89,4.74-10.89,11.02c0,5.71,3.78,8.7,7.52,8.7
			c4.1,0,6.65-2.64,6.65-6.9c0-1.22-0.95-2.68-1.69-2.93l0.31-0.95c1.22,0.4,2.37,2.29,2.37,3.88c0,4.8-3,7.9-7.65,7.9
			c-4.23,0-8.52-3.33-8.52-9.7c0-6.85,5.11-12.02,11.89-12.02c7.45,0,12.65,5.66,12.65,13.76c0,7.9-5.4,13.99-11.91,20.57
			c-6.36,6.42-11.62,12.35-11.62,19.87c0,7.51,4.79,12.76,11.65,12.76c6.21,0,10.89-4.74,10.89-11.02c0-5.71-3.78-8.7-7.52-8.7
			c-4.1,0-6.65,2.64-6.65,6.9c0,1.22,0.95,2.68,1.69,2.93l-0.31,0.95c-1.22-0.4-2.37-2.29-2.37-3.88c0-4.8,3-7.9,7.65-7.9
			c4.23,0,8.52,3.33,8.52,9.7C209.18,181.3,204.06,186.46,197.29,186.46z"/>
		<path class="st0" d="M196.6,170.14c1.66-0.17,3.14,1.08,3.3,2.8c0.17,1.72-1.04,3.26-2.7,3.43c-1.66,0.17-3.14-1.08-3.3-2.8
			C193.74,171.85,194.95,170.31,196.6,170.14"/>
		<path class="st0" d="M196.9,176.77c-0.76,0-1.49-0.26-2.1-0.75c-0.73-0.59-1.18-1.45-1.27-2.4c-0.19-1.92,1.17-3.65,3.03-3.84l0,0
			c0.89-0.09,1.75,0.17,2.44,0.74c0.73,0.59,1.18,1.45,1.27,2.4c0.19,1.92-1.17,3.65-3.03,3.84
			C197.13,176.76,197.02,176.77,196.9,176.77z M196.64,170.51c-1.45,0.15-2.51,1.51-2.36,3.02c0.07,0.75,0.43,1.43,1,1.89
			c0.54,0.44,1.21,0.64,1.89,0.57c1.45-0.15,2.51-1.51,2.36-3.02c-0.07-0.76-0.43-1.43-1-1.9
			C197.99,170.64,197.32,170.44,196.64,170.51L196.64,170.51z"/>
	</g>
	<rect x="208.3" y="132.26" class="st0" width="0.75" height="157.35"/>
	<path class="st0" d="M202.2,288.18c-0.81,1.77-0.09,3.88,1.61,4.73c0.46,0.23,0.95,0.33,1.43,0.34c-0.39,1.6,0.35,3.32,1.84,4.06
		c1.7,0.84,3.74,0.1,4.55-1.67c0.33-0.72,0.4-1.5,0.26-2.22c1.34,0.08,2.65-0.67,3.26-2.01c0.81-1.77,0.09-3.88-1.61-4.73
		c-1.7-0.84-3.74-0.1-4.55,1.67c-0.19,0.41-0.28,0.84-0.32,1.27c-0.03-1.29-0.73-2.51-1.93-3.1
		C205.05,285.66,203.01,286.41,202.2,288.18"/>
	<g>
		<path class="st0" d="M220.14,134.83c1.66,0.17,3.14-1.08,3.3-2.8c0.17-1.72-1.04-3.26-2.7-3.43c-1.66-0.17-3.14,1.08-3.3,2.8
			C217.27,133.12,218.48,134.66,220.14,134.83"/>
		<path class="st0" d="M220.44,135.22c-0.12,0-0.23-0.01-0.35-0.02l0,0c-1.86-0.19-3.22-1.92-3.03-3.84
			c0.09-0.95,0.54-1.81,1.27-2.4c0.69-0.57,1.57-0.83,2.44-0.74c1.86,0.19,3.22,1.92,3.03,3.84c-0.09,0.95-0.54,1.81-1.27,2.4
			C221.94,134.96,221.2,135.22,220.44,135.22z M220.18,134.46c0.68,0.07,1.35-0.13,1.89-0.57c0.57-0.47,0.93-1.14,1-1.89
			c0.15-1.52-0.91-2.87-2.36-3.02c-0.68-0.07-1.35,0.13-1.89,0.57c-0.57,0.47-0.93,1.14-1,1.89
			C217.67,132.95,218.73,134.31,220.18,134.46L220.18,134.46z"/>
		<path class="st0" d="M220.06,186.46c-6.78,0-11.89-5.17-11.89-12.02c0-6.37,4.28-9.7,8.52-9.7c4.65,0,7.65,3.1,7.65,7.9
			c0,1.59-1.15,3.48-2.37,3.88l-0.31-0.95c0.74-0.24,1.69-1.7,1.69-2.93c0-4.25-2.55-6.9-6.65-6.9c-3.73,0-7.52,2.99-7.52,8.7
			c0,6.28,4.68,11.02,10.89,11.02c6.86,0,11.65-5.25,11.65-12.76c0-7.51-5.26-13.44-11.62-19.87c-6.52-6.58-11.91-12.68-11.91-20.57
			c0-8.1,5.2-13.76,12.65-13.76c6.78,0,11.89,5.17,11.89,12.02c0,6.37-4.28,9.7-8.52,9.7c-4.65,0-7.65-3.1-7.65-7.9
			c0-1.59,1.15-3.47,2.37-3.88l0.31,0.95c-0.74,0.24-1.69,1.71-1.69,2.93c0,4.25,2.55,6.9,6.65,6.9c3.74,0,7.52-2.99,7.52-8.7
			c0-6.28-4.68-11.02-10.89-11.02c-6.86,0-11.65,5.25-11.65,12.76c0,7.52,5.26,13.44,11.62,19.87c6.52,6.58,11.91,12.68,11.91,20.57
			C232.71,180.81,227.51,186.46,220.06,186.46z"/>
		<path class="st0" d="M220.74,170.14c-1.66-0.17-3.14,1.08-3.3,2.8c-0.17,1.72,1.04,3.26,2.7,3.43c1.66,0.17,3.14-1.08,3.3-2.8
			C223.61,171.85,222.4,170.31,220.74,170.14"/>
		<path class="st0" d="M220.44,176.77c-0.11,0-0.23-0.01-0.35-0.02c-1.86-0.19-3.22-1.92-3.03-3.84c0.09-0.96,0.54-1.81,1.27-2.4
			c0.69-0.57,1.56-0.83,2.44-0.74l0,0c1.86,0.19,3.22,1.92,3.03,3.84c-0.09,0.95-0.54,1.81-1.27,2.4
			C221.94,176.5,221.2,176.77,220.44,176.77z M220.44,170.5c-0.59,0-1.16,0.2-1.62,0.59c-0.57,0.47-0.93,1.14-1,1.9
			c-0.15,1.52,0.91,2.87,2.36,3.02c0.67,0.07,1.35-0.13,1.89-0.57c0.57-0.47,0.93-1.14,1-1.89c0.15-1.52-0.91-2.87-2.36-3.03l0,0
			C220.62,170.5,220.53,170.5,220.44,170.5z"/>
	</g>
	<rect x="208.17" y="132.26" class="st0" width="1" height="157.35"/>
	<path class="st0" d="M215.15,288.18c0.81,1.77,0.09,3.88-1.61,4.73c-0.46,0.23-0.95,0.33-1.43,0.34c0.39,1.6-0.35,3.32-1.84,4.06
		c-1.7,0.84-3.74,0.1-4.55-1.67c-0.33-0.72-0.4-1.5-0.26-2.22c-1.34,0.08-2.65-0.67-3.26-2.01c-0.81-1.77-0.09-3.88,1.61-4.73
		c1.7-0.84,3.74-0.1,4.55,1.67c0.19,0.41,0.28,0.84,0.32,1.27c0.03-1.29,0.73-2.51,1.93-3.1
		C212.3,285.66,214.34,286.41,215.15,288.18"/>
</g>
<circle class="st0" cx="353.54" cy="207.1" r="4.63"/>
<circle class="st0" cx="62.41" cy="207.1" r="4.63"/>
<path class="st1" d="M207.5,415C93.08,415,0,321.92,0,207.5S93.08,0,207.5,0S415,93.08,415,207.5S321.92,415,207.5,415z M207.5,1
	C93.64,1,1,93.64,1,207.5S93.64,414,207.5,414S414,321.36,414,207.5S321.36,1,207.5,1z"/>
<path class="st1" d="M207.5,410.63C95.49,410.63,4.37,319.51,4.37,207.5S95.49,4.37,207.5,4.37S410.63,95.49,410.63,207.5
	S319.51,410.63,207.5,410.63z M207.5,5.37C96.04,5.37,5.37,96.04,5.37,207.5c0,111.46,90.68,202.13,202.13,202.13
	c111.46,0,202.13-90.68,202.13-202.13C409.63,96.04,318.96,5.37,207.5,5.37z"/>
</svg>
