<svg enable-background="new 0 0 121.56 19.2" viewBox="0 0 121.56 19.2" xmlns="http://www.w3.org/2000/svg"><g fill="#b09559"><path d="m120.76 1.6c-.29-.14-.6-.16-.89-.11.03-.55-.27-1.1-.8-1.35-.7-.34-1.55-.04-1.88.67-.25.52-.15 1.1.19 1.52h-44.93s0 0-.01 0c0 0 0 0-.01 0h-16.8s0 0-.01 0c-3.41 0-5.79 2.28-5.79 5.53 0 2.97 2.19 5.22 5.09 5.22 2.73 0 4.17-1.92 4.17-3.82 0-2.1-1.35-3.46-3.45-3.46-.71 0-1.52.5-1.78 1.08-.01.01-.01.03-.02.04-.01.02-.03.05-.03.07-.12.27-.19.58-.15.89.05.47.27.88.64 1.18.31.26.7.39 1.1.39.06 0 .12 0 .18-.01.46-.05.88-.27 1.18-.63s.43-.82.39-1.28c-.01-.13-.04-.25-.08-.38.66.4 1.04 1.13 1.04 2.11 0 1.36-.99 2.82-3.17 2.82-2.37 0-4.09-1.77-4.09-4.22 0-2.26 1.48-4.53 4.78-4.53h.01c2.87 0 5.19 2.14 7.7 4.72 2.67 2.75 5.15 5.03 8.42 5.03 3.41 0 5.79-2.28 5.79-5.53 0-1.78-.79-3.28-2.05-4.22h41.82c-.08.09-.15.19-.2.3-.34.7-.04 1.55.67 1.88.7.34 1.55.04 1.88-.67.09-.19.13-.39.14-.59.64.16 1.32-.14 1.62-.76.33-.71.03-1.56-.67-1.89zm-44.22 5.94c0 2.26-1.48 4.53-4.79 4.53-2.88 0-5.19-2.14-7.7-4.72-1.6-1.64-3.13-3.11-4.8-4.03h10.32c-.85.73-1.29 1.78-1.29 2.82 0 2.1 1.35 3.46 3.45 3.46.71 0 1.52-.5 1.78-1.07.02-.03.03-.06.04-.09 0-.01.01-.02.01-.02.13-.28.18-.58.15-.89-.05-.47-.27-.89-.63-1.18s-.82-.43-1.28-.38c-.96.1-1.66.96-1.57 1.92.01.13.04.25.08.38-.66-.4-1.03-1.13-1.03-2.11 0-1.36.99-2.82 3.16-2.82h.01c2.33-.02 4.09 1.79 4.09 4.2z"/><path d="m42.7 5.59c.02-.3-.05-.6-.23-.86-.43-.65-1.31-.83-1.96-.4-.57.38-.78 1.1-.53 1.71-.2.03-.39.1-.57.22-.65.43-.83 1.31-.4 1.96s1.31.83 1.96.4c.18-.12.31-.28.41-.45.88 2.66.2 5.79-1.77 7.79-.45.46-.97.83-1.52 1.16.1-.29.16-.61.18-.95.08-1.59-.86-3.23-2.2-3.93-.04-.02-.08-.05-.12-.07-.03-.01-.05-.03-.08-.04v.01c-.16-.07-.33-.13-.52-.14-.47-.05-.92.09-1.28.38-.36.3-.59.71-.63 1.18s.09.92.39 1.28.71.59 1.18.63c.06.01.12.01.18.01.4 0 .79-.14 1.1-.39.25-.2.43-.47.54-.77.31.55.49 1.18.46 1.8-.03.54-.25 1.49-1.41 1.89-1.5.34-3.1.26-4.53-.32-1.81-.73-3.45-2.17-5.16-4.53-.49-.67-.94-1.36-1.4-2.05-.25-.43-.53-.84-.83-1.23-.62-.91-1.27-1.82-2.01-2.65-2.1-2.38-4.76-4.02-7.51-4.63-3.11-.7-6.34-.06-8.66 1.7-2.51 1.92-3.88 5.18-3.58 8.32-.46-.31-1.08-.33-1.57 0-.65.43-.83 1.31-.4 1.96.33.49.9.71 1.45.61-.02.29.05.6.23.86.43.65 1.31.83 1.96.4.57-.38.78-1.1.53-1.71.2-.03.39-.1.57-.22.65-.43.83-1.31.4-1.96s-1.31-.83-1.96-.4c-.09.06-.16.13-.24.21-.21-2.76 1.01-5.59 3.22-7.27 2.09-1.58 5.01-2.16 7.82-1.53 2.21.49 4.37 1.72 6.19 3.49-.46-.18-1.1-.36-1.81-.36-1.68 0-3.09.54-3.98 1.53-.99 1.1-1.32 2.6-.94 4.14.06.24.17.47.33.67.3.36.71.59 1.18.63.06.01.12.01.18.01.4 0 .79-.14 1.1-.39.36-.3.59-.71.63-1.18.05-.47-.09-.92-.39-1.28s-.71-.59-1.18-.63c-.33-.04-.64.03-.93.17.12-.54.37-1.04.75-1.46.94-1.04 2.43-1.2 3.23-1.2.91 0 1.71.4 1.97.53.9.46 1.81 1.25 2.57 2.23.26.38.52.76.77 1.14.48.72.96 1.44 1.46 2.14 1.83 2.52 3.61 4.07 5.6 4.87.99.4 2.06.59 3.13.59.69 0 1.38-.09 2.05-.25v.01c.02-.01.03-.01.05-.02 1.55-.37 3.01-1.14 4.14-2.28 2.12-2.15 2.93-5.46 2.15-8.36.41.15.88.12 1.27-.14.65-.43.83-1.31.4-1.96-.31-.51-.89-.73-1.43-.62z"/></g></svg>