<svg viewBox="0 0 187.84 15.42" xmlns="http://www.w3.org/2000/svg"><path d="m11.3 12.26h165.33a13 13 0 0 1 8.05-8.14v-4.12h-181.52v4.21a13 13 0 0 1 8.14 8.05z" fill="none"/><path d="m185.15 4.46-.16.06a12.47 12.47 0 0 0 -8 8.06l-.05.16h-165.94l-.06-.17a12.47 12.47 0 0 0 -8.06-8h-.16v-4.57h-1.28v5.48a12.63 12.63 0 0 1 5.12 2.68 10.9 10.9 0 0 1 3.44 5.84h167.9a12.44 12.44 0 0 1 2.68-5.12 10.9 10.9 0 0 1 5.82-3.45v-5.43h-1.25z" fill="none"/><g fill="#ae9359"><path d="m186.4 0v5.41a10.9 10.9 0 0 0 -5.82 3.45 12.44 12.44 0 0 0 -2.68 5.14h-167.9a10.9 10.9 0 0 0 -3.44-5.84 12.63 12.63 0 0 0 -5.12-2.68v-5.48h-1.44v6.63l.57.12a11.24 11.24 0 0 1 5 2.49 9.62 9.62 0 0 1 3.11 5.59l.11.59h170.26l.12-.57a11.24 11.24 0 0 1 2.49-5 9.58 9.58 0 0 1 5.59-3.11l.59-.11v-6.63z"/><path d="m2.84 4.6a12.47 12.47 0 0 1 8.06 8l.06.17h166.04l.05-.16a12.47 12.47 0 0 1 8-8.06l.16-.06v-4.49h-.47v4.12a13 13 0 0 0 -8.05 8.14h-165.39a13 13 0 0 0 -8.14-8v-4.26h-.48v4.55z"/></g></svg>