<svg viewBox="0 0 187.84 19.42" xmlns="http://www.w3.org/2000/svg"><path d="m181.28 7.26a10.84 10.84 0 0 1 -3.45-5.82h-167.89a12.63 12.63 0 0 1 -2.68 5.12 10.9 10.9 0 0 1 -5.82 3.44v9.41h1.24v-8.41l.17-.06a12.47 12.47 0 0 0 8-8.06v-.16h166l.06.17a12.47 12.47 0 0 0 8.05 8h.16v8.55h1.25v-9.5a12.56 12.56 0 0 1 -5.09-2.68z" fill="none"/><path d="m176.54 3.16h-165.33a13 13 0 0 1 -8 8.14v8.12h181.47v-8.21a13 13 0 0 1 -8.14-8.05z" fill="none"/><g fill="#ae9359"><path d="m1.44 10a10.9 10.9 0 0 0 5.82-3.44 12.63 12.63 0 0 0 2.68-5.12h167.89a10.84 10.84 0 0 0 3.45 5.82 12.56 12.56 0 0 0 5.12 2.68v9.48h1.44v-10.63l-.57-.12a11.24 11.24 0 0 1 -5-2.49 9.56 9.56 0 0 1 -3.15-5.59l-.12-.59h-170.21l-.12.57a11.24 11.24 0 0 1 -2.49 5 9.62 9.62 0 0 1 -5.59 3.15l-.59.11v10.59h1.44z"/><path d="m3.16 11.3a13 13 0 0 0 8.05-8.14h165.33a13 13 0 0 0 8.14 8.05v8.21h.47v-8.55h-.16a12.47 12.47 0 0 1 -8.05-8l-.06-.17h-166v.16a12.47 12.47 0 0 1 -8 8.06l-.2.08v8.46h.48z"/></g></svg>