<?xml version="1.0" encoding="utf-8"?>
<!-- Generator: Adobe Illustrator 24.0.3, SVG Export Plug-In . SVG Version: 6.00 Build 0)  -->
<svg version="1.1" id="Layer_1" xmlns="http://www.w3.org/2000/svg" xmlns:xlink="http://www.w3.org/1999/xlink" x="0px" y="0px"
	 viewBox="0 0 444.38 444.38" style="enable-background:new 0 0 444.38 444.38;" xml:space="preserve">
<style type="text/css">
	.st0{clip-path:url(#SVGID_2_);fill:#B29759;}
	.st1{clip-path:url(#SVGID_4_);fill:#B29759;}
</style>
<g>
	<defs>
		<rect id="SVGID_1_" x="0" y="0" width="444.38" height="444.38"/>
	</defs>
	<clipPath id="SVGID_2_">
		<use xlink:href="#SVGID_1_"  style="overflow:visible;"/>
	</clipPath>
	<path class="st0" d="M419.87,440.29H24.59l-0.25-1.37c-0.97-5.26-3.4-9.62-7.21-12.99c-4.03-3.55-8.59-5.1-11.71-5.77l-1.32-0.29
		V24.59l1.37-0.25c5.25-0.97,9.62-3.4,12.98-7.21c3.55-4.03,5.1-8.59,5.77-11.71L24.5,4.1h395.28l0.25,1.37
		c0.97,5.25,3.4,9.62,7.21,12.99c4.03,3.55,8.59,5.1,11.71,5.77l1.32,0.28v395.28l-1.37,0.25c-5.25,0.97-9.62,3.4-12.99,7.21
		c-3.55,4.03-5.1,8.59-5.77,11.71L419.87,440.29z M27.33,436.95h389.88c0.89-3.4,2.67-7.87,6.22-11.9c3.57-4.05,8.11-6.74,13.52-8
		V27.17c-3.41-0.89-7.88-2.67-11.9-6.22c-4.05-3.57-6.74-8.11-8-13.52H27.17c-0.89,3.41-2.67,7.87-6.22,11.9
		c-3.57,4.05-8.11,6.74-13.52,8V417.2c3.41,0.89,7.87,2.67,11.9,6.22C23.38,427,26.07,431.54,27.33,436.95z"/>
</g>
<g>
	<defs>
		<rect id="SVGID_3_" x="0" y="0" width="444.38" height="444.38"/>
	</defs>
	<clipPath id="SVGID_4_">
		<use xlink:href="#SVGID_3_"  style="overflow:visible;"/>
	</clipPath>
	<path class="st1" d="M415.04,434.05H29.54l-0.12-0.38c-2.92-8.81-9.56-15.38-18.71-18.51l-0.37-0.13V29.54l0.38-0.12
		c8.81-2.92,15.38-9.56,18.51-18.71l0.13-0.37h385.5l0.12,0.38c2.92,8.81,9.56,15.38,18.71,18.51l0.37,0.13v385.5l-0.38,0.12
		c-8.81,2.92-15.38,9.56-18.51,18.71L415.04,434.05z M30.33,432.95h383.93c3.24-9.16,9.86-15.85,18.7-18.9V30.13
		c-9.16-3.24-15.85-9.86-18.9-18.7H30.12c-3.24,9.16-9.86,15.86-18.7,18.9v383.92C20.59,417.5,27.28,424.12,30.33,432.95
		L30.33,432.95z"/>
</g>
</svg>
