<svg enable-background="new 0 0 267.15 259.44" viewBox="0 0 267.15 259.44" xmlns="http://www.w3.org/2000/svg"><path d="m93.3 5.05c.74.47 1.44 1.01 2.03 1.65.54.59 1.07 1.04 1.52 1.72.6.9 1.24 1.78 1.9 2.64.87 1.12 1.82 2.23 3.11 2.83.08.04.17.08.26.06.09-.01.17-.07.24-.13 1.37-1.23 1.22-2.36.53-3.42-.42-.64-1.03-1.25-1.63-1.84-1.67-1.64-3.47-3.2-5.63-4.15-1.15-.5-2.29-.61-3.5-.83-.18-.03-.37-.05-.52.04-.57.37 1.41 1.25 1.69 1.43z" fill="#b29759"/><path d="m97.9 29.33c.34-.6.68-1.2.84-1.87.1-.44.11-.76.53-1.02 1.55-.97 3.16-1.84 4.82-2.61.13-.06.27-.12.4-.07.19.07.24.32.26.52.26 2.98.19 5.98.12 8.97-.01.61-.03 1.23-.24 1.8-.38 1-1.3 1.68-2.23 2.2s-1.94.93-2.73 1.65c-.1.09-.21.23-.15.35.07.16.29.13.45.08 1.11-.36 2.19-.81 3.23-1.36 1.4-.74 2.71-1.64 4.01-2.54.4-.28.8-.55 1.14-.89 1.01-.99 1.45-2.43 2.36-3.51.05-.06.1-.11.15-.16.26.35.52.69.79.99 2.24 2.47 3.05 4.91 3.88 8.09 1.32 5.06-.73 10.72-2.28 15.52-.02.07-.03.13-.03.19-.04.19-.01.41.12.64.85 1.48 1.41 3.47 2.06 5.07.64 1.58.19 2.51-1.19 3.36-.6.37-1.13.71-1.69 1.11-1.95.92-4.17 1.84-5.36 3.66-.26.4.27.96.67.67 3.81-2.68 7.82-4 12.5-3.2 2.56.44 3.52 1.84 5.33 3.43 1.32 1.16 2.7 2.18 3.93 3.42-.1.04-.2.1-.29.17-2.3-.07-4.62.4-6.8 1.08-2.35.74-4.3 1.93-6.4 3.2-.22.13-.44.27-.61.46-.2.22-.3.51-.41.79-.27.72-.54 1.46-.48 2.23.06.66.37 1.27.67 1.87.28.55.57 1.11.85 1.66.18.36.37.72.47 1.12.12.48.1.99.08 1.48-.06 1.27-.07 2.54-.35 3.79-.28 1.24-.75 2.43-1.19 3.63-.52 1.43-1.32 3.18-2.41 4.25-.06.06-.13.12-.21.14-.14.03-.28-.09-.33-.23s-.03-.29-.01-.43c.2-1.78.27-3.77-.03-5.54-.19-1.14-.91-2.21-1.38-3.24-.25-.54-.53-1.11-.65-1.69-.08-.41.07-1.25-.19-1.58-.24-.31-.77-.38-1 .05-1.14 2.18.4 5.44.52 7.74.11 2.21-.05 4.43-.42 6.61-.35 2.03-.87 4.09-1.81 5.93-.08.15-.13.37.02.45.04.02.09.02.13.02 1.49.03 2.4-1.37 3.45-2.19 1.13-.89 2.29-1.73 3.45-2.59 2.27-1.69 4.52-3.43 6.37-5.58 1.03-1.19 1.82-2.53 2.71-3.81.98-1.41 1.87-2.89 2.67-4.41.85-1.61 1.59-3.27 2.5-4.84s1.99-3.07 3.41-4.21c.75-.61 1.99-1.16 2.33-2.11.68 1.11.29 2.85.04 4.03-.28 1.33-.74 2.61-1.04 3.93-.41 1.74-.8 3.73-.06 5.44 1.37 3.16 5.53 5.74 8.66 7.1.07.03.13 1.69.15 1.88.09.62.21 1.22.35 1.83.19.82.47 1.56.61 2.39.18.99.38 1.97.63 2.94.5 1.97 1.16 3.9 2.07 5.72.53 1.05 1.13 2.05 1.74 3.06.97 1.6 1.53 3.37 2.83 4.77.05.05.1.11.17.14.18.08.41-.05.49-.23.09-.18.08-.39.07-.59-.09-1.62-.29-3.28-.29-4.89 0-1.7.31-3.44.48-5.12.18-1.76.47-3.55 1.11-5.21.32-.84.74-1.67 1.34-2.35.56-.65 1.53-1.58 2.42-1.08.96.54 1.81 1.6 2.57 2.38 1.63 1.67 3.26 3.41 5.44 4.34 2.28.97 4.09 1.66 6 3.28 1.66 1.41 3.14 3.11 4.23 5-.06-.04-.12-.09-.17-.14l-.05.22c-1.01-.45-2.04-.85-2.98-1.45-1.43-.91-2.67-2.11-4.12-2.97-1.87-1.11-3.99-2.07-6.14-2.46-2.07-.37-3.91 1.38-4.14 3.43-.05.45-.03.91.02 1.37.29 2.79 1.5 5.37 2.83 7.81.6 1.09 1 1.64 2.04 2.27 1.22.74 2.5 1.23 3.91 1.51.71.15 1.43.25 2.16.31.92.09 1.41.09 1.28 1.14-.15 1.22-.06 2.52.04 3.74.17 2.1.93 4.32-.16 6.23-1.05 1.84-3 3.14-4.28 4.82-.83 1.09-1.53 2.36-2.25 3.53-1.55 2.52-2.76 4.31-1.47 7.19.65 1.45 1.69 2.69 2.54 4.02.83 1.31 1.5 2.41 2.87 3.21.56.33 1.35.03 1.51-.61.35-1.4-.52-2.27-1.16-3.49-.47-.9-.97-1.85-1.38-2.84 0-.08-.01-.16-.03-.24-.46-1.75-.4-3.52-.41-5.31.22-1.13.54-1.85 1.28-2.72 1.81-2.12 4.06-3.64 6.22-5.38 1.57-1.26 3.08-3.03 4.97-3.88.21.05.39.16.53.34.07.06.15.11.23.16-1.54 3.34-1.68 7.23-2.31 10.82-.42 2.41-.76 4.39-1.77 6.62-.62 1.35-1.13 2.75-1.26 4.25-.07.85-.02 1.49.64 2.09.43.39 1.1.52 1.6.79 1.44.78 2.13 2.01 3.11 3.22.71.87 1.58 1.65 2.51 2.27.49.32 1.01.62 1.58.79.46.14.81.15 1.1.56.41.58.53 1.67.72 2.36.2.74.22 1.53.23 2.3.02 1.02.03 2.04.05 3.06.03 1.97.39 4 .55 5.98.17 2.23.34 4.45.52 6.68.04.57-.12 1.38.15 1.92.46.93.76-.03.83-.56.54-4.26.52-8.91-.04-13.18-.15-1.18-.03-2.45.01-3.65.03-1.03.26-2.23.07-3.24-.34-1.83-.85-3.51-1.88-5.08-1.32-2.02-2.57-4.07-3.8-6.15-.61-1.04-1.22-2.08-1.82-3.12-.46-.8-1.21-1.69-1.33-2.64-.03-.29.01-.58.06-.87.25-1.42.72-2.83 1.33-4.13 1.71-3.66 3.82-7.16 5.8-10.68.97-1.72 2.2-3.36 2.86-5.23.68-1.94.75-4.06.78-6.1.03-2.25.04-4.52-.51-6.7-1.31-5.16-5.5-9.01-9.49-12.53-3.24-2.86-6.81-4.77-10.5-6.92-3.9-2.28-8.71-2.57-12.76-4.6-4.74-2.38-8.31-6.54-11.35-10.89-1.84-2.63-3.4-5.43-5.21-8.08-1.73-2.52-4.14-4.46-5.83-6.94-3.44-5.03-7.2-9.54-8.87-15.56-2.42-8.72-1.07-18.42-5.07-26.53-2.07-4.19-5.41-7.6-8.69-10.92-.63-.64-1.29-1.3-2.11-1.66-2.56-1.15-3.94 2.2-6.17 2.86-.63.19-1.57.72-2.15.84-2.56.55-4.37-2.08-6.85-1.73-1.36.19-2.28 1.38-2.98 2.46-.8 1.22-1.86 2.32-1.8 3.88.3.03.48-.31.63-.57.33-.54.89-.88 1.44-1.2 1.27-.73 2.59-1.43 4.02-1.74 1.1-.24 1.48.23 1.78 1.32.16.57.12 1.21-.2 1.7-.96 1.46-3.57.75-4.61 2.14.6.03 1.24.07 1.71.44.46.36.66.98.64 1.57-.01.59-.21 1.15-.41 1.7-.5 1.35-1.06 2.68-1.67 3.98-1.25 2.63-5.09 3.28-7.19 5.13-.3.27-.61.61-.59 1.01.01.27.18.51.38.69.48.43 1.17.55 1.81.5s1.26-.26 1.89-.41c1.8-.44 3.68-.44 5.53-.41 1.5-3.13 3.14-6.18 4.84-9.19z" fill="#b29759"/><path d="m81.11 85.95c-.58-.19-1.29.34-1.39.93-.05.33.07.65.12.98.14 1.04-.52 1.99-1.12 2.85-.32.46-.64.96-.67 1.52s.36 1.18.92 1.2c.86.03 1.99-.82 2.6-1.35.38-.33.8-.72 1.3-.69.16.01.24.06.37.15.57.42 1.14.82 1.71 1.22.56.39 1.17.92 1.81 1.18 1.19.48 2.35 1.05 3.61 1.35.66.16 1.34.27 2 .43 1.76.44 3.37 1.27 4.99 2.06.81.4 1.63.79 2.47 1.12.85.33 1.81.34 2.7.48.19.03.39.06.56 0 .18-.07.32-.27.25-.44-.03-.08-.1-.14-.17-.2-.57-.47-1.27-.71-1.88-1.14-1.71-1.19-3.44-2.34-5.2-3.46-1.18-.75-2.49-1.39-3.6-2.22-.42-.31-.77-.62-1.23-.89-.54-.32-1.07-.65-1.63-.94-.47-.24-.9-.64-1.33-.94-.47-.33-.95-.65-1.41-.99-.53-.39-1.06-.78-1.59-1.17-.37-.28-.82-.74-1.3-.82-.79-.14-.59.91-1.22.92-.75.06-1.02-.94-1.67-1.14z" fill="#b29759"/><path d="m174.67 169.04c-.46-.36-.93-.69-1.34-1.1-.64-.65-1.07-1.46-1.44-2.29-.31-.69-.78-1.26-1.13-1.95-.24-.46-.77-.33-1.07-.04-.5.49-.2 1.09.14 1.59 1.79 2.56 3.78 5.01 6.23 6.94.22.17.44.34.71.42h.02c.26.07.57.04.76-.15.05-.05.09-.11.1-.18.01-.09-.05-.18-.1-.26-.82-1.11-1.79-2.12-2.88-2.98z" fill="#b29759"/><path d="m135.08 212.23c-.29-.15-.13-.69-.03-.92.15-.34.33-.58.3-.99-.03-.32-.18-.61-.34-.89-.11-.2-.71-1.55-1.01-1.05-.54.9-.87 1.86-1.14 2.86-.17.6-.31 1.2-.41 1.82-.03.16-.05.34.04.48.18.26.61.15.88.15h1.55c.21 0 .43.05.64.02.35-.05.25-.22.3-.48.03-.17.11-.35.17-.51.04-.13.06-.23.02-.3-.04-.08-.13-.14-.3-.16-.21-.02-.47.07-.67-.03z" fill="#b29759"/><path d="m79.46 8.1c-1.12-.11-2.24-.26-3.36-.23-.43.01-2.02-.18-1.56.73.36.7 2.45.44 3.14.83.8.45 1.36.95 2.33 1.16.5.11.87-.09 1.16-.47.12-.16.14-.33.14-.52 0-.41-.18-.72-.46-.96-.38-.32-.94-.49-1.39-.54z" fill="#b29759"/><path d="m76.1 96.67c-2.27 2.7-3.25 5.53-3.61 9.01-.12 1.19-.21 2.38-.19 3.57.02 1.28.32 2.53.29 3.8 0 .22-.02.44-.09.65-.08.22-.22.4-.3.62-.16.43-.06 1.19.37 1.43.57.32 1.56-.58 2.06-.9.58-.37 1.43-1.11 1.39-1.87-.02-.39-.21-.76-.37-1.11-2.08-4.49-1.67-10.57 1.17-14.65.29-.41-.39-.94-.72-.55z" fill="#b29759"/><path d="m45.98 74.62c2.24-.78 4.61-1.43 6.97-1.51 1.26-.04 2.49-.2 3.77-.18 1.26.02 2.54.05 3.78-.2.7-.14 1.4-.33 2.03-.67.74-.41 1.35-1.02 1.95-1.62.73-.73 1.45-1.46 2.17-2.19.67-.68 1.07-1.1 1.97-.67.54.26 1.07.48 1.61.69.44.4.86.81.95 1.11.24.8-1.36.81-2.05.93-.5.09-.77.79-.49 1.2.7 1.01 1.57 1.76 2.3 2.73.33.44.6.93.94 1.37.36.47.79.88 1.22 1.29.48.44.97.88 1.47 1.3.09.07.19.15.3.11.1-.04.14-.17.14-.28.03-.5-.17-.97-.37-1.43-.55-1.26-1.1-2.52-1.65-3.78-.13-.3-.26-.64-.13-.94.25-.56.86-.39 1.31-.38.8.02 1.61-.09 2.41-.17 1.67-.16 3.34-.36 5-.63.19-.03.38-.07.55-.14.14-.06.27-.14.37-.25-.08-.29-.41-.41-.7-.49-2.09-.53-4.23-.4-6.24-1.14-1.73-.64-3.56-1.51-4.8-2.92-.13-.15-.26-.32-.44-.42-.17-.09-.37-.1-.57-.11-1.13-.03-2.27.08-3.38.31-1.02.22-1.37.63-2.07 1.28-.74.69-2 1.14-2.9 1.58-1.94.96-3.94 1.77-6 2.43-3.16 1.02-6.87 1.67-9.74 3.36-.11.06-.23.15-.21.28.06.23.35.22.53.15z" fill="#b29759"/><path d="m34.29 90.88c.73 0 .65-.6.89-1.24.13-.37.28-.73.45-1.09.1-.21.39-.52.38-.75-.03-.34-.44-.48-.67-.65-.53-.37-.36-1.01-.1-1.49.15-.29.35-.56.55-.8.35-.42.18-.74.08-1.24-.09-.43-.2-.84-.44-.92-.44-.13-1.21.71-1.47.97-.93.92-1.61 2.08-2.14 3.27-.35.78-1.11 2.01-.4 2.83.58.69 1.99 1.11 2.87 1.11z" fill="#b29759"/><path d="m200.07 226.62c-1.01.1-2.03.14-3.05.13-1.02 0-2.05-.05-3.08-.12-.89-.06-1.76-.15-2.64-.23-14.3 3.74-29.29-2.36-44.55-1.66-.35.02-.64-.06-.9-.18-.4.06-.76.11-1.01.14-.18.03-.33.05-.42.06-.88.14-1.75.23-2.62.29s-1.74.08-2.6.08c-3.45-.01-6.85-.42-10.27-.51-.86-.02-1.71-.03-2.57 0s-1.72.08-2.59.18c-.94.1-4.88.36-7.89.91-1.81.33-3.28.77-3.57 1.34-.06.12-.08.23-.05.34.14.52 1.32.82 2.88.99.31.03.64.06.98.09 2.37.18 5.24.15 6.8.18.45.01.78.02.97.05 4.68.63 9.44 1.11 14.21 1.42s9.56.47 14.29.46c1.37 0 2.71-.07 4.06-.11 4.06-.11 8.08-.32 12.15-.53 1.22-.06 2.44-.07 3.66-.07s2.44 0 3.66-.05c.56-.02 1.5-.17 2.42-.19.92-.03 1.83.06 2.32.5.38.34.58.66.64.95.05.29-.04.55-.24.79s-.51.45-.88.65c-.57.29-1.29.53-2.05.73-1.76.46-3.69.68-4.18.76-1.69.27-3.4.48-5.11.65-3.43.33-6.9.49-10.35.63-1.73.07-3.45.14-5.15.22-.55.03-1.13.03-1.73.03s-1.22-.02-1.84-.03c-1.26-.03-2.56-.07-3.84-.05-1.29.02-2.56.09-3.76.29-.6.1-1.18.23-1.74.4-.55.17-1.08.38-1.58.63.21.24.45.43.72.59s.57.28.89.37c.64.18 1.35.25 2.09.25.37 0 .74-.01 1.11-.02.74-.03 1.47-.09 2.12-.12.33-.01.64-.02.92 0 .84.04 1.7.09 2.55.13 2.55.13 5.12.29 7.61.63 2.64.36 5.26.56 7.87.6 7.8.12 15.43-1.17 22.97-3.66 1.55-.51 4.27-.55 5.38-1.76-.62-.26-1.38-.29-2.15-.31s-1.56-.03-2.24-.23c-.23-.07-.45-.16-.65-.28s-.39-.27-.56-.46c.91-.98 2.76-1.37 4.71-1.62.98-.12 1.98-.21 2.89-.31.92-.11 1.76-.23 2.41-.43.26-.08.58-.17.94-.26.72-.19 1.61-.42 2.51-.69 2.27-.68 4.67-1.64 4.97-3.09-.48-.06-.97-.07-1.46-.05-1.47.07-2.95.43-4.38.56z" fill="#b29759"/><g fill="#84662b"><path d="m215.64 163.94c0 .01.01.03.01.04.03-.01.07-.02.1-.04-.03-.01-.07 0-.11 0z"/><path d="m215.58 163.77c-.06.08-.12.16-.18.24h.04.04c.05-.03.1-.05.15-.06-.03-.11-.05-.18-.05-.18z"/><path d="m163.03 193.53c.76.06 1.52.16 2.28.32 2.06.44 4.31 1.06 6.43.79.77-.1 2.55.07 3.04-.58.28-.37.35-.85.42-1.31.34-2.38.65-4.77 1.02-7.14.21-1.4 1.1-3.41-.78-4.16-1.11-.44-2.02 1.09-2.22 1.98-.09.39-.17.8-.4 1.13-.69 1.03-3.28 1.13-4.12.32-.13-.13-.25-.27-.41-.37-.32-.19-.71-.11-1.07-.04-.4-1.1-.88-2.31-1.94-2.81-.17-.08-.35-.14-.45-.3-.06-.1-.08-.23-.09-.35-.03-.39-.07-.78-.1-1.16-.03-.33-.06-.66-.21-.96-.15-.29-.44-.54-.77-.52-.38.02-.66.35-.86.67-1.19 1.78-.73 3.77-1.48 5.67-1.01 2.56-2.06 5.1-3.09 7.65-.1.25-.2.55-.05.78.15.21.44.24.7.25 1.39.04 2.78.03 4.15.14z"/><path d="m186.41 217.24c0-.01 0-.02-.01-.02v.17c0-.05.01-.1.01-.15z"/><path d="m256.97 110.88c-.22-.07-2.19-.31-2.16-.16-.13-.67-.57-1.26-1.17-1.58s-1.34-.35-1.96-.09c-.53-2.46-3.23-3.15-5.36-2.15-1.13.54-1.8 1.44-3.01 1.89-1.27.47-1.74.55-3.04-.01-2.18-.94-3.66-1.2-5.64-.53-1.38-1.61-3.13-2.75-5.43-2.35-1.5.26-3.01 1.12-3.75 2.49-.28.52-.24 1.19-.67 1.61-.62.6-1.6.39-2.36.51-.43.07-.36.66-.02.79.86.32 1.62.34 2.52.35 1 .01 1.98.29 2.99.21.45-.04.91-.14 1.36-.1.61.06 1.15.4 1.76.43.55.02 1.15-.04 1.72-.02 1.4.05 2.79-.03 4.19-.03 3.33-.01 6.56-.3 9.87-.44.86-.04 1.71.08 2.57.15 1.54.13 3.1.16 4.65.14.82-.01 2.96.11 3.59-.5.34-.33.1-.42-.23-.49-.16-.05-.3-.08-.42-.12z"/><path d="m152.36 14.82c2.3.04 4.61 0 6.9-.2 1.27-.11 2.54-.28 3.82-.22 4.91.21 9.7.64 14.65.66 2.07.01 4.15.12 6.22.05.85-.03 1.73.06 2.55.03.9-.04 1.71-.55 2.61-.64.67-.07 1.35.09 2.02.15 1.49.12 2.95-.3 4.43-.31 1.33-.01 2.46-.05 3.74-.52.51-.19.61-1.07-.02-1.17-1.13-.17-2.59.13-3.51-.76-.65-.63-.58-1.61-1-2.39-1.1-2.03-3.34-3.31-5.57-3.69-3.42-.59-6.03 1.11-8.07 3.5-2.93-1-5.13-.6-8.37.79-1.94.83-2.63.72-4.52.01-1.8-.67-2.79-2.01-4.48-2.8-3.16-1.49-7.17-.47-7.96 3.19-.93-.39-2.03-.34-2.92.13s-1.54 1.36-1.73 2.35c.04-.22-2.88.13-3.21.24-.18.06-.39.1-.58.15-.48.11-.84.24-.34.73.93.87 4.12.7 5.34.72z"/><path d="m266.4 99.84c-.44-.07-.9.03-1.32-.13-.46-.17-.81-.66-1.3-.65-.2 0-.39.09-.59.13-.61.11-1.17-.29-1.7-.61-.79-.47-1.82-.78-2.59-.28-.13.08-.28.19-.41.12-.07-.04-.11-.12-.15-.19-.36-.75-.79-.93-1.33-1.06-.25-.07-.53-.12-.84-.23-1.51-.52-3.34-.21-4.91-.61-1.19-.3-2.39-.78-3.59-.98-2.29-.39-3.99 1.19-6.14.88-.65-.09-1.41-.58-2.07-.73-1.09-.26-2.31-.05-3.38-.38-2.09-.65-3.39-3.18-5.2-4.55-1.73-1.31-3.61-2.36-5.78-2.65-.96-.13-1.87-.09-2.84.01-.52.06-2.33.8-2.51.75-.47.62-.57.49-.3-.4-.04-.49-.15-.97-.31-1.44-.25-.6-.56-1.03-1.1-1.44-.59-.45-1.12-.58-1.92-.71.02-.04.03-.09.04-.14.52-3.5-2.65-6.87-5.71-8.06-1.63-.64-3.16-.72-4.78-.05-2.02.83-3.24 3.21-5.66 2.24-1.33-.53-1.9-1.14-3.47-1.25-1.43-.11-1.72.39-2.99-.7-.56-.48-.89-1.12-1.5-1.57-2.97-2.19-6.62-1.21-9.28.87-.27-.45-.56-.89-.99-1.24-.5-.4-1.18-.42-1.64-.75-.8-.57-.48-.11-.79-1.16-.38-1.28-.47-2.44-1.17-3.64-1.33-2.28-3.68-4.03-6.34-4.35 1.36-1.08 3.28-1.13 4.98-.78s3.33 1.05 5.05 1.29c1.69.24 3.4.03 5.1-.11 4.36-.35 8.74-.21 13.1.04 1.81.1 3.42.33 5.11-.42.88-.39 1.05-.71 2.19-.67.95.03 1.84.46 2.83.46 2.47 0 4.84-1 7.32-1.24 1.94.71 3.23 1.26 5.34.77 1.76-.4 3.57-.35 5.36-.23.9.06 1.81.14 2.71.19.3.02 1.41.29 1.59-.08.14-.31-.21-.49-.42-.59-.56-.26-1.27-.03-1.84-.21-1.85-.57-3.66-1.43-5.7-1.3-1.98.13-3.76-.45-5.66-.47-.17-.27-.46-.47-.88-.52-.12-.01-.24-.04-.36-.04-.84-.61-1.24-1.48-2.41-1.91-1.18-.44-1.33.12-2.83-.66-.51-.27-.93-.68-1.44-.94-1.53-.77-3.77-1.61-5.51-1.56-1.58.04-3.08.57-4.65.74-1.41.15-2.82-.32-4.17-.63-.11-.02-.21-.05-.3-.11-.28-.19-.26-.61-.4-.92-.24-.5-1.05-.58-1.38-.14.17-.56-.14-1.19-.64-1.48-.51-.29-1.16-.25-1.68.01.46-1.42-.29-3.13-1.65-3.75-.79-.36-1.72-.33-2.51.01-.39.17-.76.41-1.05.73-.19.2-.37.74-.62.85-.15.07-.6-.19-.74-.23-.27-.07-.52-.17-.77-.28.4-1.16 1.13-2.13.87-3.56-.26-1.38-1.18-2.43-2.27-3.25-1.44-1.07-3.34-1.81-5.07-2.22-1.51-.36-3.25-.72-4.79-.38.01-1.17-.05-2.51-.94-3.27-.59-.51-1.47-.64-2.22-.43-.76.21-1.41.72-1.9 1.33-.1-2.72-1.49-5.41-3.86-6.8-2.22-1.3-4.92-1.5-7.43-1.52-3.74-.03-8.3.97-11.09 3.69-1.31 1.28-1.1 2.8-.4 4.29.5 1.06 1.25 2.11 1.85 3.03.71 1.07 1.63 3.29 1.55 4.55-1.26.24-3.81-2.39-4.41-2.03-.84.51 1.23 3.6 1.42 4.26.38 1.37.56 3.32 1.44 4.47.75.98 1.75 1.32 2.95 1.26.8-.04 2.72-1.16 3.39-.8 1.64.88-.09 6.57-.84 7.76-1.68 2.67-3.1 2.77-5.8 2.14.47 1.4 1.06 2.37 1.74 3.57.97 1.69.92 3.62 1.01 5.52.07 1.45-.41 3.31.4 4.64.87 1.43 2.39 1.46 2.55 3.34.13 1.51-.55 2.46-2.1 2.61-.12 1.87 3.88 3.28 5.26 4.01 2.88 1.5 5.73 2.74 8.85 3.79 3.74 1.26 6.87 2.81 10.16 5.14 2.14 1.52 3.39 3.85 5.27 5.57 1.42 1.3 3.94 1.24 5.75 1.38 2.66.21 5.25-.47 7.9-.47 4.4-.29 8.79.4 13.19.23 3.02-.11 5.77-1.34 8.74-1.59 3-.25 6.17-.53 9.15-.02 2.26.39 4.11 1.18 6.44 1.23 3.37.07 6.73.09 10.1.01 1.57-.04 3.26.07 4.81-.13 1.36-.17 2.47-.93 3.84-1.19.78-.15 1.59-.1 2.39-.05 2.39.16 4.77.22 7.17.22 2.07.01 4.14.05 6.21.03.35 0 .77-.05.92-.36.18-.37-.27-.8-.71-.87z"/><path d="m215.49 164.01c.05 0 .11 0 .16-.02 0-.01-.01-.03-.01-.04-.05 0-.1.03-.15.06z"/><path d="m190.03 124.25c1.74.77 3.4 1.72 4.92 2.85.5.37.99.76 1.53 1.06 1.95 1.08 4.45.35 6.12 1.71 1.54 1.25 2.78 3.32 1.8 5.3-.4.8-1.06 1.45-1.79 1.97-.02.2.26.26.46.24 2.49-.27 4.65-1.51 4.88-4.19.1-1.17-.01-2.31-.34-3.44-.13-.44-1.14-2.13-.11-1.75.33.12.65.56.87.82.65.79 1.56 1.73 1.81 2.73.33 1.34.4 2.77.19 4.13-.25 1.61-.94 3.18-2.07 4.36-1.71 1.78-4.28 2.54-6.74 2.51-1.51-.02-3.15-.38-4.1-1.55.09.11.06.64.08.8.05.3.12.59.21.87.18.57.44 1.12.76 1.62.54.83 1.2 1.68 2.11 2.08.26.12.51.25.75.4-.41.41-.88.68-1.36.99-.54.36-1.09.7-1.66 1-1.32.71-2.89.87-4.38.67-.71-.1-1.43-.31-1.95-.8-.94-.88-.69-2.84.68-3.17.24-.06.53-.01.69.19.15.19.14.47.12.71.29-.13.44-.48.46-.8.01-.16-.02-.32-.09-.46-.33-.66-1.03-.66-1.65-.47-1.02.3-1.93 1.03-2.37 2-.55 1.22-.21 3.05.87 3.86 1.96 1.46 4.56 1.87 6.97 1.52 1.88-.27 3.76-.85 5.49-1.69.52-.25 1.04-.46 1.56-.68.21-.09.48-.12.63.05.15.16.1.42.02.63-.31.75-.92 1.33-1.51 1.89-.62.58-1.29 1.19-2.12 1.39-.57.14-1.76.4-.8 1.01.63.41 1.26.35 1.95.49.71.14.27.67-.03 1.15-.79 1.27-1.87 1.87-3.08 2.67-1.32.87-2.69 1.65-4.1 2.38-1.59.83-2.91 2.2-3.7 3.81-.55 1.12-.85 2.57-.95 3.8-.02.27 0 1.86.48 1.21.23-.31.14-1.21.26-1.62.16-.54.42-1.05.76-1.5 2.31-3 6.12-1.17 9.21-1.67.66-.11 1.3-.26 1.93-.49.27-.1 1.21-.67 1.04.11-.05.23-.49.46-.65.62-.33.35-.61.76-.94 1.11-1.8 1.9-3.94 3.5-5.61 5.52-1.68 2.04-2.61 4.62-3.02 7.2-.44 2.74-.65 5.86.16 8.55.24.81.6 1.58 1.08 2.28.2.3 1.13 1.54 1.56 1.34.28-.13-.23-1.06-.3-1.33-.18-.72-.35-1.44-.51-2.17-.9-4.11.32-8.81 3.06-12.03 2.07-2.43 4.7-4.15 7.44-5.74 1.52-.88 3.17-1.59 4.62-2.62.77-.55 1.49-1.16 2.16-1.82.26-.25 1.17-1.54 1.69-1.86-.01 0-.03 0-.04 0h-.04c.06-.08.12-.16.18-.24 0 0 .02.07.05.18.04-.01.08-.01.11 0-.03.02-.06.03-.1.04.09.29.26.77.27.86.04.43-.01.87-.14 1.28-.31.93-.87 1.26-1.69 1.68-.14.07-.31.19-.27.35.03.13.19.17.33.19 1 .1 2.01-.27 2.83-.86 1.43-1.03 2.45-2.51 3.16-4.11.37-.83.66-1.69.89-2.56.11-.42.21-.84.3-1.27.1-.46.34-.7.52-1.13.05-.12.1-.26.19-.36s.25-.15.37-.08c.05.03.09.09.12.14.85 1.38.7 3.22.53 4.77-.17 1.65-.55 3.37-1.54 4.74-1.64 2.25-3.9 3.44-6.34 4.63-1.86.91-3.78 2.16-4.43 4.12-.08.25-.15.52-.07.78.08.25.33.47.59.41.28-1.31 1.07-2.51 2.18-3.27 1.43-.99 3.22-1.21 4.87-1.74 5.19-1.68 7.37-6.43 9.15-11.13.44-1.16.85-2.33 1.22-3.52.52-1.69.96-3.41 1.24-5.16.29-1.76.25-3.48.36-5.25.19-3.12-.94-6.39-2.42-9.1-.28-.5-.56-1-.86-1.49-.24-.41-.72-.93-.84-1.38-.2-.75.9 0 1.21.26.62.54 1.3 1.01 2.01 1.42.64.36 1.32.67 2.04.78 1.14.16 2.32-.28 3.15-1.06.82-.78 1.6-1.96 1.05-3.09-.04.36-.44.83-.74 1.02-.03.02-.07.04-.1.06-.41.23-.9.3-1.37.28-1.65-.08-3.08-1.25-4.01-2.62s-1.5-2.95-2.28-4.41c-.57-1.07-1.26-2.07-2.05-2.99-.4-.46-.82-.9-1.26-1.31-.32-.3-.94-.59-1.16-.94-.3-.48.43-.31.69-.33.98-.08 2.04-.55 2.54-1.43.18-.31.62-1.09.62-1.45-.01-.6-.5-.16-.88-.1-1.59.26-3.51-.61-4.92-1.28-1.46-.7-2.85-1.55-4.32-2.24-3.29-1.54-6.93-2.22-10.56-2.34.49-.8 1.13-1.21 2.04-1.47.46-.13.98.19 1.45.03-.07-.41-.79-.92-1.15-1.14-1-.6-2.24-.4-3.35-.35-1.8.08-3.55.61-5.19 1.3-1.31.55-2.59 1.22-3.97 1.55-1.01.24-2.05.31-3.09.3-1.93-.02-3.79-.28-5.62-.89-.17-.06-.34-.12-.5-.19.06.09.12.18.18.27 1.99 3.29 2.88 7.31 3.41 11.09z"/><path d="m105.3 10.22c.12.12.24.24.39.32.14.07.29.09.44.11 1.56.27 2.82 1.5 4.01 2.49 1.44 1.2 2.71 2.6 3.93 4.02 3.17 3.68 5.46 8.39 7.31 12.87.86 2.07.67 4.06.82 6.27.2 2.83.61 5.67.91 8.49.6 5.62 2.23 11.27 5.26 16.06.03.04.05.09.07.13 2.56 2.53 5.34 4.84 7.79 7.48 2.39 2.57 3.96 5.57 5.63 8.58.79.51 1.52 1.12 2.3 1.65.16.11.32.22.49.32.94.57 1.98.98 3.05 1.21.54.12 1.12.21 1.68.21.18 0 .3-.04.44-.14.31-.21-.06-.29-.27-.39-.56-.24-1.14-.45-1.63-.81-.37-.27-.75-.61-1.05-.95-.21-.24-.36-.53-.52-.81-.18-.31-.33-.65-.46-.98-.35-.88-.47-1.79-.77-2.68-.35-1.01-.82-1.99-1.4-2.89-.28-.44-.58-.93-.95-1.29-.1-.1-.68-.71-.38-.85.12-.06.37-.02.49-.01.16.01.31.04.46.07.3.07.58.2.85.35.55.3 1.11.63 1.53 1.11.2.23.42.5.43.81.01.18-.02.37-.09.54-.02.06-.18.29-.13.35.05.07.4-.21.44-.25.27-.25.52-.49.66-.84.48-1.21.14-2.46-.41-3.58-.49-.98-1.1-1.91-1.82-2.74-.5-.58-1.05-1.12-1.49-1.74-.37-.52-.7-1.18-.73-1.83 0-.1.1-.17.2-.14.61.2 1.33.27 1.45.27.63.04 1.27.04 1.9-.02 1.25-.11 2.49-.44 3.55-1.11 1.01-.64 1.88-1.67 1.9-2.87 0-.11-.03-.24-.13-.27-.05-.01-.1.01-.15.03-.7.3-1.38.71-2.18.71-1.98.18-3.9-.78-4.92-2.65-.86-1.59-1.24-3.6-1.68-5.35-.49-1.92-.76-3.95-1.43-5.82-.27-.74-.69-1.42-1.13-2.07-.22-.33-.45-.66-.66-1-.35-.56.46-.2.74-.1.71.26 1.37.62 2.07.9.52.21 1.07.38 1.63.43.24.02.45.01.67-.05.27-.07.24-.22.09-.38-.5-.52-1.08-1.55-1.35-2.22l-.5-1.23c-.46-1.13-1.07-2.08-1.78-3.07-.68-.94-1.5-1.77-2.45-2.43-1.34-.93-2.85-1.57-4.1-2.64-.33-.28-1-.73-1.18-1.14-.3-.7-.01-1.14.68-1.35.45-.14.91-.21 1.36-.34s.75-.39 1.15-.61c.12-.06.24-.14.28-.26.02-.06.02-.14-.03-.18-.03-.03-.07-.03-.11-.04-.29-.04-.61-.02-.89-.08-.25-.06-.53-.18-.77-.28-.21-.09-.37-.19-.54-.32-.12-.09-.42-.32-.58-.32.78-.02 1.48-.35 2.16-.71.64-.33 1.2-.79 1.65-1.35.13-.16.25-.4.11-.55-.13-.14-.35-.08-.53-.02-.7.23-1.46.23-2.16.03-.65-.19-1.14-.58-1.69-.95-.57-.39-1.11-.8-1.64-1.24-1.08-.91-2.03-1.96-2.84-3.12-.84-1.21-1.48-2.56-2.32-3.77-.42-.6-.92-1.15-1.41-1.69-.21-.23-1.14-1.03-.37-1.06.21-.01.43-.07.64-.03.86.15 1.56.69 2.12 1.35.46.54.87 1.77 1.53 1.91.21.05-.22-1.77-.26-1.9-.23-.71-.57-1.37-.98-1.99-.81-1.23-1.87-2.26-3.01-3.18-1.44-1.15-2.8-2.1-4.56-2.75-1.71-.62-3.62-.99-5.42-.57-.14.03-.33.05-.4-.08-.04-.07-.02-.16 0-.23.05-.17.3-.62.17-.71-.14-.1-.47.06-.59.13-.36.2-.62.56-.89.84-.35.36-1.1 1.12-1.6 1.16-.21.02-.43-.04-.64-.1-.27-.08-.56-.19-.71-.43-.11-.18-.13-.4-.13-.61 0-.48.04-.96.22-1.41.24-.6.66-1.1 1.15-1.5.06-.04.11-.1.12-.17.02-.17-.24-.2-.41-.16-1.71.44-2.81 1.01-4.06 2.24-.9.89-1.91 2.03-3.05 2.6-.78.39-1.7.56-2.57.59-.48.02-.96-.17-1.44-.21 1.55 1.2 2.98 2.73 4.34 3.97.38.34.74.67 1.08 1.01z"/><path d="m29.45 92.24c2.36 1.71 5.23 2.54 8.13 2.65 1.46.06 2.92-.06 4.35-.31.55-.1 1.09-.26 1.63-.38.46-.1.81-.32 1.27-.42.26-.06.49-.19.73-.31.03-.02.07-.04.09-.07.16-.22.13-.75.14-1.01.03-2.08-.35-4.17-1.11-6.11-.14-.35-.29-.7-.53-.99-.52-.62-1.13-.89-1.01-1.76 0-.04 0-.08 0-.12 1.11.73 2.62 1.15 3.6 1.27.86.11 1.3-1.08 1.7-1.62.56-.75 1.5-1.22 2.33-1.63 1.78-.88 3.71-1.41 5.63-1.9 2.72-.69 6.24-.6 8.55-2.4.18.15.37.3.51.45.88.95 1.59 2.04 2.32 3.1 1.62 2.34 3.6 4.62 6.18 5.9-1.1 1.39-2.1 1.71-3.78 2.13-.15.04-.31.08-.43.19s-.17.27-.22.43c-.36 1.11-.97 2.31-.86 3.49.1 1.09.61 2.14.5 3.25-.14 1.45-.58 2.94-.86 4.37-.54 2.78-1.23 5.4-2.28 8.04-.87 2.19-2.68 3.77-3.25 6.13-1.11 4.58 4.34 6.19 6.57 9.24 2.52 3.44 4.83 6.67 9.31 7.37.74.12 1.15-.19 1.59-.77 1.3-1.71 1.9-3.88 2.06-6.02.12-1.62 0-3.24-.18-4.85-.15-1.38-.11-2.58-.61-3.92-.03-.07-.06-.15-.13-.18-.06-.03-.13-.01-.19.01-1.43.44-2.79 1.07-4.25 1.45-.61.16-1.69.6-2.3.37.45-.55 1.02-1.3 1.57-1.77.32-.27.72-.4 1.02-.68.73-.68.62-1.76.26-2.6-.64-1.49-1.5-2.64-1.61-4.29-.13-1.79.05-3.59.69-5.28.96-2.52 2.49-4.6 4.69-6.02.74 1.81 1.62 3.62 3.01 4.98 1.45 1.4 3.35 2.63 5.27 3.56.41 1.2 1.34 1.97 2.18 3.07 1.36 1.78 2.39 3.85 3.7 5.68 2.36 3.3 5.31 5.01 9.1 6.35 4.67 1.65 9.21 3.46 13.82 5.27 4.14 1.62 8.74 2.8 12.32 5.45.06 1.57.67 3.08.81 4.68.24 2.77.15 5.56.57 8.32.37 2.45 1.09 4.93 2.73 6.84.81.94 1.84 1.63 2.74 2.47 1.34 1.26 1.81 2.65 2.3 4.36.78 2.71 1.54 5.48 2.58 8.1.89 2.25 2.39 4.16 3.53 6.27 1.32 2.43 1.1 3.66.55 6.37-1.06 5.16-2.38 10.27-3.95 15.29-.83 2.66-1.5 6.62-3.31 8.75-1.69 1.99-4.5 2.76-6.33 4.63-.44.45-.74 1.01-1.01 1.58-.87 1.86-1.35 3.71-1.37 5.75v.12c-.01.72.01 1.06.77 1.13.73.07 1.5.01 2.24.02 1.39.02 2.79.04 4.18.04 1.17 0 2.39-.09 3.56.05 1.2.15 2.3-.25 2.7-1.28.1-.25.17-.54.17-.87.01-.67-.13-1.34-.09-2.01.07-1.11.43-.81 1.38-1.12 2.39-.76 1.81-3.51 2.1-5.44.44-2.95 2.62-6.09 3.93-8.79 2.21-4.6 4.43-9.19 6.64-13.79.95-1.97 1.78-4.07 2.86-5.97.84-1.49 2.35-2.71 2.03-4.6-.35-2.07-2.08-3.67-2.92-5.49-.74-1.6.89-4.87 2.86-3.63.88.55 1.44 1.92 2 2.76.72 1.09 1.46 2.17 2.34 3.14 1.87 2.08 4.17 3.77 6.14 5.77 1.38 1.39 2.91 2.61 4.32 3.97.72.69 1.29 1.17 1.54 2.11 1.44 5.4-.3 11.52-1.03 16.94-.5 3.77-.82 7.45-2.09 11-.3.85-1.3 2.41-1.22 3.29.02.19.86 1.7 1.07 1.62-.63.27-1.25.8-1.74 1.19-.59.47-1.13.73-1.54 1.41-.59.98-.63 2.03-.86 3.12-.01.03-.01.07-.01.1-.03.39.26.7.58.79.11.12.27.19.48.19 3.8-.01 7.58-.17 11.37-.32.13.04.27.06.42.03.57-.11.97-.39 1.25-.77.24-.34.38-.77.45-1.25.01-.07.02-.14.03-.22.01-.09.01-.18.02-.27 0-.06 0-.11 0-.17.03-1.81-1.71-3.39-.36-5.04.77-.94 2.28-1.41 2.59-2.66.16-.63.08-1.3 0-1.95-.46-3.86-.79-7.52-.77-11.39.02-4.01.13-8.01.18-12.02.03-3 .13-6.01.1-9.01-.03-2.53.51-5.07.38-7.61-.14-2.84-2.32-4.67-4.21-6.52-2.67-2.6-3.3-5.73-4.04-9.1-.07-1.95 1.88-3.17 3.07-4.48 1.19-1.3 2.26-2.75 3.13-4.28.99-1.74 2.19-3.81 3-5.93.04-.06.07-.13.09-.2.7-2.13 1.49-3.91 1.31-6.2-.18-2.15-.55-4.31-.84-6.45-.01-.06-.02-.11-.03-.17-.52-3.78-1.42-7.8-3.42-11.1-.06-.09-.12-.18-.18-.27-2.29-3.57-6.11-6.05-9.07-9.03-3.19-3.21-6.09-6.76-10.15-8.92-4.03-2.14-8.55-3.12-12.61-5.19-4.5-2.29-8.6-5.73-11.22-10.07-.53-.87-1.02-1.75-1.51-2.63-1.66-3.01-3.24-6.01-5.63-8.58-2.45-2.64-5.23-4.95-7.79-7.48-.02-.04-.04-.09-.07-.13-3.04-4.79-4.67-10.44-5.26-16.06-.3-2.82-.71-5.67-.91-8.49-.15-2.2.03-4.19-.82-6.27-1.85-4.48-4.14-9.19-7.31-12.87-1.22-1.42-2.48-2.82-3.93-4.02-1.19-.99-2.46-2.22-4.01-2.49-.15-.03-.3-.05-.44-.11-.15-.07-.27-.2-.39-.32-.35-.35-.71-.68-1.07-1.01-1.35-1.24-2.79-2.77-4.34-3.97-.69-.53-1.4-1.01-2.14-1.35-2.36-1.1-4.55-1.73-7.19-1.75-1.31-.01-.76 1.65-.31 2.3.39.56.91 1.04 1.24 1.63-.57.28-1.29.56-1.93.33-.23-.08-.44-.23-.65-.35-1.16-.69-2.66-1.32-3.97-.88-.25.09-.51.19-.71.36-.34.29-.5.79-.38 1.23.06.21.17.4.32.55.1.1.26.24.4.26.13.02.12-.07.1-.17-.04-.16-.06-.31 0-.47.08-.23.3-.42.55-.43.27-.01.51.19.62.44s.12.52.1.79c-.06.83-.58 1.51-.66 2.3.02-.15-1.98-1.61-2.24-1.77-.9-.55-1.92-.91-2.95-1.14-2.03-.44-4.27-.41-6.25.26-.6.23-1.12 1.04-.66 1.64 1.14 1.5 2.95 2.46 3.99 4 .38.56.72 1.25 1.28 1.65.31.22 1.18.27 1.33.66.14.38-.81 1.52-1.01 1.93-.33.69-.59 1.42-.75 2.17-.26 1.18.28 2.41.24 3.59-.07 1.95-1.57 3.17-2.73 4.55-1.52 1.81-2.42 3.84-3.56 5.88-1.49 2.66-3.28 6.24-6 7.76-3.37.57-4.96 4.35-3.46 7.35.45.9 1.25 1.49 1.65 2.43.35.83.18 1.83.62 2.62.88 1.59 3.17 1.73 4.74 1.67 4.3-.17 9.12.09 12.15-3.53.45-.54.86-1.09 1.09-1.77.45-1.29.43-1.67 1.82-2.14 2.43-.83 5.08-1.58 7.62-2.09-.26 2.37-.15 4.84-1.24 6.99-1.02 2.01-2.04 4.02-3.07 6.03-.8 1.57-1.68 3.07-1.87 4.85-.14 1.27.03 2.54.31 3.79-2.12-.14-4.22-.44-6.33-.62-1.7-.15-3.9.28-5.41-.6-.53-.31-1.04-.64-1.55-1-.97-.69-1.92-1.43-3.01-1.92-.29-.13-.6-.25-.91-.3-.29-.05-.59-.04-.89-.03-.6.02-1.2.04-1.81.06-1.19.04-1.96.89-2.75 1.7-2.09 2.14-3.96 3.16-6.78 4.16-4.54 1.61-9.12 3.2-13.95 3.55-1.93.14-4.15.17-5.76 1.38-1.49 1.13-1.63 3.33-1.96 5.02-.12.65-.22 1.3-.2 1.94-.11.05-.22.11-.32.2-3.23 2.73-5.26 6.53-5.5 10.79 0 .09-.01.17.03.25.02.14.11.21.2.27zm106.59 120.49c-.06.16-.13.34-.17.51-.05.27.05.44-.3.48-.22.03-.43-.02-.64-.02-.52 0-1.04 0-1.55 0-.27 0-.71.11-.88-.15-.09-.14-.07-.32-.04-.48.1-.61.25-1.22.41-1.82.28-1 .61-1.97 1.14-2.86.3-.5.9.85 1.01 1.05.15.28.31.57.34.89.03.41-.14.65-.3.99-.1.23-.26.77.03.92.2.1.46.01.67.04.17.02.26.07.3.16.03.06.02.16-.02.29zm-54.87-202.61c-.3.39-.66.58-1.16.47-.97-.21-1.53-.72-2.33-1.16-.69-.38-2.78-.13-3.14-.83-.46-.91 1.13-.72 1.56-.73 1.13-.02 2.25.12 3.36.23.46.04 1.01.21 1.4.54.28.23.46.55.46.96-.01.19-.03.36-.15.52zm-4.35 87.11c-2.84 4.08-3.25 10.16-1.17 14.65.17.36.35.72.37 1.11.04.76-.81 1.5-1.39 1.87-.5.32-1.49 1.22-2.06.9-.43-.24-.53-1-.37-1.43.08-.21.22-.4.3-.62.07-.21.09-.43.09-.65.03-1.28-.26-2.52-.29-3.8-.02-1.19.06-2.39.19-3.57.36-3.48 1.34-6.31 3.61-9.01.33-.4 1.01.13.72.55zm100.73 75.25c-.19.19-.5.22-.76.15-.01 0-.01 0-.02 0-.26-.08-.49-.25-.71-.42-2.45-1.93-4.44-4.38-6.23-6.94-.35-.5-.64-1.1-.14-1.59.3-.29.83-.42 1.07.04.35.68.82 1.25 1.13 1.95.37.82.8 1.64 1.44 2.29.41.41.88.74 1.34 1.1 1.09.86 2.06 1.87 2.87 2.99.06.08.11.16.1.26 0 .05-.04.12-.09.17zm-85.96-168.84c.15-.1.35-.07.52-.04 1.21.22 2.35.33 3.5.83 2.16.95 3.97 2.51 5.63 4.15.6.59 1.21 1.2 1.63 1.84.69 1.06.84 2.19-.53 3.42-.07.06-.15.12-.24.13s-.18-.03-.26-.06c-1.28-.6-2.24-1.71-3.11-2.83-.66-.86-1.3-1.74-1.9-2.64-.45-.68-.98-1.13-1.52-1.72-.59-.65-1.29-1.18-2.03-1.65-.26-.2-2.24-1.08-1.69-1.43zm-4.15 35.23c-.63.15-1.24.36-1.89.41-.64.05-1.33-.07-1.81-.5-.2-.18-.36-.42-.38-.69-.02-.4.28-.75.59-1.01 2.1-1.85 5.95-2.49 7.19-5.13.61-1.3 1.17-2.63 1.67-3.98.2-.55.4-1.11.41-1.7s-.18-1.21-.64-1.57c-.47-.37-1.11-.42-1.71-.44 1.04-1.4 3.65-.69 4.61-2.14.32-.49.36-1.13.2-1.7-.3-1.09-.68-1.56-1.78-1.32-1.43.31-2.75 1.01-4.02 1.74-.55.31-1.11.66-1.44 1.2-.16.26-.33.61-.63.57-.06-1.57 1-2.66 1.8-3.88.7-1.07 1.62-2.26 2.98-2.46 2.48-.35 4.29 2.28 6.85 1.73.58-.13 1.52-.66 2.15-.84 2.23-.66 3.61-4 6.17-2.86.82.37 1.47 1.02 2.11 1.66 3.28 3.33 6.62 6.73 8.69 10.92 4 8.11 2.65 17.82 5.07 26.53 1.67 6.02 5.44 10.53 8.87 15.56 1.7 2.48 4.11 4.42 5.83 6.94 1.81 2.64 3.37 5.45 5.21 8.08 3.04 4.34 6.62 8.51 11.35 10.89 4.05 2.03 8.86 2.32 12.76 4.6 3.69 2.16 7.26 4.07 10.5 6.92 3.99 3.52 8.19 7.37 9.49 12.53.55 2.18.54 4.45.51 6.7-.03 2.04-.1 4.15-.78 6.1-.66 1.87-1.89 3.51-2.86 5.23-1.98 3.52-4.09 7.03-5.8 10.68-.61 1.3-1.09 2.71-1.33 4.13-.05.29-.09.58-.06.87.11.94.86 1.84 1.33 2.64.6 1.04 1.21 2.08 1.82 3.12 1.22 2.07 2.48 4.13 3.8 6.15 1.03 1.57 1.54 3.25 1.88 5.08.19 1.01-.04 2.21-.07 3.24-.03 1.2-.16 2.46-.01 3.65.56 4.28.58 8.92.04 13.18-.07.53-.36 1.5-.83.56-.27-.54-.1-1.34-.15-1.92-.17-2.23-.35-4.45-.52-6.68-.15-1.99-.52-4.01-.55-5.98-.02-1.02-.03-2.04-.05-3.06-.01-.77-.03-1.55-.23-2.3-.19-.69-.31-1.78-.72-2.36-.29-.41-.65-.42-1.1-.56-.56-.18-1.09-.47-1.58-.79-.93-.62-1.8-1.4-2.51-2.27-.99-1.21-1.67-2.44-3.11-3.22-.5-.27-1.16-.39-1.6-.79-.67-.6-.72-1.23-.64-2.09.13-1.5.65-2.9 1.26-4.25 1.02-2.23 1.35-4.21 1.77-6.62.63-3.58.77-7.47 2.31-10.82-.08-.04-.15-.09-.23-.16-.14-.18-.31-.29-.53-.34-1.89.85-3.4 2.62-4.97 3.88-2.16 1.74-4.41 3.26-6.22 5.38-.74.87-1.06 1.6-1.28 2.72.01 1.78-.05 3.56.41 5.31.02.08.03.17.03.24.41.98.91 1.93 1.38 2.84.64 1.23 1.51 2.1 1.16 3.49-.16.65-.95.94-1.51.61-1.37-.8-2.04-1.9-2.87-3.21-.85-1.33-1.89-2.57-2.54-4.02-1.29-2.88-.08-4.67 1.47-7.19.72-1.17 1.42-2.43 2.25-3.53 1.28-1.69 3.23-2.98 4.28-4.82 1.09-1.91.33-4.13.16-6.23-.1-1.22-.19-2.52-.04-3.74.13-1.04-.36-1.05-1.28-1.14-.72-.07-1.44-.17-2.16-.31-1.4-.29-2.68-.77-3.91-1.51-1.04-.63-1.44-1.18-2.04-2.27-1.33-2.43-2.54-5.01-2.83-7.81-.05-.45-.07-.91-.02-1.37.24-2.05 2.08-3.81 4.14-3.43 2.15.39 4.27 1.35 6.14 2.46 1.45.86 2.69 2.06 4.12 2.97.95.6 1.98 1 2.98 1.45l.05-.22c.05.05.11.1.17.14-1.09-1.89-2.57-3.59-4.23-5-1.91-1.62-3.72-2.31-6-3.28-2.19-.93-3.82-2.67-5.44-4.34-.76-.78-1.61-1.84-2.57-2.38-.89-.5-1.86.43-2.42 1.08-.6.68-1.01 1.51-1.34 2.35-.64 1.66-.93 3.45-1.11 5.21-.17 1.69-.48 3.43-.48 5.12 0 1.61.2 3.27.29 4.89.01.2.02.41-.07.59s-.31.31-.49.23c-.07-.03-.12-.09-.17-.14-1.3-1.4-1.86-3.17-2.83-4.77-.61-1-1.21-2.01-1.74-3.06-.91-1.82-1.57-3.75-2.07-5.72-.24-.97-.45-1.95-.63-2.94-.15-.83-.42-1.57-.61-2.39-.14-.61-.26-1.21-.35-1.83-.03-.19-.08-1.85-.15-1.88-3.12-1.36-7.28-3.94-8.66-7.1-.74-1.7-.34-3.7.06-5.44.31-1.32.76-2.6 1.04-3.93.25-1.18.64-2.92-.04-4.03-.34.95-1.57 1.5-2.33 2.11-1.41 1.14-2.5 2.64-3.41 4.21s-1.66 3.23-2.5 4.84c-.8 1.52-1.69 2.99-2.67 4.41-.89 1.29-1.68 2.62-2.71 3.81-1.85 2.15-4.11 3.9-6.37 5.58-1.15.86-2.32 1.71-3.45 2.59-1.05.82-1.96 2.23-3.45 2.19-.04 0-.09 0-.13-.02-.15-.08-.09-.3-.02-.45.95-1.84 1.47-3.9 1.81-5.93.37-2.18.54-4.4.42-6.61-.12-2.3-1.65-5.56-.52-7.74.23-.43.75-.36 1-.05.26.33.11 1.17.19 1.58.12.58.4 1.15.65 1.69.48 1.04 1.19 2.11 1.38 3.24.3 1.77.24 3.76.03 5.54-.02.14-.03.29.01.43.05.14.18.25.33.23.09-.02.15-.08.21-.14 1.09-1.08 1.89-2.82 2.41-4.25.44-1.19.91-2.38 1.19-3.63s.29-2.51.35-3.79c.02-.5.04-1-.08-1.48-.1-.39-.28-.76-.47-1.12-.28-.55-.57-1.11-.85-1.66-.3-.59-.61-1.2-.67-1.87-.07-.76.21-1.51.48-2.23.1-.28.21-.56.41-.79.17-.19.39-.33.61-.46 2.1-1.27 4.05-2.46 6.4-3.2 2.18-.68 4.5-1.15 6.8-1.08.1-.07.19-.13.29-.17-1.23-1.24-2.62-2.26-3.93-3.42-1.8-1.59-2.77-2.99-5.33-3.43-4.68-.8-8.69.52-12.5 3.2-.4.28-.94-.27-.67-.67 1.2-1.82 3.41-2.74 5.36-3.66.55-.4 1.09-.74 1.69-1.11 1.38-.85 1.83-1.78 1.19-3.36-.65-1.6-1.21-3.6-2.06-5.07-.13-.23-.16-.44-.12-.64 0-.06.01-.12.03-.19 1.55-4.81 3.6-10.47 2.28-15.52-.83-3.18-1.64-5.62-3.88-8.09-.28-.3-.53-.65-.79-.99-.05.05-.1.1-.15.16-.91 1.08-1.35 2.52-2.36 3.51-.34.34-.75.62-1.14.89-1.3.9-2.61 1.8-4.01 2.54-1.03.55-2.11 1-3.23 1.36-.16.05-.39.07-.45-.08-.05-.13.05-.26.15-.35.79-.72 1.79-1.14 2.73-1.65.93-.52 1.85-1.2 2.23-2.2.21-.57.23-1.19.24-1.8.07-2.99.14-5.99-.12-8.97-.02-.21-.07-.45-.26-.52-.13-.05-.28.01-.4.07-1.66.76-3.28 1.63-4.82 2.61-.42.26-.43.58-.53 1.02-.16.67-.5 1.27-.84 1.87-1.7 3.02-3.34 6.06-4.92 9.14-1.77.02-3.65.02-5.45.46zm-3.43 47.34c.48.09.93.54 1.3.82.53.4 1.06.79 1.59 1.17.47.34.94.66 1.41.99.44.3.86.7 1.33.94.56.28 1.09.62 1.63.94.46.27.81.57 1.23.89 1.11.83 2.43 1.47 3.6 2.22 1.76 1.11 3.49 2.27 5.2 3.46.6.42 1.3.67 1.88 1.14.07.05.14.12.17.2.07.18-.07.38-.25.44-.18.07-.38.04-.56 0-.89-.15-1.86-.15-2.7-.48s-1.66-.73-2.47-1.12c-1.61-.79-3.23-1.63-4.99-2.06-.66-.17-1.34-.27-2-.43-1.26-.3-2.42-.87-3.61-1.35-.64-.26-1.24-.79-1.81-1.18-.58-.4-1.15-.81-1.71-1.22-.13-.09-.21-.14-.37-.15-.51-.03-.92.36-1.3.69-.61.53-1.74 1.38-2.6 1.35-.56-.02-.95-.64-.92-1.2s.35-1.06.67-1.52c.6-.86 1.26-1.81 1.12-2.85-.04-.33-.17-.65-.12-.98.1-.59.81-1.12 1.39-.93.64.21.92 1.2 1.68 1.18.62-.05.42-1.1 1.21-.96zm-38.31-11.99c2.87-1.7 6.57-2.34 9.74-3.36 2.05-.67 4.06-1.48 6-2.43.9-.44 2.16-.89 2.9-1.58.7-.65 1.05-1.07 2.07-1.28 1.11-.23 2.24-.34 3.38-.31.19 0 .4.02.57.11.18.09.31.26.44.42 1.24 1.41 3.07 2.27 4.8 2.92 2.01.75 4.15.62 6.24 1.14.29.07.63.2.7.49-.1.12-.23.19-.37.25-.17.07-.37.11-.55.14-1.66.27-3.33.47-5 .63-.8.08-1.61.18-2.41.17-.45-.01-1.06-.18-1.31.38-.13.3 0 .64.13.94.55 1.26 1.1 2.52 1.65 3.78.2.46.4.93.37 1.43-.01.11-.04.24-.14.28s-.21-.04-.3-.11c-.5-.42-.99-.85-1.47-1.3-.44-.4-.87-.81-1.22-1.29-.34-.44-.6-.93-.94-1.37-.73-.97-1.6-1.72-2.3-2.73-.29-.41-.01-1.11.49-1.2.69-.13 2.29-.13 2.05-.93-.09-.3-.51-.71-.95-1.11-.54-.21-1.07-.43-1.61-.69-.9-.43-1.3-.01-1.97.67-.72.73-1.45 1.46-2.17 2.19-.6.6-1.21 1.22-1.95 1.62-.63.34-1.33.53-2.03.67-1.25.25-2.52.22-3.78.2-1.27-.02-2.5.13-3.77.18-2.36.08-4.73.73-6.97 1.51-.18.06-.47.07-.49-.12-.05-.15.07-.24.17-.31zm-13.89 12.73c.53-1.19 1.21-2.35 2.14-3.27.27-.27 1.03-1.11 1.47-.97.25.08.36.49.44.92.1.5.27.82-.08 1.24-.21.25-.4.52-.55.8-.26.48-.43 1.12.1 1.49.24.16.65.31.67.65.02.23-.28.54-.38.75-.16.36-.31.72-.45 1.09-.23.64-.16 1.24-.89 1.24-.88 0-2.29-.42-2.88-1.1-.69-.82.06-2.05.41-2.84z"/><path d="m88.65 198.86c-.12.03-.23.07-.35.1-.59.17-1.19.28-1.79.43.75-.05 1.5-.08 2.25-.13-.05-.13-.1-.26-.11-.4z"/><path d="m79.5 199.71-5.98-.2c.75.1 1.53.18 2.59.21 1.13.03 2.26.01 3.39-.01z"/><path d="m247.09 196.25c-.19-.06-.4-.11-.62-.16-.47-.09-1-.16-1.56-.2-.55-.04-1.13-.07-1.68-.08s-1.07-.01-1.52-.01c-.21 0-.33 0-.5 0-.01.04 0 .09-.01.13-.47 1.42-1.9 1.07-2.96.38.19-.17.34-.38.46-.61-1.78-.11-3.57-.28-5.36-.47-2.44-.26-4.87-.48-7.25-.36-2.3.12-4.79.45-7.27.69-1.24.12-2.47.22-3.68.26-1.2.04-2.38.02-3.5-.09-3.12-.32-6.19-.9-9.31-1.24-1.04-.11-2.08-.2-3.14-.24-.37-.01-.75-.03-1.12-.03-.75-.01-1.49.02-2.18.11-.35.05-.69.11-1.01.2-.65.18-1.23.44-1.73.84-.49.4-.89.92-1.17 1.61-.88 2.24-.41 6.1-.14 8.87.04.4.09.84.11 1.18.16 2.27.43 4.71-.55 6.82-.19.42-.46.8-.73 1.18s-.52.75-.7 1.17c-.61 1.43.04 2.92.05 4.31 0 .46-.07.92-.28 1.36-.11.24-.32.42-.51.62-6.81 1.13-15.29.15-20.96-1.03-3.51-.73-6.68-1.23-9.84-1.57-.01 0-.02 0-.02-.01-.76-.15-1.61-.19-1.99-.23-1.5-.15-3.03-.19-4.56-.17-.04 0-.08 0-.12 0-2.01-.01-4.08.05-6.32.22-.03 0-.06.02-.09.02-.91.04-1.83.09-2.74.11-1.54.02-3.06-.01-4.57-.15-1.06-.1-2.11-.26-3.15-.49-1.74-.39-6.8-.16-7.81-1.84-.39-.65-.43-1.39-.37-2.14.03-.5.11-1.01.14-1.5.05-.74.01-1.44-.38-2.04-.09-.14-.25-.26-.45-.38-.4-.24-.95-.43-1.4-.61-.22-.09-.42-.18-.57-.26-1.07-.63-2.2-1.03-3.37-1.3s-2.38-.42-3.64-.54c-1.75-.17-3.47-.27-5.19-.23-.43.01-.86.05-1.29.08-1.29.08-2.58.2-3.88.45-1.48.29-3.1.5-4.52 1.01-.27.1-.52.22-.77.35-.51.25-1 .51-1.53.54-.26.02-.54-.02-.82-.14.84-1.67 2.73-2.88 4.84-3.69 1.58-.61 3.28-1.01 4.75-1.23.49-.07.96-.13 1.38-.16.77-.06 1.6 0 2.41 0 2.43.01 4.94.2 7.16.73.67.16 1.29.34 1.9.51 1.82.49 3.43.83 5.36-.07 1.44-.67 2.78-1.4 4.05-2.27 1.26-.86 2.44-1.84 3.54-3 .76-.79 2.32-2.73 1.62-3.95-.14-.24-.42-.42-.78-.55-.44-.16-.99-.25-1.55-.31.01.43.02.86.04 1.21.03.66-1.47-.93-1.58-1.23-.02-.05-.02-.1-.03-.15-.2-.02-.43-.04-.57-.07-2.77-.54-5.52-1.18-8.29-1.73-.92-.18-1.84-.4-2.77-.54-1.99-.3-4-.72-6-.95.09.9.22 2.3-.79 2.15-1.27-.2-.88-1.21-.88-2.01 0-.07.01-.17.01-.26-.32-.02-.65-.05-.97-.05-1.14 0-2.28.12-3.4.41-.56.15-1.12.34-1.67.58-2.45 1.07-4.55 2.25-7.26 2.57-2.53.3-5 .67-7.48 1.29-.42.1-.84.24-1.26.36.02.32 0 .64-.05.92.33-.01.66-.04.99-.05 1.12-.04 5.27-.91 6.17-.19 3.81 3.08-10.01 4.29-10.13 4.3-6.99.93-13.29 2.97-20.13.48-1.61-.59-3.25-1.54-4.92-1.95-3.25-.79-8.11-.06-11.4-.53-3.76-.54-7.68-.14-11.47-.03-2.53.07-4.91.59-7.47.48-1.66-.07-3.33-.22-4.9-.81-.38-.14-3.92-2.28-3.74-2.41-.03.02.29-.41.28-.4 1.76.48 3.34.35 4.92-.03l-.5-.02c-.52.07-.96.09-1.39.08-.44-.01-.87-.06-1.37-.11-.54-.06-1.09 0-1.64.07s-1.1.14-1.65.1c-1.8-.11-3.77.17-5.49.74-1.54.51-1.85 1.39-.26 2.21.98.5 2.1.57 3.21.63.56.03 1.11.06 1.65.15.54.08 1.06.22 1.54.46 0 1.69-1.24 1.92.6 2.77 1.15.53 2.38.86 3.62 1.12.25.05.49.12.74.17 1.5.27 3.03.41 4.55.47 1.53.06 3.06.04 4.58-.01.74-.03 1.49.01 2.23.02 2.23.02 4.46.13 6.67.4.98.12 1.92.38 2.85.66.93.29 1.85.61 2.79.85-.15.49-.1 1.06.27 1.75.26.49.63.83 1.06 1.05.65.34 1.44.43 2.25.43s1.62-.09 2.32-.12c.4-.02.78.05 1.17.08 1.17.09 2.33.29 3.49.51.66.13 3.29.17 4.14.52.12.05.21.11.24.17.35.6.3 1.01.03 1.29s-.78.43-1.35.5c-.29.04-.59.05-.89.05-.9.01-1.77-.1-2.07-.14-1.08-.15-2.03.12-2.97.41-.47.15-.93.3-1.41.41s-.96.18-1.48.16c-1.51-.06-3.01-.29-4.57-.29-2.77 0-5.22.71-7.86 1.5-1.11.33-2.88.79-4.38 1.43-1 .42-1.89.93-2.38 1.52-.74.88-.58 1.97 1.39 3.29.95.63 1.74 1.36 2.55 2.07.41.36.8.72 1.25 1.06.41.3.87.54 1.36.74.98.4 2.1.64 3.16.85.53.11 1.05.21 1.53.32 1.51.35 2.99.73 4.5.94.45.06.9.07 1.36.06 1.37-.05 2.77-.34 4.14-.29.62.02 1.24.01 1.87-.05 1.25-.1 2.51-.34 3.75-.61.62-.14 1.23-.28 1.83-.43 2.87-.69 5.54-2.24 8.24-3.4 1.5-.64 3.04-1.08 4.61-1.33 3.13-.5 6.34-.23 9.37.7 1.51.46 2.98 1.1 4.37 1.88-4.24-.67-8.59-1.9-12.71-.77-.59.16-1.17.37-1.75.64-1.61.74-3.21 1.45-4.83 2.12-1.62.66-3.26 1.28-4.94 1.84-3.34 1.1-6.79 1.64-10.13 2.74-.52.17-.64 1.08 0 1.18 1.36.21 2.71.33 4.07.37s2.71 0 4.08-.1c1.21-.08 2.4.03 3.55.02 1.16-.01 2.3-.15 3.42-.72 2.39-1.23 4.53-3.31 7.11-4.1 1.38-.43 2.99-.38 4.39-.05.35.08.74.19 1.11.33s.73.33 1 .57c.29.25.46.5.68.7.21.2.47.36.9.43.34.05.7.09 1.04.18.33.09.63.24.82.52-.19.12-.4.18-.61.21-.43.05-.89-.04-1.33-.2-.22-.08-.43-.17-.64-.27-.61-.29-1.29-.59-1.94-.59-.22 0-.43.04-.64.12-.12.05-.23.11-.35.15-.12.05-.24.08-.36.07-.06-.01-.11-.04-.17-.07-.09-.04-.19-.08-.27-.15-.07-.05-.14-.1-.2-.16-.24-.19-.55-.27-.85-.37-.15-.05-.27-.16-.42-.19-.46-.08-.95-.06-1.4.07-.9.25-1.68.89-2.17 1.69-.14.22-.29.43-.44.64-.07.11-.12.23-.22.32-.43.4-1.06.49-1.6.74-.55.26-.92.63-1.16 1.08-.18.34-.29.73-.37 1.13-.03.13-.06.26-.08.4-.13.92-.44 2 .41 2.69 1.09.89 2.85 1.15 4.67 1.19s3.7-.13 5.03-.11c.19 0 .39-.01.59-.02.39-.01.78-.03 1.18-.04.59-.02 1.18-.02 1.76.09.16.03.3.07.44.1.29.07.54.18.67.49.39.93-1.4 1.51-2.64 2.01-.41.16-.77.32-.96.47-.08.07-.17.17-.13.27.02.04.06.04.1.06s.06.05.1.06c.59.12 1.2.16 1.8.12.22-.02.44-.04.64.04.05.02.08.07.13.1.13.1.23.25.18.4-1.43-.1-2.84.33-4.21.76-.62.19-1.24.38-1.86.58l-1.86.58c-.09.03-.19.06-.26.13-.14.13-.13.38-.03.54.11.16.29.27.46.35.46.22.97.35 1.48.4.19.02.38.02.55.08.08.03.15.08.22.13s.15.08.22.13c.51.36 1.02.71 1.56 1s1.1.51 1.71.6c.8.13 1.59.17 2.37.18 2.35.03 4.64-.27 7.03.43 2.45.72 3.87 2.38 5.68 3.69.6.44 1.25.83 2 1.14 1.69.7 3.37 1.4 5.08 2.04.57.21 1.13.45 1.71.63.63.2 1.23.41 1.82.61 1.18.4 2.31.78 3.53.99.61.11 1.24.17 1.91.17 1.34.01 2.68-.06 4.03-.18 1.35-.11 2.69-.27 4.02-.42 4.13-.48 8.23-1.45 12.17-2.75 5.13-1.7 10.01-2.99 15.34-4.01 1.67-.32 3.33-.35 5-.34.56 0 1.11-.01 1.67-.01.95 0 1.89-.04 2.83-.1 2.82-.19 5.6-.6 8.41-.82.63-.05 1.28-.03 1.92-.04s1.28-.05 1.88-.2c.13-.47.01-.83-.31-1.1-.48-.41-1.4-.63-2.55-.74-.77-.07-1.63-.09-2.54-.09-2.27.01-4.79.19-6.58.16-1.44-.02-2.41-.17-2.42-.64 0-.1.08-.19.24-.28.62-.35 2.33-.59 3.81-.74.37-.04.73-.07 1.05-.1.64-.05 1.14-.08 1.33-.09 3.3-.18 6.57-.37 9.84-.68 3.26-.31 6.52-.75 9.78-1.41 7.16-1.46 14.12-4.12 20.41-7.83.62-.37 1.23-.77 1.82-1.2s1.17-.89 1.75-1.35c1.14-.93 2.26-1.91 3.38-2.82 2.09-1.7 4.28-3.58 5.88-5.77.8-1.09 1.65-2.58 2.27-3.97.21-.46.38-.92.52-1.34.3-.92.28-1.7-.03-2.36-.31-.65-.91-1.17-1.76-1.56-.57-.26-1.13-.41-1.68-.48-.52-.08-1.02-.08-1.53-.07-.63-.18-1.21-.38-1.87-.65-2.79-1.14-6.64-1.99-9.65-2.15-.12-.01-.26-.01-.41-.02-.75-.03-1.75-.08-1.91-.52-.06-.17 0-.41.28-.72.42-.49 1.26-.74 2.24-.86.65-.08 1.35-.12 2.03-.13 1.02-.02 1.97.01 2.57-.04.29-.02.55-.02.82-.03s.56-.04.82-.03c.51 0 1 .04 1.48.1.48.07.96.17 1.45.31s.99.32 1.53.54c1.2.5 2.41.58 3.58.97.75.25 1.36.75 2.02 1.16.22.14.42.3.66.39.68.24 1.31.32 1.92.28 1.83-.11 3.44-1.22 5.23-1.76 1.27-.38 2.48-.49 3.64-.75.58-.13 1.15-.3 1.7-.55.55-.26 1.1-.6 1.63-1.08.72-.66.64-1.85 0-2.51-.44-.46-.97-.81-1.56-1.07-.59-.27-1.24-.46-1.9-.61-1.33-.3-2.72-.43-3.88-.7-.79-.18-1.91-.17-2.49-.73.25-.25.62-.44 1.02-.6.66-.27 1.42-.48 1.95-.77 1.04-.57 2-.83 3.07-.97.36-.05.68-.13 1.08-.14.37-.01.73-.02 1.1-.03.73-.02 1.46-.04 2.19-.06.24-.01.54-.09.74-.22.2-.14.32-.32.2-.54 2.36-.48 4.6-1.39 6.66-2.63.71-.43 1.19-.8 1.48-1.12.3-.32.4-.59.37-.82-.04-.23-.22-.41-.5-.57-.04-.07-.2-.13-.39-.19zm-41.18 29.87c-.3 1.45-2.7 2.41-4.97 3.09-.91.27-1.79.49-2.51.69-.36.1-.68.18-.94.26-.65.2-1.49.33-2.41.43-.92.11-1.92.19-2.89.31-1.95.24-3.8.63-4.71 1.62.17.19.36.34.56.46s.42.21.65.28c.69.2 1.47.21 2.24.23s1.52.05 2.15.31c-1.11 1.21-3.83 1.25-5.38 1.76-7.53 2.49-15.16 3.79-22.97 3.66-2.6-.04-5.22-.24-7.87-.6-2.49-.34-5.06-.5-7.61-.63-.85-.04-1.71-.1-2.55-.13-.28-.01-.59-.01-.92 0-.65.02-1.38.09-2.12.12-.37.02-.74.03-1.11.02-.73-.01-1.45-.07-2.09-.25-.32-.09-.62-.21-.89-.37s-.51-.35-.72-.59c.5-.25 1.03-.46 1.58-.63.56-.17 1.14-.3 1.74-.4 1.2-.2 2.47-.27 3.76-.29s2.59.02 3.84.05c.63.02 1.24.03 1.84.03s1.18-.01 1.73-.03c1.71-.08 3.43-.15 5.15-.22 3.45-.14 6.92-.3 10.35-.63 1.72-.17 3.42-.38 5.11-.65.48-.08 2.41-.3 4.18-.76.76-.2 1.48-.44 2.05-.73.38-.19.68-.41.88-.65s.29-.5.24-.79-.25-.61-.64-.95c-.49-.44-1.4-.53-2.32-.5s-1.86.17-2.42.19c-1.22.05-2.44.05-3.66.05s-2.44.01-3.66.07c-4.07.21-8.1.41-12.15.53-1.35.04-2.69.11-4.06.11-4.73 0-9.51-.15-14.29-.46-4.77-.31-9.53-.79-14.21-1.42-.19-.03-.53-.04-.97-.05-1.56-.03-4.43-.01-6.8-.18-.34-.03-.67-.06-.98-.09-1.57-.17-2.75-.47-2.88-.99-.03-.1-.01-.22.05-.34.29-.57 1.76-1.01 3.57-1.34 3.01-.55 6.95-.81 7.89-.91.87-.1 1.73-.15 2.59-.18s1.72-.02 2.57 0c3.42.1 6.82.5 10.27.51.86 0 1.73-.02 2.6-.08s1.74-.15 2.62-.29c.09-.01.23-.04.42-.06.25-.04.61-.09 1.01-.14.25.12.55.2.9.18 15.26-.7 30.24 5.41 44.55 1.66.88.08 1.76.18 2.64.23 1.03.07 2.05.11 3.08.12 1.02 0 2.04-.04 3.05-.13 1.43-.14 2.91-.49 4.38-.56.49-.02.97-.01 1.46.05z"/><path d="m151.21 212.6c.82.29 1.96 0 2.92-.02 1.78-.03 3.67.11 5.42.44 1.97.38 3.83.84 5.84.99 1.93.14 3.59-.41 4.97-1.67-2.57-.92-5.45-.45-8.05-1.38-2.4-.86-5.28-.73-8.5.36-.96-.03-2.02.61-2.6 1.28z"/><path d="m172.77 204.17c-.77-.51-1.62-.49-2.57-.44-1.36.07-2.52.65-3.82.87-1.63.28-2.87.28-4.25 1.4 1.92-.42 3.62-.14 5.55.14 1.8.26 3.3-.33 4.97-.26.73-.71.68-1.34.12-1.71z"/><path d="m17.22 187.75c.09-2.46.67-3.59 2.83-4.79.92-.51 2.01-1.03 2.85-1.65 1.63-1.19.13-1.67.63-3 .19-.5 1.8-1.24 2.3-1.59.84-.59 1.83-1.11 2.19-2.11.6-1.65-.84-2.38-1.12-3.64-.19-.85.35-1.48.21-2.36-.06-.41-.27-.81-.48-1.19-.19-.35-.39-.69-.5-1.02-.84-2.51 1.12-2.73 2.4-4.29.91-1.11.8-2.12.88-3.51.12-2.03 2.12-3.59 2.11-5.6-.01-1.01-.7-1.58-1.11-2.43-.62-1.29-.4-1.63.1-2.97.69-1.86-.3-3.89-1.32-5.59-.33-.55-.68-1.13-.67-1.78.01-.52.25-1.01.44-1.49.69-1.77.7-3.79.01-5.56-.6-1.56-1.74-3.07-1.48-4.73.29-1.85.86-2.87.33-4.77-.44-1.54-.66-2.64-.74-4.3-.19-3.88-1.66-7.53-1.95-11.4-.14-1.88.61-3.61 1.01-5.41.85-3.84.42-8.91-1.74-12.25-2.29-3.54-.71-5.48-.9-9.26-.07-1.33-.75-2.54-1.24-3.78-.58-1.47-.1-2.63-.3-4.03s-.98-2.72-1.16-4.17c-.21-1.71-.6-3.4-.99-5.08-.31-1.3-1.04-1.33-1.65-2.25-.53-.79-.65-1.85-1.01-2.73-.16-.41-.38-.82-.74-1.05-1.72-1.1-1.87 6.27-2.29 7.59-.45 1.42-1.45 2-2.3 3.12-1.13 1.49-.87 3.16-1.4 4.87-.43 1.39-1.49 2.56-1.69 4-.28 2.08 1.62 4.24.94 6.25-.55 1.63-2.11 2.4-2.39 4.34-.36 2.5.25 5.17-.95 7.51-.13.26-.29.52-.32.81-.02.27.07.54.16.8.98 3 .43 6.96-.08 10.03-.18 1.13-.56 2.23-.77 3.36-.42 2.22-.19 4.46.12 6.68.29 2.07-.6 2.92-.75 4.91-.05.64.04 1.29.05 1.93.03 2.24-.9 4.35-1.51 6.5s-.85 4.63.4 6.48c.58.86 1.5 1.65 1.46 2.69-.08 1.84-2.55 2.7-2.9 4.6-.34 1.82-1.08 4.2-.56 6.04.27.96.62 1.82.48 2.83-2.91.98-2.62 6.65-.27 8.06.92.55 2.32.8 2.44 1.87.05.44-.17.85-.33 1.26-.47 1.18-.37 2.06-.07 3.23.3 1.16.26 2.45.79 3.56.35.73 1.05 1.31 1.19 2.11.37 2.23-3.89 1.44-1.72 4.4.32.43.94.47 1.21 1.09.16.36-.04.78.08 1.15.9 2.77 5.31 2.25 7.33 4.12 1.3 1.2.83 3.97.83 5.55 0 2.15-.86 4.88 1.97 5.41 2.86.54 1.6-5.77 1.66-7.37z"/><path d="m90.74 196.76c.01-1.08.35-2.49 1.46-2.96.92-.39 1.64.54 2.5-.12 1.07-.82 1.39-1.92 1.39-3.22 0-1.95-.29-1.75 1.22-3.13.36-.33.64-.72.72-1.29.09-.64-.38-1.26-.45-1.85-.07-.61.63-.82-.01-1.48.04.04.93-1.48.97-1.66.2-.89.08-.96-.41-1.8-.35-.6-.23-.76.06-1.38.39-.87-.17-1.81-.74-2.6-.7-.96.04-1.1.13-2.01.08-.77-.07-1.23-.31-1.99-.46-1.45-.97-2.85-1.12-4.38-.07-.65-.3-1.29-.19-1.99.12-.74.57-1.14.75-1.85.58-2.18-1.72-4.39-1.33-6.88.13-.83.54-1.39.41-2.28-.22-1.5-1.45-2.81-1.74-4.38-.33-1.79.13-3.66-.3-5.44-.21-.84-.79-1.18-1.19-1.85-.76-1.26-.29-2.13-.44-3.7-.17-1.78-1.36-3.72-2.81-1.52-.58.88-.5 1.56-.85 2.52-.22.6-.61.97-.77 1.59-.18.68.04 1.43-.29 2.11-.85 1.77-1.99 1.84-1.5 4.12.17.8.73 1.55.57 2.38-.13.7-.83 1.06-.97 1.73-.23 1.04.42 1.98.26 3.04-.19 1.28-.55.7-1.07 1.58-1.65 2.8.11 6.99-.99 10.07-.2.55-.81.67-1.03 1.2-.35.84.14 2.09.28 2.93.18 1.02.82 2.67.45 3.7-.24.69-1.1.91-1.36 1.51-.33.77.12 1.42.14 2.2.03 1.27-.1 2.28.03 3.65.13 1.29-.68 2.99-.31 4.17.61 1.96 2.27 1.48 1.79 3.88-.32 1.58-.09 2.2.42 3.57.5 1.29 2.98 1.05 4.12 1.92.73.56.47 1.85.47 2.58 0 .44-.08.93-.04 1.37.73-.21 1.47-.42 2.21-.62-.04-.55-.13-1.13-.13-1.44z"/><path d="m90.81 199.15c.05-.28.06-.6.05-.92-.74.21-1.47.41-2.21.62.01.15.06.27.11.4.68-.03 1.37-.07 2.05-.1z"/><path d="m114.51 192.61c.14-3.2 3.88-.8 4.3-3.86.14-1-.02-1.14.32-2.01.12-.31.38-.7.6-1.06.15-.24.28-.46.36-.65.3-.71.71-1.14.57-2.22-.15-1.12-.66-1.26-.28-2.46.69-2.17-.3-3.4-.98-5.34-.66-1.87.3-3.56.21-5.5-.05-1.05-.51-1.85-.81-2.83-.27-.91.16-1.24.23-1.99.07-.78-.19-1.41-.36-2.17-.31-1.34-.31-2.62-.25-4.05.06-1.47-.1-1.89-.72-3.09-.88-1.69-.46-2.97-.73-4.78-.17-1.12-.77-1.38-1.15-2.36-.55-1.44.3-3.84-2.26-3.33.12.76-.45.86-.58 1.48-.22 1.05-.08 1.72-.65 2.68-.42.7-1.15 1.11-1.34 1.96-.27 1.17.5 2.38-.06 3.48-.36.71-.77.5-.97 1.51-.18.93.31 1.83-.11 2.77-.57 1.26-.94 2.5-.37 3.82.42.96 1.49 1.56 1.34 2.71-.15 1.21-.83.92-1.29 1.7-.54.93-.14 1.51-1.08 2.29-.56.46-.95.31-1.28 1-.29.61-.07 1.92-.06 2.58 0 .48.25 1.42.15 1.85-.17.72-.7.82-1.02 1.44-.63 1.23-.02 2.55.13 3.89.15 1.36-.7 2.85-.47 4.28.28 1.8 1.68 1.56 2.52 2.79.61.88.24 1.89 1.09 2.71.8.77 2.13.76 3.02 1.43.51.39.42 1.21.39 1.81.55.03 1.11.06 1.66.12-.05-.26-.07-.47-.07-.6z"/><path d="m113.76 195.35c1.01.16.88-1.25.79-2.15-.55-.06-1.11-.1-1.66-.12 0 .09-.01.18-.01.26 0 .79-.38 1.81.88 2.01z"/><path d="m241.21 195.79c.28-1.1-.46-2.4.41-3.36 1.18-1.32 3.53-.19 3.85-2.54.14-1-.02-1.14.32-2.01.12-.32.38-.7.6-1.06.15-.24.28-.46.36-.65.3-.71.71-1.14.57-2.22-.32-2.36-.41-4.93-1.1-7.26-.3-1-1.11-1.48-1.28-2.45-.09-.51.4-1.81.41-2.46.03-1.14-.64-1.95-.74-2.8-.15-1.31.55-2.41.55-3.74 0-1.1-.56-2.55-.87-3.64-.47-1.68-.41-3.53-1.66-4.87-.78-.84-1.61-2.04-1.43-3.24.12-.86.6-1.48.6-2.35 0-1-.45-2-.72-2.94-.33-1.15.19-2.29-1.08-2.99-1.21.95-.38 2.75-.98 3.87-.44.82-1.09.49-1.06 1.83.02.78.74 1.42.65 2.14-.08.62-1.12 1.56-1.48 2.03-.83 1.07-1.25 1.64-1.01 2.94.15.86.45 2.2.25 3.07-.28 1.24-1.49 2.07-1.62 3.41-.15 1.49 1.13 2.81.85 4.23-.19.97-.7 1.61-.74 2.67-.07 1.77-1.57 3.51-1.33 5.17.27 1.88 1.7 2.26.38 4.65-.8 1.44-3.32 1.45-2.43 3.96.48 1.36 2.59 2.16 3.43 3.62.61 1.07.71 2.56 1.84 3.24 1.16.7 2.07-.08 2.24 1.37.09.73.05 1.6-.29 2.28.65.04 1.3.1 1.94.11.13 0 .37-.01.57-.01z"/><path d="m241.2 195.92c.01-.04 0-.08.01-.13-.2 0-.44 0-.58 0-.64-.01-1.29-.07-1.94-.11-.12.23-.26.44-.46.61 1.07.7 2.49 1.05 2.97-.37z"/><path d="m133.75 196.66c-.01-.66.03-1.33.3-1.82.59-1.09 1.88-1.02 2.63-1.95.53-.66.39-.55.7-1.4.08-.23.17-.46.26-.7.35-.93.69-1.96.47-2.92-.27-1.15-.71-1.64-.72-2.93-.01-1.55-.03-2.68-.5-4.13-.28-.87-.59-1.32-.43-2.26.25-1.48.32-1.7.11-3.24-.12-.83.14-1.6.12-2.41-.05-1.93-1.19-3.23-1.29-5.18-.03-.69-.16-1.69.03-2.36.5-1.85.94-1.37-.76-3.2-1.03-1.11-.54-1.15-.84-2.72-.12-.62.07-1.22-.72-1.25-1.16-.05-1.35 2.51-1.42 3.32-.16 1.73-.43 3.23-.6 4.96-.1.97.14 3.61-1.09 3.75-.07.87.55 1.72.25 2.62-.14.44-.59.57-.7.91-.34.98.01.94.21 1.86.23 1.07-.13 1.48-.5 2.38-.34.81-.32 1.49-.42 2.59-.18 1.93.32 3.64-.43 5.4-.48 1.13-.84 1.41-.01 2.49.92 1.19.98.7 1.02 2.23.02.88.05 1.86.69 2.55.44.47 1.17.45 1.58.88.6.63.32 1.61.52 2.37.17.02.31.04.5.06.31.01.68.05 1.04.1z"/><path d="m133.79 197.86c-.02-.34-.03-.78-.04-1.21-.36-.04-.73-.08-1.06-.11-.2-.02-.33-.04-.5-.06.01.05.01.1.03.15.1.3 1.6 1.9 1.57 1.23z"/><path d="m86.51 199.38c-2.34.14-4.67.28-7.01.33l4.94.16c.7-.11 1.38-.32 2.07-.49z"/><path d="m73.52 199.51c-1.08-.15-2.08-.34-3.6-.54-2.66-.36-2.49-.31-2.52-3.27-.01-.94-.2-1.84.43-2.56.67-.76 2.02-.63 2.76-1.56.75-.94 1-2.26.64-3.4 1.05-.46 2.06-1.03 3.01-1.68.39-.27.78-.56 1-.97.22-.4.26-.87.3-1.32.13-1.5.27-3 .4-4.5.1-1.11.19-2.26.11-3.38-.09-1.42-1.46-2.88-.78-4.18.32-.61.82-1.15.96-1.83.32-1.51-1.21-2.71-1.81-4.14-.7-1.66-.08-3.54.12-5.34.2-1.87-.89-2.85-1.24-4.43-.38-1.72.24-3.52-.39-5.21-.92-2.42-.61-3.91-.54-6.47.02-.83-.17-1.65-.37-2.46-.15-.62-.3-1.24-.45-1.87-.24-1-.49-2.02-1.1-2.85-.37-.5-.87-.95-.98-1.56-.05-.31 0-.63.04-.94.26-2.47-.96-4.82-2.15-7-.23-.42-.47-.85-.88-1.09-2.06-1.24-2.36 2.23-2.54 3.39-.27 1.7-1.48 3.22-1.56 4.99-.05 1.17-1.16 2.18-.95 3.34.09.53.46 1.01.41 1.55-.04.39-.31.71-.52 1.04-1.06 1.62-.63 3.65-.81 5.43-.19 1.88-.71 1.96.54 3.84 1.51 2.28 1.45 4.06 1.45 6.62.01 2.45.06 2.88-1.15 4.73-1.18 1.8-.9 2.47-.11 4.63.82 2.23.09 4.31.11 6.57.02 1.84.78 3.13.18 4.92-1.12 3.42-5.47 6.38-2.68 10.24.58.8 1.81 1.23 2.58.62-.42 2.17 2.55 2.79 3.42 4.22.74 1.2.16 2.36.03 3.59-.07.67-.09 1.36-.11 2.04-1.93-.17-6.81-.15-8.77-.42-3.22-.44-6.54-1.24-9.86-1.79-.03-1.59-.16-3.04-.16-3.68 0-1.28-.2-2.64.43-3.8.7-1.29 2.42-1.43 2.96-2.72.37-.89.22-2.06.96-2.68.36-.3.85-.38 1.26-.6 1.18-.62 1.76-2.68 2.4-3.81 1.01-1.8 1.8-3.61 1.73-5.73-.01-.37-.05-.74-.1-1.11-.16-1.13-.45-2.25-.55-3.39-.09-.98-.04-1.97.01-2.96.13-2.59.26-5.18.4-7.77.09-1.69.17-3.42-.27-5.06-.78-2.9-2.16-4.5-1.58-7.53.57-3.02.81-6.1.67-9.17-.1-2.06-.36-4.1-.62-6.15-.23-1.8-.47-3.64-1.29-5.27-.62-1.22-1.57-2.34-1.69-3.7-.09-1.05.3-2.25-.34-3.08-.26-.33-.64-.54-.94-.84-1.73-1.69.08-4.88-1.13-6.97-.22-.39-.54-.72-.78-1.1-.28-.46-.43-.98-.58-1.5-.34-1.19-.69-2.39-1.03-3.58-.26-.89-.73-1.97-1.65-2.01-.86-.04-1.46.9-1.53 1.76-.06.86.21 1.71.17 2.57-.09 1.95-1.77 3.63-1.62 5.58.05.67.33 1.32.33 1.99 0 1.7-1.61 2.58-2.49 3.82-1.23 1.73-1.05 3.49-1.43 5.46-.22 1.15-.77 1.01-1.29 1.78-1.24 1.81-.03 4.38-.02 6.3 0-.36-1.54 1.06-1.65 1.36-.32.86-.04 1.95.1 2.81.37 2.16 1.32 4.74 1.3 6.88-.02 1.48-.76 1.7.3 3.11 1.67 2.23.46 2.57-.1 4.82-.43 1.71.72 3.02.63 4.69-.08 1.43-1.34 2.07-1.42 3.63-.08 1.51-.13 4.16-1.3 5.14-.92.77-2.27.75-2.23 2.2.02.85.99 1.7 1.1 2.52.06.45-.54.65-.41 1 .24.64 1.34.65 1.71 1.29.76 1.33-.48 2.14-1.15 3.07-.84 1.16-.28 2.64-.94 3.79-.47.84-1.72 1.01-2.09 1.92-.36.87.46 1.9.97 2.54 1.2 1.48 3.21 3.03 5.07 3.55.9.25 1.82-.09 2.67.39 3.33 1.87 2.17 6.43 2.17 9.42v.28c-.46-.02-.92-.04-1.38-.03-2.68.04-5.39.3-7.84 1.18-.9.32-1.77.62-2.64.85-.08.02-.16.03-.24.05l36.78 1.22z"/><path d="m24.1 198.06c0-.01-.31.42-.28.4-.18.12 3.36 2.26 3.74 2.41 1.57.59 3.24.74 4.9.81 2.56.11 4.94-.41 7.47-.48 3.79-.11 7.72-.51 11.47.03 3.29.47 8.15-.26 11.4.53 1.67.41 3.31 1.36 4.92 1.95 6.84 2.49 13.14.45 20.13-.48.13-.02 13.95-1.22 10.13-4.3-.9-.73-5.05.14-6.17.19-.33.01-.66.04-.99.05-.1.55-.36.96-1.01.86s-.91-.4-1.04-.75c-.75.04-1.5.08-2.25.13-.69.17-1.37.38-2.07.49l-4.94-.16c-1.13.02-2.26.04-3.39.01-1.06-.03-1.84-.11-2.59-.21l-7.72-.26-36.78-1.22c-1.59.35-3.18.48-4.93 0z"/><path d="m89.8 200.01c.65.1.91-.3 1.01-.86-.68.03-1.37.06-2.05.1.13.36.39.66 1.04.76z"/></g></svg>