<svg enable-background="new 0 0 151.87 59.45" viewBox="0 0 151.87 59.45" xmlns="http://www.w3.org/2000/svg"><path d="m29.72 0c16.39 0 29.72 13.33 29.72 29.72s-13.33 29.73-29.72 29.73-29.72-13.34-29.72-29.73 13.33-29.72 29.72-29.72zm0 55.45c14.18 0 25.72-11.54 25.72-25.72.01-14.19-11.53-25.73-25.72-25.73s-25.72 11.54-25.72 25.72c0 14.19 11.54 25.73 25.72 25.73z" opacity=".43"/><path d="m34.21 29.61h117.66v1h-117.66z"/><path d="m28.18 30.11c2.84-1.05 6.36-2.85 8.55-4.76l-1.73 4.76 1.72 4.75c-2.18-1.9-5.7-3.7-8.54-4.75z"/></svg>