<?xml version="1.0" encoding="utf-8"?>
<!-- Generator: Adobe Illustrator 24.0.3, SVG Export Plug-In . SVG Version: 6.00 Build 0)  -->
<svg version="1.1" id="Layer_1" xmlns="http://www.w3.org/2000/svg" xmlns:xlink="http://www.w3.org/1999/xlink" x="0px" y="0px"
	 viewBox="0 0 714.67 459.1" preserveAspectRatio="none"  style="enable-background:new 0 0 714.67 459.1;" xml:space="preserve">
<style type="text/css">
	.st0{clip-path:url(#SVGID_2_);fill:#92273C;}
	.st1{clip-path:url(#SVGID_2_);fill:#232020;}
</style>
<g>
	<defs>
		<rect id="SVGID_1_" width="714.67" height="459.1"/>
	</defs>
	<clipPath id="SVGID_2_">
		<use xlink:href="#SVGID_1_"  style="overflow:visible;"/>
	</clipPath>
	<path class="st0" d="M19.77,0c0,0,0,19.77-19.77,19.77v419.56c0,0,19.77,0,19.77,19.77H694.9c0,0,0-19.77,19.77-19.77V19.77
		c0,0-19.77,0-19.77-19.77H19.77z"/>
	<path class="st1" d="M691.35,455.27H23.4l-0.25-1.37c-0.92-5-3.23-9.15-6.85-12.34c-3.83-3.38-8.17-4.85-11.14-5.49l-1.32-0.28
		V23.4l1.37-0.25c5-0.92,9.15-3.23,12.34-6.86c3.38-3.83,4.85-8.17,5.49-11.14l0.28-1.32h667.95l0.25,1.37
		c0.92,5,3.23,9.15,6.86,12.35c3.83,3.38,8.17,4.85,11.14,5.49l1.32,0.28V435.7l-1.37,0.25c-5,0.92-9.15,3.23-12.35,6.86
		c-3.38,3.83-4.85,8.17-5.49,11.14L691.35,455.27z M26.14,451.93h662.55c0.86-3.25,2.56-7.5,5.93-11.33
		c3.41-3.86,7.73-6.43,12.88-7.64V25.98c-3.25-0.86-7.5-2.56-11.33-5.93c-3.86-3.4-6.43-7.73-7.64-12.88H25.98
		c-0.86,3.25-2.56,7.5-5.93,11.33c-3.4,3.86-7.73,6.43-12.88,7.64v406.97c3.25,0.86,7.5,2.56,11.33,5.93
		C22.36,442.45,24.93,446.78,26.14,451.93z"/>
	<path class="st1" d="M686.7,449.27H28.16l-0.12-0.38c-2.78-8.4-9.11-14.66-17.84-17.64l-0.37-0.13V28.17l0.38-0.12
		c8.4-2.78,14.66-9.11,17.64-17.84l0.13-0.37h658.53l0.12,0.38c2.78,8.4,9.11,14.66,17.84,17.64l0.37,0.13v402.96l-0.38,0.12
		c-8.4,2.78-14.66,9.11-17.64,17.84L686.7,449.27z M28.96,448.17h656.96c3.1-8.74,9.41-15.12,17.83-18.03V28.76
		c-8.74-3.1-15.12-9.41-18.03-17.83H28.76c-3.1,8.74-9.41,15.12-17.83,18.03v401.38C19.66,433.44,26.04,439.75,28.96,448.17z"/>
</g>
</svg>
