<?xml version="1.0" encoding="utf-8"?>
<!-- Generator: Adobe Illustrator 24.0.2, SVG Export Plug-In . SVG Version: 6.00 Build 0)  -->
<svg version="1.1" id="Layer_1" xmlns="http://www.w3.org/2000/svg" xmlns:xlink="http://www.w3.org/1999/xlink" x="0px" y="0px"
	 viewBox="0 0 403.46 534.58" preserveAspectRatio="none" style="enable-background:new 0 0 403.46 534.58;" xml:space="preserve">
<style type="text/css">
	.st0{fill:#92273C;}
	.st1{fill:#C0BA81;}
	.st2{fill:none;}
</style>
<g>
	<g>
		<path class="st0" d="M24,0c0,0,0,24-24,24v486.59c0,0,24,0,24,24h355.46c0,0,0-24,24-24V24c0,0-24,0-24-24H24z"/>
		<path class="st1" d="M375.31,530.13H28.23l-0.34-1.82c-1.11-6.02-3.89-11.02-8.26-14.87c-4.62-4.07-9.85-5.85-13.43-6.62
			l-1.76-0.38V28.23l1.82-0.34c6.02-1.11,11.02-3.89,14.87-8.26c4.07-4.62,5.84-9.85,6.62-13.43l0.38-1.76h347.08l0.34,1.82
			c1.11,6.02,3.89,11.02,8.26,14.87c4.62,4.07,9.85,5.84,13.43,6.62l1.76,0.38v478.21l-1.82,0.34c-6.02,1.11-11.03,3.89-14.87,8.26
			c-4.07,4.62-5.85,9.85-6.62,13.43L375.31,530.13z M31.89,525.68h339.88c1.06-3.95,3.14-9.06,7.2-13.68
			c4.12-4.68,9.36-7.8,15.58-9.3v-471c-3.95-1.06-9.06-3.14-13.68-7.2c-4.68-4.13-7.8-9.36-9.3-15.58H31.69
			c-1.06,3.95-3.14,9.06-7.2,13.68c-4.13,4.68-9.36,7.81-15.58,9.3v471c3.95,1.06,9.06,3.14,13.68,7.2
			C27.27,514.22,30.39,519.46,31.89,525.68z"/>
		<path class="st1" d="M369.55,522.72H34.14l-0.17-0.5c-3.37-10.17-11.04-17.76-21.61-21.37l-0.5-0.17V34.14l0.5-0.17
			c10.17-3.37,17.76-11.04,21.37-21.61l0.17-0.5h335.41l0.17,0.5c3.37,10.17,11.04,17.76,21.61,21.37l0.5,0.17v466.54l-0.5,0.17
			c-10.17,3.37-17.76,11.04-21.37,21.61L369.55,522.72z M35.19,521.25H368.5c3.76-10.58,11.41-18.32,21.62-21.86V34.95
			c-10.58-3.77-18.32-11.41-21.86-21.62H34.95c-3.77,10.58-11.42,18.32-21.62,21.86v464.44C23.92,503.39,31.65,511.04,35.19,521.25z
			"/>
		<rect class="st2" width="403.46" height="534.58"/>
	</g>
</g>
</svg>
