<svg enable-background="new 0 0 313.51 345.68" viewBox="0 0 313.51 345.68" xmlns="http://www.w3.org/2000/svg"><g fill="#b29759"><path d="m288.42 123.19c-.26.24-.33.61-.48 1.01-.59 1.61-1.14 3.24-1.78 4.83-.53 1.33-1.85.95-3.08.95-1.82 0-3.63 0-5.45 0-.76 0-1.52 0-2.27 0-.6 0-1.4.1-1.91-.27-.66-.48-.88-1.38-.9-2.2-.02-1.06.01-2.11-.03-3.17-.05-1.31 0-2.63 0-3.94 0-1.09-.04-2.19 0-3.28.02-.51-.01-1.81.82-1.81h.13 4.22c1.44 0 2.96.23 3.97-1.07.43-.54.68-1.29.56-1.98-.11-.64-.15-1.56-.56-2.09-.72-.91-2.32-.59-3.33-.59-.89 0-1.79 0-2.68 0h-1.08c-.38 0-.76-.01-1.13-.09s-.74-.26-.98-.56c-.32-.39-.12-1.18-.12-1.65 0-.75-.01-1.5-.01-2.25-.01-1.47-.02-2.93-.02-4.4 0-.82 0-1.65 0-2.47 0-.46-.18-1.09.28-1.37.25-.15.58-.1.86-.1h2.3 4.77c1.31 0 3.01-.18 4.13.71.54.43.89 1.06 1.18 1.7.49 1.09.85 2.25 1.07 3.43.08.45.14.9.31 1.33.48 1.24 1.52 1.04 2.64.85.94-.17 2.01-.42 2.47-1.26.28-.51.26-1.11.22-1.69-.21-3.25-.92-6.47-2.09-9.52-.6-1.56-.86-1.78-2.5-1.83-1.72-.05-3.44.06-5.16.06-4.04 0-8.07 0-12.11 0-2.04.09-4.08.35-6.13.44-.45.02-.9.04-1.32.21-.8.32-1.03 1.13-1.03 1.92 0 .7.01 1.42.26 2.07s.79 1.24 1.49 1.34c.84.11 1.77-.21 1.99.93.14.73-.04 1.69-.04 2.44v6.29 15.36 5.65c0 .51.03 1.03 0 1.55-.01.18.02.36-.03.54-.29 1-1.07.65-1.85.74-.39.04-.79.22-1 .56-.2.32-.2.72-.19 1.1.01.57.03 1.14.04 1.71.06 2.41 1.88 2.1 3.61 2.1h6.55 14.55c.66 0 1.29.09 1.94-.04.55-.11 1.11-.08 1.52-.56.32-.37.47-.85.6-1.31.81-2.76 1.45-5.62 1.28-8.49-.03-.55-.11-1.15-.5-1.55-.42-.43-1.07-.52-1.67-.57-.66-.06-1.36-.13-2 .08-.11.05-.23.13-.33.21z"/><path d="m260.7 134.78c.39-.42.65-.98.77-1.61.16-.87-.04-1.81-.55-2.54-.86-1.23-3.08-.37-4.43-.77-1.42-.42-2.51-1.89-3.15-3.16-.59-1.17-1.06-2.43-1.58-3.63-.26-.61-.53-1.21-.79-1.82-.89-2.05-2.05-3.91-3.11-5.87-.61-1.12-.27-1.2.71-1.65 2.08-.94 4.08-2.64 5.3-4.57 1.07-1.7 1.71-3.67 1.87-5.67.21-2.68-.38-5.37-1.47-7.81-.9-2.02-2.27-3.35-4.3-4.27-3.72-1.7-8.08-1.04-12-1.04-2.8 0-5.6 0-8.41 0-1.59 0-5.03-.52-6.02 1.05-.38.6-.25 1.46-.25 2.13 0 .7-.23 1.71.26 2.3.53.63 1.55.8 2.32.77 2.25-.09 1.79 2.81 1.79 4.22v7.08 16.24c0 1.62.04 3.25-.06 4.87-.09 1.38-1.43.58-2.19 1.29-.66.62-.52 1.67-.5 2.48.01.58-.21 1.89.17 2.32s1.45.37 1.97.36h3.6 3.97c.89 0 2.16.29 2.54-.75.35-.97.3-3.85-.66-4.49-.68-.45-1.7-.13-2.14-.94-.47-.88-.11-2.67-.11-3.65 0-2.52 0-5.04 0-7.56 0-.57-.14-1.57.08-2.07.79-1.73 3.74-.67 4.97-.17 2.54 1.05 3.43 3.17 4.45 5.51.65 1.5 1.27 3.01 1.89 4.52 1.35 3.29 2.55 6.31 5.4 8.63 1.15.93 2.22 1.03 3.64 1.03h4.26c.71.02 1.32-.28 1.76-.76zm-20.74-25.07c-1 0-1.99 0-2.99 0-2.32 0-3.28-1.31-3.28-3.56 0-2.59-.14-5.23 0-7.82.11-2.04 2.21-1.85 3.65-1.85 3.55 0 7.95-.46 10.23 2.86 1.81 2.64 1.38 6.24-1 8.31-1.86 1.63-4.25 2.06-6.61 2.06z"/><path d="m311.73 41.32c-.44-7.23-1.48-7.62-8.65-7.65-11.86-.05-23.62 1.11-35.59.21-27.09-2.02-52.95-8.31-77.74-19.05-8.47-3.67-16.42-8.56-24.5-13.06-3.01-1.68-5.69-2.66-8.99-.62-9.28 5.74-19.33 9.91-29.2 14.52-18.83 8.79-38.69 12.45-59.05 14.2-11.44.98-22.96 1.09-34.45 1.46-7.85.25-15.72.61-23.56.29-6.32-.25-8.18.54-8.74 6.84-.66 7.63-.83 15.3-1.22 22.94-.37 16.21 1.87 32.21 4.19 48.14 1.62 11.16 4.26 22.17 6.49 33.24 3.03 15.09 8.33 29.41 14.38 43.53 6.95 16.21 16.06 31.18 25.27 46.11 3.28 5.32 6.34 10.83 10.14 15.77 9.09 11.81 18.2 23.64 29.01 34.01 2.18 2.09 4.43 4.2 6.21 6.61 6.93 9.36 15.62 16.9 24.82 23.8 14.34 10.77 28.97 21.13 43.46 31.7 2.68 1.96 5.26 1.69 7.84-.08 3.16-2.17 6.52-4.1 9.38-6.61 10.78-9.41 21.58-18.81 32.02-28.59 13.42-12.57 25.49-26.41 36.28-41.3 2.94-4.06 5.1-8.67 7.76-12.94 4.58-7.33 9.92-14.27 13.78-21.95 7.04-14.04 13.07-28.57 19.8-42.77 7.32-15.44 11.21-31.99 15.28-48.38 4.62-18.6 6.34-37.81 7.19-56.9.65-14.43-.73-28.99-1.61-43.47zm-215.09-4.46c.61-2 2.47-3.46 4.48-4.04 1.45-.42 3.12-.41 4.38.43 1 .66 1.6 1.74 2.01 2.85.22.61.55 2.63 1.31 2.79.53.12 1.03-1.03 1.36-1.31.89-.74 2.06-1.14 3.22-1.01 2.55.3 4.44 3.07 3.56 5.52-.54 1.5-1.73 2.72-3.16 3.42-1.49.72-2.83.29-4.31.64-1.09.26-1.6 1.48-1.93 2.54-.74 2.4-2.52 4.63-5.14 5.04-3.98.63-7.48-4.44-5.03-7.86.7-.98 1.59-1.25 2.65-1.65 1.54-.58-.52-1.75-1.59-2.39-.23-.14-.41-.25-.5-.33-1.32-1.08-1.8-3.04-1.31-4.64zm16.23 16.84c0 .11-.02.22-.1.3-.24.26-1.27.03-1.66.05-.44.03-1.22.11-1.39-.43-.2-.63.34-1.05.68-1.47.14-.18.33-.35.55-.34.15.01.29.09.42.18.56.37 1.14.78 1.42 1.39.04.09.07.21.08.32zm193.34 29.08c-.34 11.44-1.82 22.86-2.87 34.28-1.93 21.03-8.9 40.92-14 61.22-1.01 4.03-3.25 7.75-4.94 11.61-3.7 8.49-7.11 17.13-11.21 25.42-4.37 8.84-9.16 17.5-14.19 25.99-15.91 26.92-35.14 51.15-58.81 71.72-7.46 6.48-14.83 13.05-22.25 19.57-.15.13-.31.26-.48.37-9.56 6.84-10.31 7.46-19.69-.19-10.3-8.4-21.63-15.51-32.04-23.79-11.19-8.91-21.78-18.55-30.96-29.62-8.88-10.7-18.04-21.17-26.72-32.02-4.25-5.32-7.59-11.35-11.5-16.95-11.27-16.15-19.35-33.88-26.63-52.1-4.8-12.02-9.45-23.98-12.05-36.72-2.7-13.21-6.4-26.22-8.69-39.49-2.17-12.68-3.51-25.55-2.52-38.54.37-4.81-.21-9.68-.04-14.51.12-3.18.82-6.33 1.36-10.3 2.38-.48 4.11-1.23 5.79-1.12 21.21 1.41 42.28-.47 63.35-2.45 2.52-.24 5.05-.46 7.57-.78 1.97-.25 6.71-1.98 6 1.62-.4 1.99-.67 4.28.6 5.87.36.45.83.84.98 1.39.18.71-.24 1.41-.54 2.07-1.06 2.32-.71 5.21.84 7.24.57.75 1.73 1.88.35 2.44-1.17.47-2.66.42-3.89.71-10.54 2.42-21.35 3.95-32.18 3.68-1.16-.03-3.77.09-4.37-1.19-.44-.93.2-2.99.18-4.03-.06-3.27-.99-6.43-3.08-8.99-4.02-4.91-11.9-2.98-15.84 1.09-1.77 1.83-2.18 5.17-4.39 6.31-1.08.56-3.2.34-4.43.63-3.3.79-6.15 2.66-7.74 5.59-3.65 6.74 2.24 17.25 10.29 16.63 1.08-.08 2.26-.34 3.18.23.72.45 1.07 1.29 1.48 2.04 5.2 9.45 20.35 7.28 22.34-3.53.49-2.66-2.62-5.44-1.06-7.88 1.81-2.84 9.58-1.67 12.54-1.91 5.56-.45 11.12-1.07 16.62-2.03 2.81-.49 5.59-1.06 8.39-1.68 2.16-.48 6.01-1.42 3.82 2.29-1.55 2.63-4 4.48-6.34 6.36-.8.64-.93.94-1.89.58-.57-.21-.93-.69-1.57-.86-1.44-.39-3.1-.04-4.32.8-1.6 1.11-2.54 3.05-2.58 4.99-.05 1.94.75 3.87 2.03 5.33 1.96 2.23 5.21 3.39 8.06 2.54 3.23-.95 5.42-4.66 4.59-7.96-.11-.42-.26-.83-.24-1.27.08-2.72 3.96-5.31 5.89-6.72 9.99-7.27 22.75-8.2 34.41-4.95 7.1 1.98 13.8 5.18 20 9.14 2.81 1.8 5.48 3.46 8 5.62 2.79 2.4 5.84 4.51 9.07 6.28.84.46 1.69.9 2.56 1.31 1.34.64 3.07 1.19 4.21.24 1.02-.85 1.07-2.96.04-3.83-.98-.82-2.81-.88-3.98-1.43-6.88-3.26-2.49-11.84.8-16.27 2.55-3.43 5.86-6.23 9.47-8.52 3.5-2.21 7.37-3.97 11.49-4.38s8.51.68 11.5 3.53c1.26 1.2 1.77 3.04 2.56 4.58-3.45 1.49-6.2 4.57-7.18 8.2s-.09 7.73 2.4 10.55c1.68 1.9 4.06 3.16 6.56 3.52 1.06.15 2.39.27 3.44.06 1.43-.28 2.61-1.17 4.11-.45.72.35 1.24 1 1.8 1.58 2.94 3.04 7.72 4.29 11.65 2.73 4.53-1.81 6.79-7.39 6.05-12.02-.35-2.23-1.39-4.34-2.92-6-1.75-1.9-2.74-2.46-1.56-5.18.99-2.28.59-5.11-1.01-7.02-.09-.1 2.36.19 2.63.3.84.34 1.68.7 2.55 1.01 2.1.74 4.19 1.49 6.29 2.25 2.46.89 4.92 1.79 7.38 2.7 1.26.46 2.51.92 3.77 1.38.82.3 2.02.58 2.16 1.62.08.61-.17 1.2-.39 1.77-1.04 2.68-2.18 6.74-1.11 9.54 1.1 2.88 2.86 5.54 5.24 7.52 2.69 2.24 6.18 3.57 9.67 3.41 2.09-.1 4.16-.76 5.93-1.89 1.55-1 3.45-2.63 4.26-4.3.35-.72.64-1.55 1.31-2 1.33-.89 2.62.11 3.89.43 1.34.34 2.77.4 4.14.27 2.81-.28 5.54-1.46 7.59-3.42 4.18-4 4.7-9.94 2.56-15.06-1.15-2.75-3.1-5.09-5.7-6.57-2.7-1.54-5.95-2.08-9-1.5-.63.12-1.3.28-1.88.03-.74-.32-1.08-1.16-1.41-1.9-1.96-4.42-6.39-7.64-11.2-8.14-6.35-.67-15.27 4.24-14.1 11.66.15.96.27 2.32-1.11 2.34-.82.02-1.91-.74-2.66-1.04-2.25-.92-4.51-1.79-6.79-2.62-4.51-1.64-9.07-3.11-13.69-4.4-3.73-1.04-7.5-1.97-11.29-2.78-.96-.21-1.93-.44-2.9-.59-.52-.08-1.33.02-1.8-.24-1.27-.68-.05-2.32.74-3.02.37-.33.87-.15 1.31-.19 1.92-.18 3.18-1.62 3.21-3.53.02-1.71-1.04-3.39-2.59-4.1s-3.52-.41-4.8.72c-.7.63-1.32 1.47-1.47 2.42-.19 1.26.61 1.73.99 2.77.63 1.72-2.97 3.12-4.09 3.8-1.55.93-3.62.7-5.39.87-1.63.15-3.27.05-4.89.32-2.24.37-4.45.88-6.63 1.53-8.08 2.42-15.19 6.7-20.93 12.9-2.05 2.21-3.87 4.63-5.36 7.26-.76 1.34-1.5 2.75-2.01 4.2-.33.93-.85 2.5-1.88.9-1.53-2.36-.51-4.69-.2-7.21.35-2.77.22-5.6-.4-8.32-.08-.36-.16-.79.09-1.07.38-.43 1.07-.1 1.55.19 4.81 2.94 11.7-.47 13.91-5.17 1.38-2.95 1.67-6.39.79-9.53-.62-2.19-1.8-4.22-3.39-5.85-.77-.79-1.57-1.46-2.57-1.91-.86-.39-1.76-.54-1.97-1.57-.17-.82.16-1.68.22-2.5.08-1.19.07-2.38-.15-3.55-.37-2.01-1.2-3.95-2.44-5.58-1.15-1.52-2.64-2.76-4.32-3.65-1.46-.77-3.46-1.58-5.12-1.65-3.6-.15-7.35 2.16-9.64 4.79-2.6 2.99-3.81 7.16-3.12 11.06.08.43.17.87.08 1.29-.18.78-1.05.85-1.65 1.18-3.19 1.73-5.6 4.84-6.41 8.38-.8 3.53.06 7.43 2.33 10.25 3.26 4.05 9.24 5.5 13.98 3.5 1.81-.77 2.01 1.03 2.46 2.46.37 1.16.68 2.34.82 3.56.2 1.7.11 3.89-.89 5.36-1 1.48-3.27-.04-4.42-.72-2.36-1.39-5.05-2.26-7.54-3.51-.37-.19-.74-.37-1.11-.55-4.66-2.24-9.55-3.99-14.57-5.22-1.26-.31-2.54-.52-3.81-.77-1.21-.23-2.4-.55-3.63-.72-1.19-.16-2.34.05-3.27-.86-.35-.34-.63-.73-.94-1.1-.37-.44-.78-.85-1.22-1.22-.34-.29-.86-.45-.65-.98.2-.5 1.28-.75 1.72-1 .67-.37 1.3-.82 1.86-1.33 1.16-1.04 2.09-2.36 2.61-3.85.88-2.54.48-5.53-1.22-7.62-.97-1.19-2.31-2.14-3.75-2.65-1.04-.37-2.16-.45-3.25-.31-.65.08-1.6.45-1.72-.54-.08-.65-.35-1.27-.76-1.79-.27-.34-1.19-.54-1.2-1.05-.01-.29.39-.42.7-.51.09-.03.17-.05.23-.08 1.74-.71 3.53-1.33 5.31-1.94 2.22-.76 4.43-1.54 6.63-2.37 4.39-1.64 8.74-3.42 13-5.38 6.85-3.15 13.45-6.84 19.81-10.88 3.56-2.27 6.93-2.37 10.05.24 9.52 7.96 21.11 11.67 32.39 16 4.52 1.73 9.35 2.65 13.81 4.45 4.54 1.83 9.19 3.39 13.92 4.67 3.98 1.07 7.93 1.66 11.97 2.38 7.95 1.42 15.78 2.85 23.82 3.56 12.06 1.07 24.32 2.17 36.41 1.82 5.73-.18 7.61 1 7.78 6.4.42 11.73 1.2 23.42.86 35.07zm-273.3-14.07c-.06.04-.12.08-.17.11-2.09 1.3-4.77 1.16-6.92.04-1.99-1.03-3.41-3.15-3.48-5.39s1.28-4.5 3.34-5.39c1.61-.7 3.41-.54 5.06-.08.76.21 2.94 1.85 3.51 1.84 2.43-.05.48-3.3.41-4.51-.11-1.97.7-4.04 2.24-5.3 2.43-2 6.38-1.79 8.58.45 1.55 1.58 2.18 3.92 1.92 6.11-.31 2.7-3.44 4.62-2.71 7.53.56 2.24 2.69 3.4 3.5 5.45.72 1.83.34 4.06-.83 5.62-1.97 2.62-5.96 3.46-8.82 1.85-1.9-1.07-3.13-3.13-3.39-5.27-.21-1.75.73-5.06-2.24-3.06zm119.63-36.41c-1.01-1.45-1.76-3.12-1.92-4.88-.24-2.69 1.53-5.58 3.85-6.9 1.85-1.05 4.17-1.26 6.18-.55 2.75.97 4.61 3.48 4.93 6.35.29 2.64-.66 5.3-2.16 7.49-.25.37-1.17 1.41-.76 1.93.44.54 1.66-.25 2.13-.44 1.89-.74 4.17-.07 5.58 1.4 1.41 1.46 2 3.59 1.86 5.62-.12 1.63-.69 4.12-1.92 5.3-1.09 1.04-3.07 1.71-4.53 1.82-1.84.13-3.71-.44-5.26-1.44-.72-.47-1.46-1.2-2.29-1.47-.77-.25-1.32.17-2.02.51-.94.46-1.83 1.01-2.8 1.42-2.17.9-4.73.97-6.84-.07-.64-.31-1.22-.73-1.73-1.23-1.6-1.57-1.76-3.55-1.96-5.64-.19-1.97.88-3.98 2.49-5.09 1.99-1.38 4.62-1.58 7-1.09 2.73.56.95-1.93.17-3.04zm72.6 34.57c.07.11.24.21.52.28.76.2 1.58-.2 2.37-.06.6.11 1.51.38 2.05.7 1.45.85 2.2 3.14 2.44 4.7.27 1.8-.11 3.73-1.23 5.15-1.7 2.16-5.02 2.78-7.45 1.49-2.11-1.12-3.29-3.4-3.38-5.73-.02-.51.19-1.57-.36-1.89-.71-.42-1.63 1.53-2.13 2.04-2.1 2.15-5.64 2.75-8.3 1.35s-4.16-4.72-3.41-7.63c.58-2.25 2.5-4.07 4.74-4.66 1.66-.44 4.37 1.07 4.96-1.48.36-1.55.2-3.13 1.4-4.36 1.21-1.24 2.93-2 4.67-1.98 2.31.02 4.56 1.42 5.61 3.48.83 1.62.88 3.6.21 5.29-.35.89-.76 1.2-1.49 1.76-.28.21-1.54 1.06-1.22 1.55zm-10.71-14.53c-.34.49-.58 1.04-.73 1.61-.1.36-.2.7-.63.48-.57-.28-.8-1.26-1.12-1.78-.39-.64-.83-1.24-1.32-1.8-.41-.47-.86-.91-1.33-1.31-.18-.16-1.23-.74-1.04-1.05.23-.38 1.27-.32 1.64-.34.7-.05 1.41-.05 2.12-.02.8.04 5.56.34 4.83 1.95-.18.4-.6.61-.97.85-.57.37-1.06.85-1.45 1.41zm48.48 6.33c-.29-.71-.53-1.45-.66-2.26-.39-2.29-.02-4.77 1.37-6.63 1.54-2.07 4.25-3.15 6.81-2.86s4.91 1.89 6.25 4.09c.87 1.42 1.28 3.03 1.37 4.68.04.68-.46 3.73.92 3.56.33-.04.91-.82 1.18-1.04.44-.36.91-.68 1.4-.97 1.02-.6 2.14-1.05 3.3-1.31 3.42-.77 7.44 1.49 9.38 4.32 1.71 2.49 1.78 5.97.29 8.59-1.49 2.63-4.44 4.33-7.46 4.42-1.85.06-3.7-.47-5.28-1.43-.79-.48-1.53-1.06-2.15-1.75-.37-.41-1.02-1.77-1.71-1.25-.41.31-.01 1.21.01 1.62.04.77-.07 1.54-.3 2.28-.46 1.46-1.39 2.73-2.35 3.91-1.87 2.3-4.66 3.67-7.68 3.32-2.7-.31-5.2-2.06-6.36-4.51-.81-1.72-.87-3.61-.35-5.42.54-1.89 1.82-3.05 2.88-4.66.41-.62 1.08-1.64 1.11-2.4.03-.78-.64-1.69-1.02-2.33-.38-.61-.68-1.31-.95-1.97z"/><path d="m119.67 185.28c-.01-.13-.02-.26-.03-.38-.05-.59-.1-1.19-.33-1.74-.24-.57-.67-.98-1.26-1.15s-1.25-.01-1.68-.55c-.25-.32-.36-.72-.47-1.11-.58-1.97-1.5-3.84-2.72-5.49-.43-.58-1.25-1.52-.79-2.25.42-.68 1.35-1.12 1.85-1.79 1.25-1.66 2.12-3.61 2.41-5.67.44-3.07-.44-6.35-2.52-8.65-1.2-1.32-2.8-2.28-4.53-2.74-.88-.23-1.8-.33-2.71-.29-.85.04-1.6-.12-2.45-.12-.82 0-1.64 0-2.46 0-1.05 0-2.1 0-3.15 0-.66 0-1.92-.18-2.34.44-.27.4-.29.91-.3 1.4-.01.65-.02 1.31-.03 1.96-.01.35 0 .71.18 1.01.41.67 1.5.07 2 .62.59.65.34 2.2.34 3v5.87 9.08 3.28c0 .51.09 1.09-.23 1.52-.5.67-1.49.56-1.78 1.46-.31.98-.1 2.09-.02 3.08.04.49.12 1.02.47 1.35.39.37.99.39 1.53.39 1.47-.01 2.93-.02 4.4-.03.75-.01 1.56-.04 2.13-.52.81-.67.79-1.89.7-2.94-.05-.58-.11-1.18-.42-1.67-.51-.79-1.46-.35-1.61-1.44-.09-.67 0-1.42 0-2.1 0-1.27 0-2.55 0-3.82-.09-.25 0-.49.23-.62s.51-.13.77-.11c1.47.13 2.78 1.05 3.69 2.21 1.78 2.28 2.15 5.36 3.5 7.86.66 1.22 1.68 2.3 2.99 2.75 1.09.38 2.81.42 3.91 0 .82-.3.8-1.26.73-2.1zm-8.05-18.9c-.45.85-1.2 1.75-2.09 2.15-.98.44-2.36.19-3.43.19-.46 0-1.12.12-1.57 0-.85-.23-.75-.99-.79-1.74-.1-1.75-.03-3.52-.03-5.28 0-.81-.13-1.74-.04-2.53.1-.87 2.43-.62 2.97-.6 1.24.05 2.96-.3 3.87.71 1.12 1.24 1.79 3.1 1.74 4.77-.04.82-.25 1.62-.63 2.33z"/><path d="m164.05 169.05c-.3-.25-.62-.49-.95-.72-1.78-1.22-3.55-2.44-5.3-3.7-.76-.55-1.53-1.12-2.07-1.88s-.83-1.77-.51-2.65c.29-.84 1.08-1.43 1.93-1.68s1.76-.19 2.64-.04c2.49.42 4.84 1.57 6.71 3.26.2.18.4.37.65.46s.57.05.72-.17c.1-.15.11-.35.11-.53 0-1.46-.01-2.91-.01-4.37 0-1.91-3.11-3.32-4.67-3.79-1.88-.57-3.88-.66-5.84-.6-1.86.05-3.77.24-5.42 1.1-1.6.82-2.87 2.25-3.51 3.94-1.92 5.1 1.82 9.41 5.8 12.03 1.68 1.11 3.72 1.9 4.98 3.36 2.05 2.39 2.04 5.82-1.11 7.06-1.85.73-3.95.71-5.82.07-.94-.32-1.82-.8-2.58-1.43-.72-.59-1.22-1.12-1.95-.16-.44.57-.88 1.15-1.32 1.72-.31.4-1 .88-1.1 1.4-.11.56.49 1.01.88 1.41.88.91 1.89 1.7 2.98 2.34 4.63 2.7 11.31 2.69 15.59-.74 2.28-1.82 3.77-4.7 3.63-7.61-.08-1.73-.72-3.4-1.66-4.85-.81-1.25-1.71-2.32-2.8-3.23z"/><path d="m196.25 163.74c.6-.94.23-2.85.21-3.67-.03-1.8-.08-3.61-.08-5.41 0-.24.11-.87-.03-1.08-.34-.51-1.57-.27-2.09-.27-4.84 0-9.67 0-14.51 0-2.28 0-4.57 0-6.85 0-.64 0-1.39-.19-2.01.02-.69.24-.57.64-.56 1.25.03 1.04 0 2.08 0 3.13 0 1.42.01 2.84 0 4.26-.01.72-.25 2.71 1.08 2.25.82-.28 1.4-1.68 1.84-2.35.53-.83 1.03-1.68 1.53-2.53.45-.78 1.45-.74 2.23-.7.82.04 1.96-.12 2.71.2.74.31.88 1.04.92 1.76.08 1.3 0 2.64 0 3.94v9.3 4.5c0 .51-.15 1.3 0 1.8.11.35.17.72.09 1.08-.3 1.29-2.35.44-3.01 1.28-.36.45-.26.99-.25 1.53 0 .63.03 1.26.07 1.89.02.32.05.66.25.92.7.93 2.69.61 3.72.61h4.44c.63 0 1.48.2 1.96-.27.46-.44.6-.95.68-1.57.08-.57.16-1.15.12-1.72-.09-1.29-.62-1.68-1.68-2.2-1-.49-.87-1.17-.87-2.23 0-2.96 0-5.92 0-8.88 0-2.75 0-5.51 0-8.26 0-.84-.06-1.71 0-2.55.03-.4.35-.68.2-1.04 2.08.1 4.48-.64 5.82 1.3.64.93 1.29 1.85 1.92 2.78.34.51.62 1.64 1.46 1.45.31-.1.53-.27.69-.52z"/><path d="m218.77 168.7c-.05-.85-.12-1.7-.19-2.55-.26-3.13-.77-6.34-2.61-8.96-1.68-2.38-5.09-4.03-7.93-4.26-2.29-.18-4.64.47-6.53 1.78-1.98 1.37-2.83 3.38-3.42 5.65-1.47 5.6-1.26 11.26-.5 16.94.64 4.71 3.01 8.3 7.7 9.94.75.26 1.54.45 2.33.54 3.29.36 6.32-1.16 8.69-3.33 2.77-2.53 2.73-6.94 2.66-10.42-.02-1.78-.09-3.56-.2-5.33zm-10.11 12.88c-2.73.16-4.76-1.77-5.29-5.41-.32-2.21-.32-4.44-.4-6.66-.08-2.31.04-4.62.36-6.91.32-2.35 2.56-3.5 4.79-3.4 2.56.12 3.93 1.71 4.18 4.14.43 4.07.84 8.16.99 12.25.13 3.45-1.89 5.83-4.63 5.99z"/><path d="m253.08 163.47c.06-.21.11-.42.17-.63.23-.89.34-2.61.93-3.32.51-.6 1.51-.4 2.13-.82.48-.32.65-.82.74-1.38.17-1.02.56-3.86-.68-4.12-.75-.15-1.69 0-2.44 0-2.06 0-4.09-.87-4.73 1.78-.71 2.94-1.52 5.85-2.26 8.78-.33 1.3-.6 2.62-.91 3.93-.16.66-.43 3.55-1.56 2.75-.55-.38-.6-1.36-.8-1.94-.83-2.41-1.67-4.83-2.5-7.24-.53-1.53-.88-3.43-1.66-4.84-.44-.78-1.73-.91-2.23.03-.77 1.47-1.15 3.32-1.7 4.89-1.15 3.31-2.3 6.62-3.45 9.93-.04.12-.09.25-.18.34-.79.82-1.26-1.22-1.4-1.64-.37-1.18-.83-2.31-1.3-3.45-.74-1.84-1.49-3.68-2.23-5.52-.63-1.55-1.26-3.1-1.88-4.66-.31-.77-.59-1.57-.94-2.33-.33-.71-.46-.67-1.28-.69-1.57-.05-3.14-.1-4.71-.15-.23-.01-.49 0-.65.16-.12.13-.14.33-.16.51-.08 1.06-.17 2.12-.25 3.18-.03.38-.06.93.21 1.25.5.59 1.64.21 2.3.65.68.46.86 1.43 1.12 2.15.91 2.54 1.85 5.07 2.84 7.58 1.97 5.03 4.08 9.99 6.35 14.9.42.92.7 1.77 1 2.71.35 1.1 1.55 1.36 2.57 1.09 1.22-.33 1.29-2.24 1.6-3.31.96-3.32 1.92-6.64 2.87-9.96.2-.7.53-1.69 1.07-.72.57 1.01.79 2.44 1.15 3.54.83 2.52 1.66 5.04 2.48 7.56.23.69.48 1.42 1.03 1.89.65.55 1.97.8 2.78.47.86-.35.77-1.38.97-2.15 1.28-4.85 2.55-9.7 3.83-14.55.6-2.22 1.18-4.43 1.76-6.65z"/><path d="m280.22 158.98c.3-.5.95-.38 1.27-1.02.44-.86.03-2.69-.03-3.62-.02-.3-.05-.62-.26-.83s-.54-.24-.84-.26c-1.82-.09-3.61.11-5.42.15-.87.02-2.8-.54-2.72 1.03.05 1.02-.2 2.74.26 3.67.4.81.95.12 1.47.55.28.23.33.62.37.98.06.62.12 1.23.18 1.85 0 1.21.45 12.81-.33 12.87-.37.03-1.23-2.21-1.4-2.54-.53-1.05-1.06-2.09-1.58-3.14-1.06-2.09-2.11-4.18-3.17-6.27-.98-1.94-1.96-3.88-2.94-5.82-.38-.74-.83-1.4-1.22-2.13-.28-.53-.68-1.5-1.43-1.48-.78.02-2.96-.31-3.46.45-.29.44 0 1.26.01 1.77.02.83 0 1.67 0 2.5v7.71 8.64 4.32c0 .72-.03 1.44 0 2.16.01.32.24 1.04.03 1.29-.15.18-.39.26-.62.31-.23.06-.47.1-.66.24-.38.29-.4.85-.39 1.33.02.6.04 1.2.06 1.79.03.79.12 1.61.94 1.82 1.01.26 2.42 0 3.47 0 1.06 0 4.17.6 4.16-1.01-.01-1.11-.02-2.21-.02-3.32-.01-.98-1.16-.8-1.52-1.44-.13-.23-.14-.51-.15-.78-.06-2.65-.1-5.3-.11-7.94-.01-1.33-.01-2.65-.01-3.98 0-.49-.21-1.1.39-.93.3.08.57.64.72.88.46.7.88 1.42 1.26 2.16.73 1.44 1.34 2.86 2.14 4.27 1.75 3.09 3.39 6.25 4.93 9.45.8 1.68 1.22 2.52 3.18 2.55.86.01 2.78.14 3.33-.7.33-.49.09-1.67.08-2.24-.01-.89-.02-1.77-.03-2.66-.04-3.43-.1-6.87-.1-10.3 0-2.99 0-5.98 0-8.97 0-.95-.15-2.04 0-2.98.05-.14.1-.27.16-.38z"/><path d="m142.93 181.37c.92-1.47 1.6-3.1 2.04-4.78.81-3.05 1.14-6.48.42-9.55-.68-2.92-1.8-5.76-3.58-8.19-1.76-2.4-4.24-4.36-7.09-5.28-3.1-1-6.46-.42-9.65-.42-.79 0-2.04-.23-2.64.43-.84.93-.43 2.83-.27 3.94.07.53.03.79.48 1.09.12.08 1.26.35 1.26.05v9.65 8.38c0 1.13.55 4.24-.41 5.1-.85.76-1.91-.33-2.47.94-.33.74-.07 1.68.06 2.44.09.56-.09 1.33.31 1.78.41.47 1.14.41 1.7.4 2.06-.03 4.12-.01 6.17-.01h3.83c2.87 0 5.62-1.33 7.69-3.32.84-.81 1.55-1.7 2.15-2.65zm-7.1-1.3c-.05.05-.1.1-.15.15-.75.75-5.35 2.51-5.75.52-.21-1.02.03-2.09.03-3.12 0-1.65 0-3.29 0-4.94 0-2.87 0-5.73 0-8.6 0-1.06 0-2.12 0-3.18 0-.89-.25-1.88.9-2.06 1.98-.31 4.01.73 5.29 2.28 1.29 1.54 1.94 3.52 2.36 5.48.56 2.65.74 5.43.13 8.07-.47 2-1.4 3.91-2.81 5.4z"/><path d="m95.4 185.31c.07-.78.06-1.57-.11-2.34-.17-.74-.61-.82-1.27-.88-.97-.09-1.06.06-1.51-.93-.79-1.79-1.54-3.6-2.29-5.4-1.48-3.55-2.91-7.12-4.29-10.7-1.11-2.87-2.18-5.75-3.23-8.64-.87-2.4-2.22-3.85-4.95-2.89-.98.35-1.23.98-1.52 2.01-.88 3.23-1.67 6.44-2.51 9.69-1.03 3.99-2 7.99-2.91 12.01-.26 1.16-.51 2.32-.77 3.48-.09.4-.09 1.04-.42 1.28-.75.55-1.5-.19-2.07.79-.55.95-.49 2.04-.4 3.09.06.78.29 1.52 1.09 1.58.73.05 1.48 0 2.2 0h4.04c.84 0 1.89.02 2.26-.93.39-1 .13-2.65-.05-3.67-.14-.76-.79-.53-1.32-.76-.73-.32-.64-1.29.05-1.65.39-.2.85-.19 1.29-.18l8.34.18c.41.01.82.02 1.2.18.31.13.76.53.82.87.09.53-.27.37-.56.73-.43.52-.2 1.37-.2 1.97 0 1.01-.41 2.75.78 3.21.52.2 1.06 0 1.6.02.64.02 1.28-.06 1.93-.06 1.13 0 3.45.46 4.35-.44.24-.24.3-.59.35-.92.03-.24.06-.47.08-.7zm-18.51-11.71c.54-2.11 1.08-4.21 1.62-6.32.23-.89.84-2.9 1.97-1.64.66.73.89 1.92 1.24 2.81.78 1.96 1.62 3.92 2.08 5.98.31 1.36-.94 1.29-1.92 1.29-1.42 0-2.85 0-4.27 0-.82 0-1.27.04-1-1.01.09-.37.18-.74.28-1.11z"/><path d="m36.1 99.08c-.02-.89-.24-2.44 1.01-2.41 1.2.02 2.64-.3 3.62.55.59.51.88 1.53 1.21 2.24.47 1.02.89 2.07 1.3 3.11.19.48.38.98.73 1.37.95 1.05 2.07.26 2.56-.78 0-.34 0-.68 0-1.01 0-2.14-.08-4.28-.07-6.42 0-.88.02-1.76.07-2.63.05-.73-.27-1.41-.98-1.69-1.07-.4-2.12-.23-3.23-.23-2.2 0-4.4 0-6.61 0-4.19 0-8.39 0-12.58 0-1.2 0-2.4.02-3.6 0-.81-.02-1.5-.13-2.11.54-.88.97-.7 2.59-.7 3.77v6.46c0 .92-.09 1.94.9 2.42.88.43 2.02-.42 2.43-1.2.69-1.32 1.39-2.63 2.08-3.95.54-1.02.94-2.43 2.33-2.46 1-.02 2.88-.39 3.75.25.86.63.59 2.46.59 3.44v4.78 12.64c0 2.99-.07 5.98-.11 8.96-.01.73.28 2.21-.17 2.83-.48.66-1.52.39-2.19.65-.82.31-1.04.87-1.05 1.68-.02 1.05-.59 3.55.99 3.56h1.97 6.38 2.68c.56 0 1.36.17 1.71-.34.53-.75.4-1.89.4-2.76 0-1.05-.21-1.86-1.27-2.12-.6-.15-1.8-.1-2.09-.79-.16-.38 0-1.17.01-1.59 0-.5.01-.99.02-1.49.01-.99.02-1.98.01-2.97-.03-2.45.02-4.89.02-7.34 0-4.15 0-8.31 0-12.46 0-1.5 0-3 0-4.5-.01-.04-.01-.08-.01-.11z"/><path d="m70.72 129.17c.66-1.67.92-3.5.92-5.42 0-4.41 0-8.82 0-13.23 0-1.7 0-3.4 0-5.11 0-1.72.15-3.43-.47-5.09-.34-.9-.62-1.81-1.01-2.69-.77-1.72-1.83-3.3-3.3-4.5-2.38-1.95-5.47-2.77-8.5-2.25-2.59.44-5.06 1.64-7.01 3.41-1.77 1.61-3.24 3.84-3.24 6.26v5.37 13.59c0 1.56.17 3.18.35 4.73.41 3.59 1.75 7.11 4.68 9.37 4.39 3.39 11.22 3.05 15.18-.84 1.11-1.06 1.88-2.28 2.4-3.6zm-9.9-.55c-.74.12-1.5.07-2.2-.18-1.62-.57-2.76-2.08-3.31-3.7-.74-2.19-.58-4.49-.58-6.76 0-2.14 0-4.27 0-6.41 0-3.01-.38-6.25.32-9.2.31-1.33.98-2.62 2.08-3.43 1.72-1.27 4.29-1.05 5.93.31 1.27 1.05 1.97 2.67 2.07 4.29.12 1.91.16 3.85.16 5.77v11.44c0 1.16.06 2.4-.16 3.55-.32 1.64-1.61 3.26-3.11 3.95-.38.18-.79.3-1.2.37z"/><path d="m193.31 129.17c.66-1.67.92-3.5.92-5.42 0-4.41 0-8.82 0-13.23 0-1.7 0-3.4 0-5.11 0-1.72.15-3.43-.47-5.09-.34-.9-.62-1.81-1.01-2.69-.77-1.72-1.83-3.3-3.3-4.5-2.38-1.95-5.47-2.77-8.5-2.25-2.59.44-5.06 1.64-7.01 3.41-1.77 1.61-3.24 3.84-3.24 6.26v5.37 13.59c0 1.56.17 3.18.35 4.73.41 3.59 1.75 7.11 4.68 9.37 4.39 3.39 11.22 3.05 15.18-.84 1.1-1.06 1.87-2.28 2.4-3.6zm-9.91-.55c-.74.12-1.5.07-2.2-.18-1.62-.57-2.76-2.08-3.31-3.7-.74-2.19-.58-4.49-.58-6.76 0-2.14 0-4.27 0-6.41 0-3.01-.38-6.25.32-9.2.31-1.33.98-2.62 2.08-3.43 1.72-1.27 4.29-1.05 5.93.31 1.27 1.05 1.97 2.67 2.07 4.29.12 1.91.16 3.85.16 5.77v11.44c0 1.16.06 2.4-.16 3.55-.32 1.64-1.61 3.26-3.11 3.95-.38.18-.79.3-1.2.37z"/><path d="m220.78 129.13c.68-1.7.93-3.56.93-5.51 0-4.49 0-8.97 0-13.46 0-1.73 0-3.46 0-5.2 0-1.75.15-3.49-.48-5.18-.34-.92-.63-1.84-1.03-2.74-.78-1.75-1.86-3.35-3.36-4.58-2.42-1.99-5.56-2.82-8.65-2.29-2.63.45-5.15 1.67-7.13 3.47-1.8 1.64-3.3 3.91-3.3 6.37v5.47 13.83c0 1.59.17 3.23.35 4.82.42 3.65 1.78 7.23 4.77 9.54 4.47 3.45 11.42 3.11 15.45-.85 1.13-1.11 1.92-2.35 2.45-3.69zm-10.08-.56c-.75.12-1.53.07-2.24-.18-1.64-.58-2.8-2.11-3.36-3.77-.76-2.23-.59-4.57-.59-6.88 0-2.17 0-4.35 0-6.52 0-3.06-.38-6.36.33-9.36.32-1.35 1-2.67 2.12-3.49 1.75-1.29 4.37-1.07 6.04.32 1.29 1.07 2.01 2.71 2.11 4.37.12 1.94.16 3.92.16 5.87v11.65c0 1.18.06 2.45-.17 3.61-.32 1.66-1.64 3.32-3.17 4.02-.4.16-.81.29-1.23.36z"/><path d="m108.95 104.74c.01-1.51.04-3.02.05-4.53 0-.77 0-1.54-.02-2.32-.03-2.1 3.08-.38 3.7-1.74.19-.42.18-.9.15-1.36-.03-.56-.05-1.12-.08-1.68-.02-.38-.04-.76-.17-1.12-.32-.87-1.05-.79-1.84-.81-1.3-.03-2.61-.06-3.91-.08-.7-.01-1.45-.02-2.06.33-.51.29-.85.78-1.18 1.26-2.03 2.94-4.06 5.87-6.09 8.81-1.01 1.47-2.03 2.93-3.04 4.4-.72 1.04-1.29 1.84-2.2.52-.76-1.1-1.52-2.19-2.28-3.28-1.52-2.19-3.03-4.38-4.55-6.57-.6-.87-1.2-1.73-1.8-2.6-.5-.72-1.03-1.9-1.72-2.44-1.24-.96-3.73-.35-5.19-.35-.91 0-1.81 0-2.72 0-1.12 0-1.45.55-1.61 1.68-.11.78-.11 1.58.03 2.36.11.65.4 1.38 1.03 1.58.9.28 2.07.03 2.69.93.29.42.22.94.22 1.43v2.63 7.92c0 3.46-.02 6.92-.05 10.38-.01 1.71-.02 3.42-.03 5.12 0 .87-.01 1.75-.01 2.62 0 .53.27 1.6-.32 1.86-.83.37-2.11-.17-2.58.87-.37.83-.53 1.75-.43 2.65.08.76-.02 1.56.65 2.08.57.44 1.34.3 2.02.3h2.96 3.47c1.06 0 2.28.17 3.33-.02 1.29-.23 1.39-1.95 1.33-2.98-.04-.58-.12-1.2-.32-1.75-.28-.76-.85-.79-1.6-.78-.36.01-.72-.19-.92-.49-.58-.89-.22-2.88-.22-3.89 0-3.36 0-6.72 0-10.07 0-1.2 0-2.41 0-3.61 0-1.29-.18-2.57-.08-3.86.02-.35-.05-1.41.38-1.56.71-.25 1.51 1.81 1.74 2.22 1.28 2.21 2.55 4.42 3.83 6.63.76 1.31 1.51 2.62 2.3 3.92.25.4.5.81.87 1.11s.88.46 1.32.31c.48-.17.77-.64 1.03-1.08 1.27-2.21 2.52-4.43 3.76-6.66.62-1.11 1.24-2.23 1.86-3.34.32-.57 1.09-2.39 1.51-.82.1.38 0 .94 0 1.33v3.79 9.34 6.68c-.61-.01-1.44-.21-1.93.25-.81.74-.61 2.28-.49 3.24.16 1.24.49 2.13 1.94 2.23 2.24.15 4.52.07 6.76.06.82 0 1.72-.05 2.3-.62 1.01-.99.99-4.44-.5-4.92-.74-.24-1.11-.08-1.29-.84-.19-.79 0-1.85 0-2.67 0-1.72 0-3.44 0-5.16 0-5.38 0-10.77 0-16.15 0-.24 0-.46 0-.69z"/><path d="m134.57 233.72c-.18-.67-.54-1.23-1.31-1.53-1.34-.53-2.96-.16-4.36-.16-1.44 0-2.88 0-4.32 0-1.32 0-2.27.3-2.84-1.12-.37-.93-.21-2.09-.21-3.06 0-1.46 0-2.92 0-4.38 0-3.72 0-7.43 0-11.15 0-1.75.81-7.3-1.13-8.1-.72-.3-1.97-.09-2.73-.04-.96.06-1.86.71-2.23 1.6-.27.65-.44 1.3-.68 1.96v5.66 16.57c0 1.82-.02 3.63 0 5.45.01 1.04-.26 2.12.83 2.76 1.68.98 4.89.44 6.75.44 1.97 0 3.95-.04 5.92 0 1.48.03 3.02.27 4.5.01 1.33-.23 2.09-.97 1.99-2.27-.03-.84.04-1.82-.18-2.64z"/><path d="m152.68 226.49c-.41-.74-.91-1.43-1.48-2.07-2.75-3.06-5.7-5.95-8.82-8.64-.8-.69-1.63-1.39-2.12-2.32s-.56-2.18.12-2.98c.64-.76 1.82-.92 2.73-.53 1.06.45 1.28 1.38 2.02 2.11.86.85 2.11.72 3.19.51.57-.11 1.2-.27 1.5-.76.26-.44.17-.99.03-1.48-.49-1.8-1.59-4.31-3.31-5.23-2.07-1.11-4.79-1.33-7.03-.71-2.5.68-4.7 2.53-5.62 4.94-.64 1.67-.66 3.56-.16 5.27 1.34 4.61 5.93 7.25 9.29 10.32 1.72 1.56 2.96 3.27 3.8 5.44.71 1.81-1.27 3.77-3.18 2.95-.99-.42-1.55-1.5-2.48-2.04-.77-.45-1.73-.48-2.6-.27-.71.17-2.71.65-3.1 1.29-.5.8.35 2.18.72 2.87 1.66 3.09 5.17 5.06 8.67 4.92s6.82-2.36 8.34-5.52c1.26-2.64.87-5.59-.51-8.07z"/><path d="m178.5 231.66c.13-.5.24-1.01.33-1.53.32-1.96.33-3.95.33-5.94.01-6.42.24-15.48-6.36-18.9-2.81-1.46-6.25-1.54-9.21-.42-2.05.77-3.92 2.13-5.01 4.02-1.14 1.97-1.35 4.33-1.52 6.6-.07.96-.14 1.93-.2 2.89-.3 5.03-.3 10.2 1.26 15.05 1.32 4.08 6 6.49 10.14 6.3.45-.02.9-.07 1.35-.15 2.03-.37 3.94-1.32 5.48-2.69.94-.83 1.9-1.64 2.48-2.76.4-.79.71-1.62.93-2.47zm-5.1-11.41c.12 2.27.07 4.54-.15 6.8-.23 2.37-.87 5.39-3.49 6.18-2.08.62-4.52-.51-5.49-2.42-.71-1.39-.85-2.99-.99-4.55-.26-3.01-.51-6.09.04-9.08.41-2.22 1.66-5.08 4.09-5.73 1.48-.4 3.12.25 4.16 1.38 1.63 1.78 1.61 4.19 1.78 6.46.01.31.03.63.05.96z"/><path d="m155.44 274.52c-.71-.97-1.4-1.95-2.09-2.94-.91-1.32-1.78-2.12-.37-3.39 1.52-1.37 3.05-2.73 4.57-4.1.8-.72 1.56-1.5 2.37-2.21.59-.52 1.33-1.24 2.15-1.28.42-.02.87.1 1.27-.04.55-.2.82-.83.9-1.41.14-.98.16-2.67-.3-3.58-.23-.45-1.62-.23-2.06-.23-1.1 0-2.19 0-3.29 0-1.29 0-2.58-.04-3.87-.02-.49.01-1.05-.05-1.54.01-1.58.21-1.29 1.47-1.29 2.67 0 .34-.06.7-.06 1.04 0 .68.76 1.14.71 1.78-.04.5-1.38 1.21-1.78 1.52-1.48 1.12-2.96 2.24-4.44 3.36-1.12.84-2.25 1.69-3.38 2.53-.82.61-2.02 2.09-3.04 1.21-.55-.48-.6-1.3-.61-2.04-.01-1.8-.03-3.61-.04-5.41 0-.35 0-.73.22-1 .44-.55 1.32-.27 2-.47 1-.29 1.06-1.41 1.01-2.27-.08-1.47.19-3.03-1.71-3.03-1.87 0-3.74 0-5.6 0-1.28 0-2.74-.21-3.94.22-.78.28-.78.92-.68 1.62.08.59 0 1.18.02 1.78.01.46.1 1.23.5 1.54 1.07.81 2.55-.17 2.6 1.71.02.76 0 1.52 0 2.28v6.61 9.26c0 1.29-.08 2.54-.09 3.83-.77 0-1.68.07-2.07.74-.2.34-.2.75-.19 1.15.01.7.01 1.4.02 2.1 0 .47.04 1 .4 1.29.47.38 1.65.18 2.26.18h2.96c1.01 0 2.01.16 3.01.11 1.43-.07 2.83-.17 2.74-1.93-.04-.81-.08-1.61-.12-2.42-.01-.25-.03-.5-.13-.72-.52-1.09-3.2.4-2.8-1.43 0-.6 0-1.21 0-1.81 0-.79.06-1.58.41-2.3.36-.77 1.1-1.2 1.76-1.73 1.68-1.36 3.37-2.72 5.05-4.09 1.05-.85 1.42.23 2.03 1.04.75.98 1.47 1.99 2.16 3.02.72 1.07 1.4 2.17 2.05 3.29.47.81 1.12 1.54 1.46 2.43.49 1.27-.44.63-1.02 1.21-.24.24-.28.62-.31.96-.07.86-.14 1.73-.11 2.6.02.48.08.99.37 1.38.43.57 1.94.3 2.62.3h3.61 5.02c.5 0 .97-.25 1.31-.62.33-.37.53-.85.63-1.34.16-.79.13-2.49-.6-3.05-.37-.29-.86-.35-1.33-.38-.47-.02-.95-.01-1.39-.18-.56-.21-.98-.67-1.38-1.12-2.28-2.65-4.48-5.4-6.56-8.23z"/><path d="m202.36 257.9c.07-1.1.02-2.26-1.13-2.56-.65-.17-1.58 0-2.25 0-1.94 0-3.88 0-5.82 0-.85 0-1.7-.29-2.55-.16-.59.09-1.18.4-1.44.94-.23.47-.18 1.03-.12 1.55.1.87-.11 2.42.82 2.77.81.3 1.76.18.92 1.37-1.43 2.02-2.85 4.04-4.28 6.06-.48.68-1.06 2.07-1.94 2.13-.83.06-1.58-.7-2.08-1.26-1.68-1.92-3.35-3.84-5.03-5.75-.32-.37-.66-.78-.67-1.27-.02-1.25 1.86-.56 2.49-1.2.15-.15.19-.37.23-.57.15-.86.21-1.74.17-2.61-.02-.38-.06-.78-.23-1.12s-.49-.64-.88-.67c-.03-.13-.04-.27-.06-.4-1.99 0-3.98 0-5.97 0-1.42 0-5.78-1.03-6.42.89-.27.8-.33 3.18.08 3.91.44.77 1.2.42 1.9.63 1.25.38 2.1 1.46 2.9 2.43 3.18 3.8 6.51 7.51 9.58 11.4.53.67.48 1.09.48 1.91v4.33c0 .85.07 1.74 0 2.58-.13 1.53-1.65.53-2.72.77-1.17.26-1.21.96-1.26 2.07-.08 1.67-.26 3.13 1.72 3.22 1.23.06 2.48 0 3.72 0 1.8 0 3.67 0 5.46.07.91.04 2.45.17 3.07-.7.55-.78.44-2.84.12-3.68-.54-1.39-2.07-.73-3.17-.91-1.35-.21-1.09-1.5-1.09-2.57 0-1.9 0-3.8 0-5.7.36-.96 1.22-1.65 1.84-2.44.68-.85 1.41-1.65 2.06-2.52 1.87-2.53 3.74-5.07 5.61-7.6.58-.79 1.21-1.65 2.1-2.13.87-.48 3.16-.23 3.62-1.1.13-.24.13-.52.14-.78 0-.4.05-.86.08-1.33z"/><path d="m214.47 235.76c-.3-1.55-1.11-3.07-2.49-3.81-2.66-1.42-5.15 1.12-5.04 3.76.04 1.07.07 2.34 1.23 2.71.49.16 1.06.29 1.3.74.35.64-.18 1.39-.66 1.93s-.97 1.34-.56 1.94c.28.4.84.48 1.33.45 1.68-.12 3.22-1.18 4.09-2.63.87-1.44 1.11-3.21.84-4.87-.01-.07-.02-.14-.04-.22z"/><path d="m237.7 231.11c.26-1.28.07-2.5-1.48-2.93-1.21-.33-2.99-1.12-4-.05-.76.81-.7 2.11-1.69 2.76-.94.61-2.01.97-3.14.82-2.45-.33-3.18-2.36-3.36-4.48-.27-3.2-.07-6.44-.25-9.66-.08-1.45-.08-2.95.35-4.34.42-1.34 1.56-2.04 2.93-2.34 1.64-.36 2.83.56 3.13 2.19.09.47.09 1.06.51 1.3.21.12.46.11.7.1 1.51-.1 4.15-.78 4.39-2.63.16-1.22-.54-2.42-.9-3.54-.38-1.21-1.29-2.3-2.23-3.13-1.86-1.64-4.22-2.2-6.65-1.85-3.78.55-7.18 3.17-8.3 6.88-.42 1.39-.71 2.66-.71 4.1v3.84c0 3.95-.25 7.99 0 11.93.19 3.05 1.34 5.64 3.42 7.87.97 1.03 2.76 1.23 4.1 1.44 1.78.28 3.61.3 5.38-.11 4.03-.92 7-4.19 7.8-8.17z"/><path d="m261.54 212.64c-1.26-3.89-3.83-7.24-7.93-8.36-2.8-.76-5.9-.33-8.38 1.17-3.35 2.02-5.37 5.76-6.15 9.6-.57 2.78-.64 5.82-.59 8.64.07 3.97 1.26 8.41 3.52 11.7 1.2 1.75 2.43 2.78 4.43 3.49 3.2 1.13 7.03.74 9.87-1.14 1.42-.94 2.56-2.26 3.16-3.86 2.56-6.73 4.45-13.87 2.07-21.24zm-7.71 17.93c-.21.39-.45.76-.72 1.08-.92 1.1-3.02 1.35-4.2.49-3.78-2.77-4.12-8.49-3.82-12.78.1-1.46.25-2.97.82-4.31.52-1.23.82-2.69 1.87-3.61 1.11-.97 3.24-1.68 4.64-1.1 1.44.59 2.27 2.22 2.59 3.65.9 3.97 1.11 8.13.24 12.13-.31 1.41-.69 3.09-1.42 4.45z"/><path d="m40.06 184.84c0-.05-.01-.1-.01-.15-.05-.87.03-1.98.84-2.3.31-.12.66-.1.98-.22.77-.31.56-.98.49-1.58-.09-.78.05-1.63.05-2.43.01-1.83-.1-3.66-.1-5.49 0-2.77 0-5.55 0-8.32 0-1.05 0-2.09 0-3.14 0-.64.24-2.07-.2-2.49-.29-.28-.73-.28-1.12-.38-1.04-.27-1.76-1.37-1.71-2.45.06-1.08.8-2.05 1.77-2.52 1.28-.62 2.31-.06 3.58-.12 3.82-.16 7.66-.11 11.48.15.83.06 1.65.24 2.41.56 4.96 2.06 5.86 8.48 3.56 12.87-.43.82-.96 1.58-1.6 2.25-.55.59-1.44 1.05-.3 1.56 1.66.73 3.03 2.1 3.75 3.75.06.13.11.27.16.41 1.09 2.97.06 6.5-2 8.81-1.96 2.2-4.84 3.42-7.76 3.54-3.8.16-7.62.1-11.44.23-.74.02-1.55.02-2.11-.45-.55-.51-.67-1.33-.72-2.09zm8.24-11.36c-.09.59.03 1.38.03 1.78v4.98c0 .49-.23 1.57.25 1.81.25.13 1-.03 1.32-.03 2.88 0 6.86.76 8.29-2.55.68-1.58.32-3.54-.83-4.83-1.49-1.67-4-1.79-6.06-1.79-.58 0-1.16 0-1.75 0-.64 0-1.14-.18-1.25.63zm9.42-10.17c.18-1.41-.42-2.88-1.47-3.84-1.34-1.21-2.92-.82-4.57-.82-.52 0-1.04 0-1.56 0-1.08 0-1.79-.35-1.82 1-.02.81 0 1.62 0 2.43 0 1.28-.07 2.58.04 3.85.08.9.32.86 1.16.89.66.02 1.32.05 1.98.05.95 0 2.37.25 3.26-.06 1.44-.5 2.63-1.76 2.93-3.27.03-.07.04-.15.05-.23z"/><path d="m85.83 238.66c-.93.06-1.98-.49-2.93-1.84-2.05-2.9-4.1-5.79-6.14-8.69-.83-1.17-1.56-2.41-2.33-3.62-.33-.51-1.71-3.27-2.18-1.74-.28.91 0 2.36 0 3.32 0 2.9.14 5.76.24 8.64.06 1.81-.14 4.14-2.46 4.16-1.11.01-2.29 0-3.24-.57-2.76-1.65-1.28-8.67-1.28-11.27 0-3.24 0-6.47 0-9.71 0-2.52 0-5.05 0-7.57 0-1.43-.47-4.32.73-5.28 1.13-.91 3.14-.49 4.37.08 1.36.63 1.99 2.49 2.69 3.71 1.38 2.38 2.8 4.73 4.28 7.05.75 1.18 1.59 2.32 2.3 3.52.52.88.66 1.93 1.9 2.11-.02-1.17-.02-2.37-.02-3.55 0-2.01 0-4.01 0-6.02 0-1.99-1.11-6.44 1.63-7.17.8-.21 3.21-.25 3.93.15 1.1.62 1.13 2.4 1.16 3.52.08 2.85 0 5.72 0 8.57v18.17c-.01 2.32-1.18 3.93-2.65 4.03z"/><path d="m201.72 238.66c-.93.06-1.98-.49-2.93-1.84-2.05-2.9-4.1-5.79-6.14-8.69-.83-1.17-1.56-2.41-2.33-3.62-.33-.51-1.71-3.27-2.18-1.74-.28.91 0 2.36 0 3.32 0 2.9.14 5.76.24 8.64.06 1.81-.14 4.14-2.46 4.16-1.11.01-2.29 0-3.24-.57-2.76-1.65-1.28-8.67-1.28-11.27 0-3.24 0-6.47 0-9.71 0-2.52 0-5.05 0-7.57 0-1.43-.47-4.32.73-5.28 1.13-.91 3.14-.49 4.37.08 1.36.63 1.99 2.49 2.69 3.71 1.38 2.38 2.8 4.73 4.28 7.05.75 1.18 1.59 2.32 2.3 3.52.52.88.66 1.93 1.9 2.11-.02-1.17-.02-2.37-.02-3.55 0-2.01 0-4.01 0-6.02 0-1.99-1.11-6.44 1.63-7.17.8-.21 3.21-.25 3.93.15 1.1.62 1.13 2.4 1.16 3.52.08 2.85 0 5.72 0 8.57v18.17c-.01 2.32-1.18 3.93-2.65 4.03z"/><path d="m110.6 207.74c-.03.82-.32 1.61-.91 2.07-.6.47-1.42.43-2.14.44-1.27.01-2.53 0-3.8 0-.93 0-2.28-.26-3.18 0-1.08.31-.59 3.3-.59 4.23 0 .89-.26 2.25.12 3.08.39.83 2.1.8 3.03.78.29-.01.61-.03.87.11.86.46.79 2.6.79 3.46 0 1.07-.17 2.52-1.48 2.69-1.24.16-3.38-.6-3.12 1.39.2 1.54.15 3.28.15 4.85 0 2.25 2.62 1.59 4.26 1.59 2.47 0 5.3-.6 5.59 2.62.07.8.2 1.86-.21 2.6-.4.71-1.04.64-1.79.64-3.01 0-6.01 0-9.02 0-1.31 0-2.6.06-3.9.13-2.41.12-2.15-2.82-2.15-4.44 0-1.31 0-2.61 0-3.92 0-3.15 0-6.3 0-9.46 0-4.12 0-8.24 0-12.36.1-.91.04-1.93.42-2.77.47-1.04 1.23-1.12 2.22-1.11 3.52.02 7.04.03 10.56.05 1.25.01 2.64.07 3.51.96.53.53.81 1.46.77 2.37z"/><path d="m115.89 111.43c.04-.18.09-.36.15-.55.82-2.46 4.16-2.28 6.16-1.82 3.46.79 3.08 6.46-.07 7.34-3.09.85-6.98-1.47-6.24-4.97z"/><path d="m196.56 286.38c-.12-1.92 1.16-3.88 3.83-3.3 1.5.32 2.7 1.77 2.67 3.31-.04 1.77-2.02 3.54-3.84 3.19-1.68-.32-2.57-1.75-2.66-3.2z"/><path d="m164.8 104.74c.01-1.51.04-3.02.05-4.53 0-.77 0-1.54-.02-2.32-.03-2.1 3.08-.38 3.7-1.74.19-.42.18-.9.15-1.36-.03-.56-.05-1.12-.08-1.68-.02-.38-.04-.76-.17-1.12-.32-.87-1.05-.79-1.84-.81-1.3-.03-2.61-.06-3.91-.08-.7-.01-1.45-.02-2.06.33-.51.29-.85.78-1.18 1.26-2.03 2.94-4.06 5.87-6.09 8.81-1.01 1.47-2.03 2.93-3.04 4.4-.72 1.04-1.29 1.84-2.2.52-.76-1.1-1.52-2.19-2.28-3.28-1.52-2.19-3.03-4.38-4.55-6.57-.6-.87-1.2-1.73-1.8-2.6-.5-.72-1.03-1.9-1.72-2.44-1.24-.96-3.73-.35-5.19-.35-.91 0-1.81 0-2.72 0-1.12 0-1.45.55-1.61 1.68-.11.78-.11 1.58.03 2.36.11.65.4 1.38 1.03 1.58.9.28 2.07.03 2.69.93.29.42.22.94.22 1.43v2.63 7.92c0 3.46-.02 6.92-.05 10.38-.01 1.71-.02 3.42-.03 5.12 0 .87-.01 1.75-.01 2.62 0 .53.27 1.6-.32 1.86-.83.37-2.11-.17-2.58.87-.37.83-.53 1.75-.43 2.65.08.76-.02 1.56.65 2.08.57.44 1.34.3 2.02.3h2.96 3.47c1.06 0 2.28.17 3.33-.02 1.29-.23 1.39-1.95 1.33-2.98-.04-.58-.12-1.2-.32-1.75-.28-.76-.85-.79-1.6-.78-.36.01-.72-.19-.92-.49-.58-.89-.22-2.88-.22-3.89 0-3.36 0-6.72 0-10.07 0-1.2 0-2.41 0-3.61 0-1.29-.18-2.57-.08-3.86.02-.35-.05-1.41.38-1.56.71-.25 1.51 1.81 1.74 2.22 1.28 2.21 2.55 4.42 3.83 6.63.76 1.31 1.51 2.62 2.3 3.92.25.4.5.81.87 1.11s.88.46 1.32.31c.48-.17.77-.64 1.03-1.08 1.27-2.21 2.52-4.43 3.76-6.66.62-1.11 1.24-2.23 1.86-3.34.32-.57 1.09-2.39 1.51-.82.1.38 0 .94 0 1.33v3.79 9.34 6.68c-.61-.01-1.44-.21-1.93.25-.81.74-.61 2.28-.49 3.24.16 1.24.49 2.13 1.94 2.23 2.24.15 4.52.07 6.76.06.82 0 1.72-.05 2.3-.62 1.01-.99.99-4.44-.5-4.92-.74-.24-1.11-.08-1.29-.84-.19-.79 0-1.85 0-2.67 0-1.72 0-3.44 0-5.16 0-5.38 0-10.77 0-16.15 0-.24 0-.46 0-.69z"/></g></svg>