<?xml version="1.0" encoding="utf-8"?>
<!-- Generator: Adobe Illustrator 24.1.3, SVG Export Plug-In . SVG Version: 6.00 Build 0)  -->
<svg version="1.1" id="Layer_1" xmlns="http://www.w3.org/2000/svg" xmlns:xlink="http://www.w3.org/1999/xlink" x="0px" y="0px"
	 viewBox="0 0 662.6 444.4" style="enable-background:new 0 0 662.6 444.4;" xml:space="preserve">
<style type="text/css">
	.st0{fill:#DED3B5;}
	.st1{clip-path:url(#SVGID_2_);fill:#B29759;}
	.st2{clip-path:url(#SVGID_4_);fill:#B29759;}
</style>
<g>
	<g>
		<path class="st0" d="M83.9,343.8c1.9,2.2,4,4.3,6.3,6.6c2.3,2.2,4.7,4.5,7.4,6.9c-2.4,2.2-4.8,4.5-7.1,6.7s-4.5,4.6-6.5,6.9
			c-2.4-2.7-4.7-5.2-6.9-7.4c-2.2-2.2-4.4-4.3-6.5-6.2c2.4-2,4.8-4.2,7-6.4C79.8,348.7,81.9,346.3,83.9,343.8z"/>
		<path class="st0" d="M174.2,247l30.7,93.2c2.3-5.6,6.1-16.2,11.5-31.9c5.4-15.7,12.1-35.9,20.2-60.6h23.6
			c0,13.2,0.4,29.6,1.2,49.2c0.8,19.6,2,43.2,3.6,70.8l-21.8,0.8v-11.4c0-8-0.3-19.2-0.9-33.6s-1.4-30.1-2.4-47.2l-32.7,91.4h-15.1
			c-1.8-6.8-4.5-15.9-8.1-27.3c-3.7-11.4-10.8-32.7-21.3-64l-8.1,91.4l-13.3,0.8c2.3-16.4,4.4-33.9,6.3-52.5
			c1.9-18.6,3.9-40.3,5.7-64.9l-1.8-3.4L174.2,247z"/>
		<path class="st0" d="M564.7,371c-6.9-10.7-13.4-20.5-19.4-29.4c-6.1-9-12.2-17.8-18.4-26.3c0,7.3,0.1,15.1,0.3,23.3
			c0.2,8.3,0.5,18,0.9,29.2l-24,0.8c0.4-10.2,0.7-20.3,0.9-30.4c0.2-10.1,0.3-20.2,0.3-30.1c0-10.7-0.1-21-0.3-31.2
			c-0.2-10.1-0.5-20.1-0.9-29.8h7.5c5.3,0,11.4-0.1,18.5-0.4c7.1-0.3,11.4-0.4,13.2-0.4c9.5,0,17.2,2.6,23.1,7.7
			c5.9,5.2,8.8,11.8,8.8,20.1c0,7.6-2.4,14.2-7.3,20c-4.9,5.8-11.8,10.1-20.6,13.1l23.1,33.7c1.2,1.8,3.3,4.9,6.4,9.2
			s5.4,7.7,7.1,10.2L564.7,371z M526.8,308.8c2.9-1.7,5.5-3.5,8-5.4c2.4-1.9,4.6-3.7,6.4-5.4c0.7,0.4,1.4,0.8,2.1,1.1s1.4,0.5,2,0.7
			c2.8-2.5,5-5.3,6.5-8.4c1.5-3.1,2.3-6.5,2.3-9.9c0-6.7-2.2-12.2-6.6-16.5c-4.4-4.3-10-6.4-17-6.4c-0.7,0-1.8,0.1-3.3,0.3
			c-0.2,0-0.3,0-0.4,0L526.8,308.8L526.8,308.8z"/>
		<path class="st0" d="M597.5,367.7c0.4-9.4,0.7-19.1,0.9-29s0.3-20.1,0.3-30.7c0-10.3-0.1-20.5-0.3-30.5c-0.2-10-0.5-20-0.9-29.8
			h63.6l-4.9,13.2h-35.3c-0.1,4.6-0.2,10.1-0.3,16.5c-0.1,6.4-0.2,13.7-0.3,21.8l41.2,0.1l-5,13.8h-36.2c0,6.8,0.1,13.6,0.2,20.4
			s0.4,13.6,0.7,20.5h12.1c4.2,0,8.8-0.1,13.6-0.2c4.8-0.1,10-0.3,15.7-0.6l-5.9,14.6H597.5z"/>
		<path class="st0" d="M0,353.9l20.5-11.7c2.1,4.5,4.6,7.9,7.6,10.2s6.2,3.5,9.9,3.5c0.7,0,5.1,0,5.4,0s1.6-0.1,2-0.2
			c1.4-1.7,1.9-3.2,2.2-4.2c2.8-10.9-2.5-20.2-8-25.4c-4.7-4.4-22.6-20.7-28.5-27c-3.7-3.9-9.6-12.1-9.6-20.1
			c0-3.6,1.4-8.7,4.5-12.6c5-6.6,9.8-11.2,16.7-15.6c7-4.4,12.2-6,15.4-6c4.6,0,8.7,1.3,12.5,4c3.8,2.7,6.9,6.5,9.4,11.6l-19.1,12.4
			c-2.3-4-5.2-7.3-8.4-9.5c-5.2-3.7-10.6-2.6-10.6-2.6s-2.1,2.2-2.1,6.8c0,4.7,1.3,9.6,4.5,13.1c4.5,4.9,7.3,7,13.5,12.9
			c7.1,6.8,8.3,7.6,14.6,13.6c2.8,2.7,4,3.7,6.3,6.9c8.5,11.8,5.7,26.5,0.4,35c-3.5,5.5-11.1,11-21.9,18.7c-1.8,1.2-3.5,2.1-5.1,2.6
			c-1.6,0.5-3.5,0.8-5.7,0.8c-5.8,0-10.8-1.4-15.2-4.2C6.7,363.9,3,359.6,0,353.9z"/>
		<path class="st0" d="M79.2,146.7c0,12.1,0.1,23,0.3,33s0.5,19.1,0.9,27.4l-25.2,0.8c0.4-9.9,0.7-19.9,0.9-30s0.3-20.3,0.3-30.5
			v-48c-5,0-13.7,0.1-26.1,0.3c-2.2,0-3.9,0-5.1,0.1l9.2-13.3c11.9,0.2,24,0.4,36.4,0.5c12.4,0.1,25.2,0.2,38.4,0.2l-8.5,12.6
			c-2.5-0.1-5.2-0.2-8.1-0.3c-2.9-0.1-7.4-0.1-13.4-0.1L79.2,146.7L79.2,146.7z"/>
		<path class="st0" d="M116.9,207.9c0.4-9.3,0.7-19,0.9-29.1c0.2-10.1,0.3-20.5,0.3-31.4c0-10.8-0.1-21.2-0.3-31.2
			c-0.2-10-0.5-19.7-0.9-29.1l24-0.7c-0.4,9.5-0.7,18.7-0.9,27.3c-0.2,8.7-0.3,17-0.3,24.8h45.8c0-7-0.1-14.6-0.3-22.8
			s-0.5-17.8-0.9-28.7l24-0.7c-0.4,9.5-0.7,19.3-0.9,29.3s-0.3,20.3-0.3,31.1c0,10.8,0.1,21.1,0.3,31.1c0.2,10,0.5,19.7,0.9,29.2
			l-24,0.9c0.4-10.9,0.7-20.8,0.9-29.6c0.2-8.8,0.3-17.1,0.3-24.8h-45.8c0,7.3,0.1,15.2,0.3,23.7c0.2,8.5,0.5,18.4,0.9,29.7
			L116.9,207.9z"/>
		<path class="st0" d="M365.8,86.4l30.7,93.2c2.3-5.6,6.1-16.2,11.5-31.9c5.4-15.7,12.1-35.9,20.2-60.6h23.6
			c0,13.2,0.4,29.6,1.2,49.2c0.8,19.6,2,43.2,3.6,70.8l-21.8,0.8v-11.4c0-8-0.3-19.2-0.9-33.6c-0.6-14.4-1.4-30.1-2.4-47.2
			L398.9,207h-15.1c-1.8-6.8-4.5-15.9-8.1-27.3s-10.8-32.7-21.3-64l-8.1,91.4l-13.3,0.8c2.3-16.4,4.4-33.9,6.3-52.5
			s3.9-40.3,5.7-64.9l-1.8-3.4L365.8,86.4z"/>
		<path class="st0" d="M465.7,208.2c2.4-5.9,4.3-10.3,5.4-13.3c1.2-3,2.2-5.5,2.9-7.6l30.7-86.9l-5.3-12.3l21-4.1l49.1,121.4
			l-21.6,3.7c-3.3-8.9-7.9-21-14-36.3l-1.9-4.8h-38.4l-12.8,39L465.7,208.2z M498.2,154.5h28.5l-14.8-39.9L498.2,154.5z"/>
		<path class="st0" d="M573.7,193.2l20.5-11.7c2.1,4.5,4.6,7.9,7.6,10.2c2.9,2.3,6.2,3.5,9.9,3.5c0.7,0,5.1,0,5.4,0s1.6-0.1,2-0.2
			c1.4-1.7,1.9-3.2,2.2-4.2c2.8-10.9-2.5-20.2-8-25.4c-4.7-4.4-22.6-20.7-28.5-27c-3.7-3.9-9.6-12.1-9.6-20.1
			c0-3.6,1.4-8.7,4.5-12.6c5-6.6,9.8-11.2,16.7-15.6c7-4.4,12.2-6,15.4-6c4.6,0,8.7,1.3,12.5,4c3.8,2.7,6.9,6.5,9.4,11.6l-19.1,12.4
			c-2.3-4-5.2-7.3-8.4-9.5c-5.2-3.7-10.6-2.6-10.6-2.6s-2.1,2.2-2.1,6.8c0,4.7,1.3,9.6,4.5,13.1c4.5,4.9,7.3,7,13.5,12.9
			c7.1,6.8,8.3,7.6,14.6,13.6c2.8,2.7,4,3.7,6.3,6.9c8.5,11.8,5.7,26.5,0.4,35c-3.5,5.5-11.1,11-21.9,18.7c-1.8,1.2-3.5,2.1-5.1,2.6
			c-1.6,0.5-3.5,0.8-5.7,0.8c-5.8,0-10.8-1.4-15.2-4.2C580.3,203.2,576.7,198.9,573.7,193.2L573.7,193.2z"/>
		<path class="st0" d="M266.3,97.8c-2.8,0-5.3,0.3-7.3,0.7c-2,0.5-3.4,1.1-4.3,1.9c-1.7,1.7-3.3,4-4.6,6.7c-1.2,2.5-1.8,5.2-1.8,8
			v19.8c0,24.3,0.4,33.2,4.7,41.9c5.6,11.3,16.3,19.6,27.2,19.6l6.6,9c-2.4,1.6-6.2,3.4-9.3,4.1c-2.7,0.6-4.1,0.7-7.4,0.7
			c-12.5,0-23-4.2-31.6-12.5c-8.6-8.3-12.9-18.7-12.9-31.2c0-13.2,0-22.9,0-37.4c0-12.1,4.1-17.2,9.2-22.1
			c5.2-4.9,15.2-12.3,25.9-19c2.5-1.5,6.1-2.9,8.1-3.4"/>
		<path class="st0" d="M280.3,196.4c2.8,0,5.3-0.3,7.3-0.7c2-0.5,3.4-1.1,4.3-1.9c1.7-1.7,3.3-4,4.6-6.7c1.2-2.5,1.8-5.2,1.8-8
			v-19.8c0-24.3-0.4-33.2-4.7-41.9c-5.6-11.3-16.3-19.6-27.2-19.6l-6.6-9c2.4-1.6,6.2-3.4,9.3-4.1c2.6-0.6,4-0.7,7.4-0.7
			c12.5,0,23,4.2,31.6,12.5c8.6,8.3,12.9,18.7,12.9,31.2v37.4c0,12.1-4.1,17.2-9.2,22.1c-5.2,4.9-15.2,12.3-25.9,19
			c-2.5,1.5-6.1,2.9-8.1,3.4"/>
		<path class="st0" d="M226.3,122c-1.8,8.7-1.8,41.2-0.1,51.4"/>
		<path class="st0" d="M320.3,172.3c1.8-8.7,1.8-41.2,0.1-51.4"/>
		<path class="st0" d="M321.5,258.5c-2.8,0-5.3,0.3-7.3,0.7c-2,0.5-3.4,1.1-4.3,1.9c-1.7,1.7-3.3,4-4.6,6.7c-1.2,2.5-1.8,5.2-1.8,8
			v19.8c0,24.3,0.4,33.2,4.7,41.9c5.6,11.3,16.3,19.6,27.2,19.6l6.6,9c-2.4,1.6-6.2,3.4-9.3,4.1c-2.7,0.6-4.1,0.7-7.4,0.7
			c-12.5,0-23-4.2-31.6-12.5c-8.6-8.3-12.9-18.7-12.9-31.2c0-13.2,0-22.9,0-37.4c0-12.1,4.1-17.2,9.2-22.1
			c5.1-4.9,15.2-12.3,25.9-19c2.5-1.5,6.1-2.9,8.1-3.4"/>
		<path class="st0" d="M335.5,357.1c2.8,0,5.3-0.3,7.3-0.7c2-0.5,3.4-1.1,4.3-1.9c1.7-1.7,3.3-4,4.6-6.7c1.2-2.5,1.8-5.2,1.8-8V320
			c0-24.3-0.4-33.2-4.7-41.9c-5.6-11.3-16.3-19.6-27.2-19.6l-6.6-9c2.4-1.6,6.2-3.4,9.3-4.1c2.7-0.6,4.1-0.7,7.4-0.7
			c12.5,0,23,4.2,31.6,12.5c8.6,8.3,12.9,18.7,12.9,31.2v37.4c0,12.1-4.1,17.2-9.2,22.1c-5.1,4.9-15.2,12.3-25.9,19
			c-2.5,1.5-6.1,2.9-8.1,3.4"/>
		<path class="st0" d="M281.5,282.7c-1.8,8.7-1.8,41.2-0.1,51.4"/>
		<path class="st0" d="M375.5,332.9c1.8-8.7,1.8-41.2,0.1-51.4"/>
		<path class="st0" d="M431,258.5c-2.8,0-5.3,0.3-7.3,0.7c-2,0.5-3.4,1.1-4.3,1.9c-1.7,1.7-3.3,4-4.6,6.7c-1.2,2.5-1.8,5.2-1.8,8
			v19.8c0,24.3,0.4,33.2,4.7,41.9c5.6,11.3,16.3,19.6,27.2,19.6l6.6,9c-2.4,1.6-6.2,3.4-9.3,4.1c-2.7,0.6-4.1,0.7-7.4,0.7
			c-12.5,0-23-4.2-31.6-12.5c-8.6-8.3-12.9-18.7-12.9-31.2c0-13.2,0-22.9,0-37.4c0-12.1,4.1-17.2,9.2-22.1
			c5.1-4.9,15.2-12.3,25.9-19c2.5-1.5,6.1-2.9,8.1-3.4"/>
		<path class="st0" d="M444.9,357.1c2.8,0,5.3-0.3,7.3-0.7c2-0.5,3.4-1.1,4.3-1.9c1.7-1.7,3.3-4,4.6-6.7c1.2-2.5,1.8-5.2,1.8-8V320
			c0-24.3-0.4-33.2-4.7-41.9c-5.6-11.3-16.3-19.6-27.2-19.6l-6.6-9c2.4-1.6,6.2-3.4,9.3-4.1c2.7-0.6,4.1-0.7,7.4-0.7
			c12.5,0,23,4.2,31.6,12.5c8.6,8.3,12.9,18.7,12.9,31.2v37.4c0,12.1-4.1,17.2-9.2,22.1c-5.2,4.9-15.2,12.3-25.9,19
			c-2.5,1.5-6.1,2.9-8.1,3.4"/>
		<path class="st0" d="M390.9,282.7c-1.8,8.7-1.8,41.2-0.1,51.4"/>
		<path class="st0" d="M485,332.9c1.8-8.7,1.8-41.2,0.1-51.4"/>
	</g>
	<g>
		<defs>
			<rect id="SVGID_1_" x="104.7" y="0" width="444.4" height="444.4"/>
		</defs>
		<clipPath id="SVGID_2_">
			<use xlink:href="#SVGID_1_"  style="overflow:visible;"/>
		</clipPath>
		<path class="st1" d="M524.5,440.3H129.2l-0.2-1.4c-1-5.3-3.4-9.6-7.2-13c-4-3.5-8.6-5.1-11.7-5.8l-1.3-0.3V24.6l1.4-0.2
			c5.2-1,9.6-3.4,13-7.2c3.6-4,5.1-8.6,5.8-11.7l0.3-1.3h395.3l0.2,1.4c1,5.3,3.4,9.6,7.2,13c4,3.5,8.6,5.1,11.7,5.8l1.3,0.3v395.3
			l-1.4,0.2c-5.2,1-9.6,3.4-13,7.2c-3.5,4-5.1,8.6-5.8,11.7L524.5,440.3z M132,437h389.9c0.9-3.4,2.7-7.9,6.2-11.9
			c3.6-4,8.1-6.7,13.5-8V27.2c-3.4-0.9-7.9-2.7-11.9-6.2c-4-3.6-6.7-8.1-8-13.5H131.8c-0.9,3.4-2.7,7.9-6.2,11.9
			c-3.6,4-8.1,6.7-13.5,8v389.9c3.4,0.9,7.9,2.7,11.9,6.2C128,427,130.7,431.5,132,437z"/>
	</g>
	<g>
		<defs>
			<rect id="SVGID_3_" x="104.7" y="0" width="444.4" height="444.4"/>
		</defs>
		<clipPath id="SVGID_4_">
			<use xlink:href="#SVGID_3_"  style="overflow:visible;"/>
		</clipPath>
		<path class="st2" d="M519.7,434H134.2l-0.1-0.4c-2.9-8.8-9.6-15.4-18.7-18.5L115,415V29.5l0.4-0.1c8.8-2.9,15.4-9.6,18.5-18.7
			l0.1-0.4h385.5l0.1,0.4c2.9,8.8,9.6,15.4,18.7,18.5l0.4,0.1v385.5l-0.4,0.1c-8.8,2.9-15.4,9.6-18.5,18.7L519.7,434z M135,432.9
			h383.9c3.2-9.2,9.9-15.9,18.7-18.9V30.1c-9.2-3.2-15.8-9.9-18.9-18.7H134.8c-3.2,9.2-9.9,15.9-18.7,18.9v383.9
			C125.2,417.5,131.9,424.1,135,432.9L135,432.9z"/>
	</g>
</g>
</svg>
