<svg enable-background="new 0 0 665.48 444.38" viewBox="0 0 665.48 444.38" xmlns="http://www.w3.org/2000/svg" xmlns:xlink="http://www.w3.org/1999/xlink"><clipPath id="a"><path d="m106.09 0h444.38v444.38h-444.38z"/></clipPath><clipPath id="b"><path d="m106.09 0h444.38v444.38h-444.38z"/></clipPath><g fill="#b29759"><path d="m84.26 342.76c1.95 2.17 4.05 4.37 6.31 6.6s4.72 4.54 7.4 6.94c-2.45 2.23-4.84 4.49-7.15 6.77-2.31 2.29-4.5 4.6-6.56 6.94-2.4-2.73-4.71-5.21-6.94-7.44s-4.4-4.32-6.52-6.27c2.45-2.06 4.81-4.21 7.06-6.44 2.26-2.22 4.39-4.59 6.4-7.1z"/><path d="m174.94 245.56 30.84 93.61c2.28-5.57 6.13-16.26 11.53-32.05s12.17-36.09 20.31-60.89h23.74c0 13.26.4 29.74 1.21 49.44s2.02 43.39 3.64 71.08l-21.9.83v-11.45c0-8.02-.29-19.26-.88-33.72s-1.38-30.27-2.38-47.43l-32.85 91.77h-15.13c-1.78-6.85-4.51-16-8.19-27.45s-10.81-32.89-21.4-64.31l-8.19 91.77-13.37.83c2.28-16.43 4.4-34.02 6.35-52.74s3.87-40.45 5.77-65.19l-1.84-3.43z"/><path d="m567.1 370.01c-6.91-10.7-13.42-20.54-19.51-29.54-6.1-9-12.27-17.82-18.51-26.45 0 7.3.1 15.11.29 23.44s.49 18.1.88 29.29l-24.07.83c.39-10.2.68-20.38.88-30.55.19-10.17.29-20.24.29-30.21 0-10.7-.1-21.13-.29-31.3-.2-10.17-.49-20.16-.88-29.96h7.52c5.3 0 11.48-.14 18.56-.42 7.07-.28 11.5-.42 13.29-.42 9.53 0 17.25 2.58 23.15 7.73s8.86 11.88 8.86 20.18c0 7.58-2.45 14.26-7.36 20.06s-11.81 10.17-20.73 13.12l23.24 33.85c1.23 1.84 3.35 4.9 6.39 9.19 3.03 4.29 5.42 7.69 7.14 10.2zm-38.03-62.35c2.9-1.73 5.56-3.52 7.98-5.39s4.58-3.69 6.47-5.48c.72.45 1.44.82 2.13 1.13s1.38.54 2.05.71c2.84-2.51 5.01-5.34 6.52-8.48 1.5-3.15 2.26-6.48 2.26-9.99 0-6.74-2.2-12.26-6.6-16.55s-10.09-6.44-17.05-6.44c-.67 0-1.78.11-3.34.34-.17 0-.31 0-.42 0z"/><path d="m600.13 366.75c.39-9.47.68-19.18.88-29.13.19-9.95.29-20.21.29-30.8 0-10.36-.1-20.59-.29-30.67-.2-10.08-.49-20.06-.88-29.92h63.85l-4.93 13.21h-35.43c-.11 4.63-.23 10.15-.34 16.59s-.2 13.72-.25 21.86l41.37.08-5.02 13.87h-36.36c0 6.85.07 13.68.21 20.48s.38 13.65.71 20.56h12.15c4.24 0 8.79-.07 13.65-.21s10.1-.35 15.74-.63l-5.93 14.71z"/><path d="m0 352.87 20.56-11.78c2.12 4.51 4.65 7.93 7.6 10.24s6.27 3.47 9.95 3.47c.72 0 5.09-.01 5.42-.04.34-.03 1.62-.1 2.01-.21 1.36-1.69 1.9-3.19 2.17-4.26 2.77-10.96-2.49-20.26-8.09-25.45-4.74-4.4-22.66-20.81-28.65-27.1-3.7-3.89-9.63-12.2-9.63-20.22 0-3.61 1.41-8.68 4.46-12.71 5.06-6.66 9.83-11.26 16.77-15.65 6.99-4.43 12.29-6.02 15.46-6.02 4.57 0 8.73 1.34 12.49 4.01s6.92 6.55 9.48 11.62l-19.22 12.45c-2.29-4.01-5.18-7.3-8.39-9.55-5.23-3.68-10.68-2.57-10.68-2.57s-2.11 2.19-2.11 6.85c0 4.74 1.31 9.6 4.55 13.17 4.49 4.94 7.31 7.02 13.58 13 7.15 6.82 8.29 7.67 14.64 13.66 2.82 2.67 4.04 3.73 6.31 6.89 8.53 11.9 5.76 26.59.42 35.1-3.48 5.54-11.14 11-22 18.8-1.78 1.22-3.48 2.1-5.1 2.63s-3.51.79-5.68.79c-5.79 0-10.88-1.42-15.25-4.26-4.37-2.83-8.06-7.12-11.07-12.86z"/><path d="m79.51 146.4c.08 12.09.24 23.12.51 33.09.26 9.97.61 19.14 1.05 27.49l-25.32 1c.33-9.92.55-19.95.68-30.09s.16-20.37.1-30.68l-.31-48.21c-5.01.03-13.76.17-26.24.42-2.23.01-3.93.05-5.1.12l9.19-13.43c11.92.15 24.12.24 36.57.27s25.31 0 38.57-.08l-8.44 12.76c-2.51-.1-5.23-.16-8.15-.2-2.93-.04-7.4-.04-13.42 0z"/><path d="m117.84 207.59c.33-9.36.56-19.1.69-29.22.13-10.11.16-20.63.09-31.55-.07-10.86-.23-21.32-.49-31.38-.26-10.05-.62-19.79-1.06-29.2l24.07-.82c-.33 9.59-.56 18.74-.7 27.46s-.18 17.04-.13 24.95l46.05-.29c-.04-7.02-.19-14.67-.44-22.94s-.6-17.87-1.06-28.79l24.07-.82c-.33 9.59-.56 19.38-.69 29.38s-.16 20.41-.09 31.22.23 21.22.49 31.21c.26 10 .61 19.76 1.07 29.29l-24.06 1.07c.32-10.98.55-20.88.69-29.72.14-8.83.18-17.12.13-24.87l-46.05.29c.05 7.35.19 15.28.44 23.82s.61 18.48 1.07 29.83z"/><path d="m367.01 83.97 31.44 93.41c2.25-5.59 6.03-16.3 11.33-32.13s11.94-36.17 19.92-61.01l23.73-.15c.08 13.26.6 29.74 1.53 49.43.94 19.69 2.3 43.38 4.09 71.06l-21.89.97-.07-11.45c-.05-8.02-.42-19.26-1.09-33.72-.68-14.45-1.57-30.26-2.69-47.41l-32.26 91.98-15.13.1c-1.83-6.84-4.62-15.98-8.37-27.4-3.75-11.43-11.02-32.82-21.81-64.17l-7.6 91.82-13.37.92c2.18-16.45 4.18-34.04 6.01-52.78 1.83-18.73 3.61-40.48 5.35-65.23l-1.86-3.42z"/><path d="m468.07 205.68c2.41-5.92 4.21-10.38 5.39-13.37s2.12-5.54 2.83-7.66l30.28-87.53-5.43-12.33 21.03-4.23 50.09 121.62-21.7 3.9c-3.35-8.95-8.1-21.06-14.28-36.35l-1.95-4.84-38.62.25-12.62 39.28zm32.33-54.11 28.58-.18-15.13-39.94z"/><path d="m576.45 189.94 20.48-11.91c2.15 4.5 4.7 7.9 7.67 10.19s6.29 3.43 9.97 3.4c.72 0 5.09-.05 5.42-.08.34-.03 1.62-.11 2.01-.22 1.35-1.7 1.88-3.21 2.14-4.28 2.7-10.98-2.62-20.25-8.25-25.4-4.77-4.37-22.79-20.67-28.82-26.91-3.73-3.86-9.71-12.14-9.76-20.16-.02-3.61 1.35-8.69 4.38-12.74 5.02-6.69 9.76-11.32 16.66-15.76 6.96-4.47 12.25-6.1 15.42-6.12 4.57-.03 8.74 1.28 12.52 3.93s6.96 6.5 9.56 11.56l-19.14 12.57c-2.31-4-5.23-7.26-8.45-9.5-5.25-3.64-10.7-2.5-10.7-2.5s-2.1 2.2-2.07 6.87c.03 4.74 1.37 9.59 4.64 13.14 4.52 4.91 7.35 6.98 13.66 12.91 7.19 6.77 8.34 7.62 14.72 13.57 2.84 2.65 4.07 3.7 6.35 6.85 8.6 11.84 5.93 26.55.64 35.1-3.45 5.57-11.06 11.07-21.88 18.94-1.78 1.24-3.47 2.12-5.08 2.66s-3.5.82-5.68.83c-5.79.04-10.89-1.35-15.28-4.16-4.36-2.79-8.08-7.05-11.13-12.78z"/><path d="m267.47 95.66c-2.87 0-5.31.24-7.32.72s-3.46 1.13-4.34 1.96c-1.72 1.74-3.25 3.99-4.6 6.73-1.21 2.48-1.79 5.24-1.79 8v19.92c0 24.38.37 33.32 4.71 42.05 5.67 11.38 16.38 19.71 27.3 19.71l6.69 9.07c-2.41 1.58-6.23 3.43-9.35 4.14-2.69.61-4.07.68-7.45.68-12.5 0-23.07-4.19-31.7-12.57s-12.95-18.82-12.95-31.31c0-13.2 0-22.98 0-37.59 0-12.1 4.09-17.27 9.23-22.21s15.24-12.41 26.06-19.1c2.5-1.55 6.09-2.95 8.17-3.4"/><path d="m281.49 194.74c2.87 0 5.31-.24 7.32-.72s3.46-1.13 4.34-1.96c1.72-1.74 3.25-3.99 4.6-6.73 1.21-2.48 1.79-5.24 1.79-8v-19.92c0-24.38-.37-33.32-4.71-42.05-5.67-11.38-16.38-19.71-27.3-19.71l-6.69-9.07c2.41-1.58 6.23-3.43 9.35-4.14 2.69-.61 4.07-.68 7.45-.68 12.5 0 23.07 4.19 31.7 12.57s12.95 18.82 12.95 31.31v37.59c0 12.1-4.09 17.27-9.23 22.21s-15.24 12.41-26.06 19.1c-2.5 1.55-6.09 2.95-8.17 3.4"/><path d="m227.25 119.96c-1.78 8.75-1.81 41.36-.14 51.58"/><path d="m321.71 170.44c1.78-8.75 1.81-41.36.14-51.58"/><path d="m322.9 257.03c-2.87 0-5.31.24-7.32.72s-3.46 1.13-4.34 1.96c-1.72 1.74-3.25 3.99-4.6 6.73-1.21 2.48-1.79 5.24-1.79 8v19.92c0 24.38.37 33.32 4.71 42.05 5.67 11.38 16.38 19.71 27.3 19.71l6.69 9.07c-2.41 1.58-6.23 3.43-9.35 4.14-2.69.61-4.07.68-7.45.68-12.5 0-23.07-4.19-31.7-12.57s-12.95-18.82-12.95-31.31c0-13.2 0-22.98 0-37.59 0-12.1 4.09-17.27 9.23-22.21s15.24-12.41 26.06-19.1c2.5-1.55 6.09-2.95 8.17-3.4"/><path d="m336.92 356.11c2.87 0 5.31-.24 7.32-.72s3.46-1.13 4.34-1.96c1.72-1.74 3.25-3.99 4.6-6.73 1.21-2.48 1.79-5.24 1.79-8v-19.92c0-24.38-.37-33.32-4.71-42.05-5.67-11.38-16.38-19.71-27.3-19.71l-6.69-9.07c2.41-1.58 6.23-3.43 9.35-4.14 2.69-.61 4.07-.68 7.45-.68 12.5 0 23.07 4.19 31.7 12.57s12.95 18.82 12.95 31.31v37.59c0 12.1-4.09 17.27-9.23 22.21s-15.24 12.41-26.06 19.1c-2.5 1.55-6.09 2.95-8.17 3.4"/><path d="m282.68 281.33c-1.78 8.75-1.81 41.36-.14 51.58"/><path d="m377.14 331.81c1.78-8.75 1.81-41.36.14-51.58"/><path d="m432.85 257.03c-2.87 0-5.31.24-7.32.72s-3.46 1.13-4.34 1.96c-1.72 1.74-3.25 3.99-4.6 6.73-1.21 2.48-1.79 5.24-1.79 8v19.92c0 24.38.37 33.32 4.71 42.05 5.67 11.38 16.38 19.71 27.3 19.71l6.69 9.07c-2.41 1.58-6.23 3.43-9.35 4.14-2.69.61-4.07.68-7.45.68-12.5 0-23.07-4.19-31.7-12.57s-12.95-18.82-12.95-31.31c0-13.2 0-22.98 0-37.59 0-12.1 4.09-17.27 9.23-22.21s15.24-12.41 26.06-19.1c2.5-1.55 6.09-2.95 8.17-3.4"/><path d="m446.88 356.11c2.87 0 5.31-.24 7.32-.72s3.46-1.13 4.34-1.96c1.72-1.74 3.25-3.99 4.6-6.73 1.21-2.48 1.79-5.24 1.79-8v-19.92c0-24.38-.37-33.32-4.71-42.05-5.67-11.38-16.38-19.71-27.3-19.71l-6.69-9.07c2.41-1.58 6.23-3.43 9.35-4.14 2.69-.61 4.07-.68 7.45-.68 12.5 0 23.07 4.19 31.7 12.57s12.95 18.82 12.95 31.31v37.59c0 12.1-4.09 17.27-9.23 22.21s-15.24 12.41-26.06 19.1c-2.5 1.55-6.09 2.95-8.17 3.4"/><path d="m392.64 281.33c-1.78 8.75-1.81 41.36-.14 51.58"/><path d="m487.1 331.81c1.78-8.75 1.81-41.36.14-51.58"/><path clip-path="url(#a)" d="m525.96 440.29h-395.28l-.25-1.37c-.97-5.26-3.4-9.62-7.21-12.99-4.03-3.55-8.59-5.1-11.71-5.77l-1.32-.29v-395.28l1.37-.25c5.25-.97 9.62-3.4 12.98-7.21 3.55-4.03 5.1-8.59 5.77-11.71l.28-1.32h395.28l.25 1.37c.97 5.25 3.4 9.62 7.21 12.99 4.03 3.55 8.59 5.1 11.71 5.77l1.32.28v395.28l-1.37.25c-5.25.97-9.62 3.4-12.99 7.21-3.55 4.03-5.1 8.59-5.77 11.71zm-392.54-3.34h389.88c.89-3.4 2.67-7.87 6.22-11.9 3.57-4.05 8.11-6.74 13.52-8v-389.88c-3.41-.89-7.88-2.67-11.9-6.22-4.05-3.57-6.74-8.11-8-13.52h-389.88c-.89 3.41-2.67 7.87-6.22 11.9-3.57 4.05-8.11 6.74-13.52 8v389.87c3.41.89 7.87 2.67 11.9 6.22 4.05 3.58 6.74 8.12 8 13.53z"/><path clip-path="url(#b)" d="m521.13 434.05h-385.5l-.12-.38c-2.92-8.81-9.56-15.38-18.71-18.51l-.37-.13v-385.49l.38-.12c8.81-2.92 15.38-9.56 18.51-18.71l.13-.37h385.5l.12.38c2.92 8.81 9.56 15.38 18.71 18.51l.37.13v385.5l-.38.12c-8.81 2.92-15.38 9.56-18.51 18.71zm-384.71-1.1h383.93c3.24-9.16 9.86-15.85 18.7-18.9v-383.92c-9.16-3.24-15.85-9.86-18.9-18.7h-383.94c-3.24 9.16-9.86 15.86-18.7 18.9v383.92c9.17 3.25 15.86 9.87 18.91 18.7z"/></g></svg>