<svg enable-background="new 0 0 181.37 78.56" viewBox="0 0 181.37 78.56" xmlns="http://www.w3.org/2000/svg"><g fill="#b29759"><path d="m22.96 71.13c.53.59 1.1 1.19 1.72 1.8s1.29 1.24 2.02 1.89c-.67.61-1.32 1.22-1.95 1.84s-1.23 1.25-1.79 1.89c-.65-.74-1.28-1.42-1.89-2.03s-1.2-1.18-1.78-1.71c.67-.56 1.31-1.15 1.92-1.75.63-.6 1.21-1.25 1.75-1.93z"/><path d="m47.68 44.64 8.41 25.51c.62-1.52 1.67-4.43 3.14-8.74 1.47-4.3 3.32-9.84 5.53-16.59h6.47c0 3.61.11 8.11.33 13.47.22 5.37.55 11.83.99 19.37l-5.97.23v-3.12c0-2.19-.08-5.25-.24-9.19s-.38-8.25-.65-12.93l-8.95 25.01h-4.12c-.49-1.87-1.23-4.36-2.23-7.48s-2.95-8.96-5.83-17.53l-2.23 25.01-3.64.23c.62-4.48 1.2-9.27 1.73-14.37s1.06-11.02 1.57-17.77l-.5-.93z"/><path d="m154.56 78.56c-1.88-2.92-3.66-5.6-5.32-8.05s-3.34-4.86-5.05-7.21c0 1.99.03 4.12.08 6.39s.13 4.93.24 7.98l-6.56.23c.11-2.78.19-5.55.24-8.33.05-2.77.08-5.52.08-8.23 0-2.92-.03-5.76-.08-8.53s-.13-5.49-.24-8.17h2.05c1.44 0 3.13-.04 5.06-.11 1.93-.08 3.13-.11 3.62-.11 2.6 0 4.7.7 6.31 2.11s2.42 3.24 2.42 5.5c0 2.07-.67 3.89-2 5.47-1.34 1.58-3.22 2.77-5.65 3.58l6.33 9.23c.33.5.91 1.34 1.74 2.51s1.48 2.1 1.95 2.78zm-10.37-17c.79-.47 1.51-.96 2.18-1.47.66-.51 1.25-1.01 1.76-1.49.2.12.39.22.58.31s.38.15.56.19c.77-.68 1.37-1.45 1.78-2.31s.62-1.77.62-2.72c0-1.84-.6-3.34-1.8-4.51s-2.75-1.75-4.65-1.75c-.18 0-.49.03-.91.09-.05 0-.08 0-.11 0v13.66z"/><path d="m163.56 77.67c.11-2.58.19-5.23.24-7.94s.08-5.51.08-8.39c0-2.82-.03-5.61-.08-8.36s-.13-5.47-.24-8.15h17.4l-1.34 3.6h-9.66c-.03 1.26-.06 2.77-.09 4.52s-.05 3.74-.07 5.96l11.28.02-1.37 3.78h-9.91c0 1.87.02 3.73.06 5.58s.1 3.72.19 5.6h3.31c1.16 0 2.4-.02 3.72-.06s2.75-.09 4.29-.17l-1.62 4.01z"/><path d="m0 73.89 5.6-3.21c.58 1.23 1.27 2.16 2.07 2.79s1.71.95 2.71.95c.2 0 1.39 0 1.48-.01s.44-.03.55-.06c.37-.46.52-.87.59-1.16.76-2.99-.68-5.52-2.2-6.94-1.29-1.2-6.18-5.67-7.81-7.39-1.01-1.06-2.62-3.32-2.62-5.51 0-.98.38-2.37 1.22-3.46 1.38-1.82 2.68-3.07 4.57-4.27 1.91-1.21 3.35-1.64 4.21-1.64 1.25 0 2.38.36 3.41 1.09s1.89 1.78 2.58 3.17l-5.24 3.39c-.62-1.09-1.41-1.99-2.29-2.6-1.43-1-2.91-.7-2.91-.7s-.58.6-.58 1.87c0 1.29.36 2.62 1.24 3.59 1.22 1.35 1.99 1.91 3.7 3.54 1.95 1.86 2.26 2.09 3.99 3.72.77.73 1.1 1.02 1.72 1.88 2.32 3.24 1.57 7.25.11 9.57-.95 1.51-3.03 3-6 5.12-.49.33-.95.57-1.39.72-.44.14-.96.22-1.55.22-1.58 0-2.96-.39-4.16-1.16-1.17-.78-2.18-1.95-3-3.51z"/><path d="m21.67 17.17c0 3.3.03 6.3.08 9.02s.13 5.22.24 7.49l-6.9.23c.11-2.7.19-5.44.24-8.2s.08-5.55.08-8.36v-13.14c-1.37 0-3.75.02-7.15.07-.61 0-1.07.01-1.39.02l2.53-3.64c3.25.06 6.57.11 9.97.14 3.39.03 6.9.05 10.51.05l-2.32 3.46c-.68-.03-1.42-.05-2.22-.07s-2.02-.02-3.66-.02v12.95z"/><path d="m32.01 33.92c.11-2.55.19-5.2.24-7.96s.08-5.62.08-8.6c0-2.96-.03-5.81-.08-8.55s-.13-5.39-.24-7.96l6.56-.18c-.11 2.61-.19 5.11-.24 7.48-.05 2.38-.08 4.64-.08 6.8h12.55c0-1.91-.03-4-.08-6.25s-.13-4.87-.24-7.85l6.56-.18c-.11 2.61-.19 5.28-.24 8.01s-.08 5.56-.08 8.51.03 5.78.08 8.51.13 5.39.24 7.98l-6.56.25c.11-2.99.19-5.69.24-8.1s.08-4.67.08-6.78h-12.55c0 2 .03 4.17.08 6.49.05 2.33.13 5.04.24 8.13z"/><path d="m100.13.66 8.41 25.51c.62-1.52 1.67-4.43 3.14-8.74 1.47-4.3 3.32-9.84 5.54-16.59h6.47c0 3.61.11 8.11.33 13.47.22 5.37.55 11.83.99 19.37l-5.97.23v-3.11c0-2.19-.08-5.25-.24-9.19s-.38-8.25-.65-12.93l-8.95 25.01h-4.12c-.49-1.87-1.23-4.36-2.23-7.48s-2.95-8.96-5.83-17.53l-2.23 25.01-3.64.23c.62-4.48 1.2-9.27 1.73-14.37s1.06-11.02 1.57-17.77l-.5-.93z"/><path d="m127.46 34.01c.67-1.61 1.17-2.82 1.49-3.63.33-.81.59-1.51.79-2.08l8.41-23.8-1.46-3.37 5.74-1.13 13.44 33.23-5.92 1.02c-.9-2.44-2.17-5.75-3.83-9.93l-.52-1.32h-10.52l-3.51 10.68zm8.91-14.69h7.79l-4.06-10.91z"/><path d="m157.03 29.91 5.6-3.21c.58 1.23 1.27 2.16 2.07 2.79s1.71.95 2.71.95c.2 0 1.39 0 1.48-.01s.44-.03.55-.06c.37-.46.52-.87.59-1.16.76-2.99-.68-5.52-2.2-6.94-1.29-1.2-6.18-5.67-7.81-7.39-1.01-1.06-2.62-3.32-2.62-5.51 0-.98.38-2.37 1.22-3.46 1.38-1.82 2.68-3.07 4.57-4.27 1.91-1.21 3.35-1.64 4.21-1.64 1.25 0 2.38.36 3.41 1.09s1.89 1.78 2.58 3.17l-5.24 3.39c-.62-1.09-1.41-1.99-2.29-2.6-1.43-1-2.91-.7-2.91-.7s-.58.6-.58 1.87c0 1.29.36 2.62 1.24 3.59 1.22 1.35 1.99 1.91 3.7 3.54 1.95 1.86 2.26 2.09 3.99 3.72.77.73 1.1 1.02 1.72 1.88 2.32 3.24 1.57 7.25.11 9.57-.95 1.51-3.03 3-6 5.12-.49.33-.95.57-1.39.72-.44.14-.96.22-1.55.22-1.58 0-2.96-.39-4.16-1.16-1.18-.78-2.18-1.95-3-3.51z"/><path d="m72.9 3.79c-.78 0-1.45.07-2 .19-.55.13-.94.31-1.18.53-.47.47-.89 1.09-1.25 1.84-.33.68-.49 1.43-.49 2.18v5.43c0 6.64.1 9.08 1.28 11.46 1.54 3.1 4.46 5.37 7.44 5.37l1.82 2.47c-.66.43-1.7.94-2.55 1.13-.73.17-1.11.19-2.03.19-3.41 0-6.29-1.14-8.64-3.43-2.35-2.28-3.53-5.13-3.53-8.53 0-3.6 0-6.26 0-10.24 0-3.3 1.11-4.71 2.52-6.05s4.15-3.38 7.1-5.2c.68-.42 1.66-.8 2.23-.93"/><path d="m76.72 30.79c.78 0 1.45-.07 2-.19.55-.13.94-.31 1.18-.53.47-.47.89-1.09 1.25-1.84.33-.68.49-1.43.49-2.18v-5.43c0-6.64-.1-9.08-1.28-11.46-1.54-3.1-4.46-5.37-7.44-5.37l-1.82-2.47c.66-.43 1.7-.94 2.55-1.13.72-.17 1.1-.19 2.02-.19 3.41 0 6.29 1.14 8.64 3.43 2.35 2.28 3.53 5.13 3.53 8.53v10.24c0 3.3-1.11 4.71-2.52 6.05s-4.15 3.38-7.1 5.2c-.68.42-1.66.8-2.23.93"/><path d="m61.94 10.41c-.49 2.38-.49 11.27-.04 14.06"/><path d="m87.68 24.17c.49-2.38.49-11.27.04-14.06"/><path d="m88 47.77c-.78 0-1.45.07-2 .19-.55.13-.94.31-1.18.53-.47.47-.89 1.09-1.25 1.84-.33.68-.49 1.43-.49 2.18v5.43c0 6.64.1 9.08 1.28 11.46 1.54 3.1 4.46 5.37 7.44 5.37l1.82 2.47c-.66.43-1.7.94-2.55 1.13-.73.17-1.11.19-2.03.19-3.41 0-6.29-1.14-8.64-3.43-2.35-2.28-3.53-5.13-3.53-8.53 0-3.6 0-6.26 0-10.24 0-3.3 1.11-4.71 2.52-6.05 1.4-1.35 4.15-3.38 7.1-5.2.68-.42 1.66-.8 2.23-.93"/><path d="m91.83 74.77c.78 0 1.45-.07 2-.19.55-.13.94-.31 1.18-.53.47-.47.89-1.09 1.25-1.84.33-.68.49-1.43.49-2.18v-5.43c0-6.64-.1-9.08-1.28-11.46-1.54-3.1-4.46-5.37-7.44-5.37l-1.82-2.47c.66-.43 1.7-.94 2.55-1.13.73-.17 1.11-.19 2.03-.19 3.41 0 6.29 1.14 8.64 3.43 2.35 2.28 3.53 5.13 3.53 8.53v10.24c0 3.3-1.11 4.71-2.52 6.05-1.4 1.35-4.15 3.38-7.1 5.2-.68.42-1.66.8-2.23.93"/><path d="m77.04 54.39c-.49 2.38-.49 11.27-.04 14.06"/><path d="m102.79 68.15c.49-2.38.49-11.27.04-14.06"/><path d="m117.97 47.77c-.78 0-1.45.07-2 .19-.55.13-.94.31-1.18.53-.47.47-.89 1.09-1.25 1.84-.33.68-.49 1.43-.49 2.18v5.43c0 6.64.1 9.08 1.28 11.46 1.54 3.1 4.46 5.37 7.44 5.37l1.82 2.47c-.66.43-1.7.94-2.55 1.13-.73.17-1.11.19-2.03.19-3.41 0-6.29-1.14-8.64-3.43-2.35-2.28-3.53-5.13-3.53-8.53 0-3.6 0-6.26 0-10.24 0-3.3 1.11-4.71 2.52-6.05 1.4-1.35 4.15-3.38 7.1-5.2.68-.42 1.66-.8 2.23-.93"/><path d="m121.79 74.77c.78 0 1.45-.07 2-.19.55-.13.94-.31 1.18-.53.47-.47.89-1.09 1.25-1.84.33-.68.49-1.43.49-2.18v-5.43c0-6.64-.1-9.08-1.28-11.46-1.54-3.1-4.46-5.37-7.44-5.37l-1.82-2.47c.66-.43 1.7-.94 2.55-1.13.73-.17 1.11-.19 2.03-.19 3.41 0 6.29 1.14 8.64 3.43 2.35 2.28 3.53 5.13 3.53 8.53v10.24c0 3.3-1.11 4.71-2.52 6.05s-4.15 3.38-7.1 5.2c-.68.42-1.66.8-2.23.93"/><path d="m107.01 54.39c-.49 2.38-.49 11.27-.04 14.06"/><path d="m132.75 68.15c.49-2.38.49-11.27.04-14.06"/></g></svg>